{
	"materials":[{
		"pbrMetallicRoughness":{
			"baseColorFactor":[0.047058823529411767,
			0.047058823529411767,
			0.047058823529411767,
			1.0],
			"metallicFactor":1.0,
			"roughnessFactor":1.0
		},
		"emissiveFactor":[0.0,
		0.0,
		0.0],
		"alphaMode":"OPAQUE",
		"doubleSided":true,
		"name":"Mat"
	},
	{
		"pbrMetallicRoughness":{
			"baseColorTexture":{
				"index":0
			},
			"baseColorFactor":[0.8,
			0.8,
			0.8,
			1.0],
			"metallicFactor":0.02,
			"roughnessFactor":0.0
		},
		"emissiveFactor":[0.0,
		0.0,
		0.0],
		"alphaMode":"OPAQUE",
		"doubleSided":true,
		"name":"Bottom"
	},
	{
		"pbrMetallicRoughness":{
			"baseColorTexture":{
				"index":1
			},
			"baseColorFactor":[0.8,
			0.8,
			0.8,
			1.0],
			"metallicFactor":0.02,
			"roughnessFactor":0.0
		},
		"emissiveFactor":[0.0,
		0.0,
		0.0],
		"alphaMode":"OPAQUE",
		"doubleSided":true,
		"name":"Top"
	}],
	"asset":{
		"version":"2.0",
		"generator":"Created using the official Cinema 4D glTF Exporter 1.000x284978"
	},
	"textures":[{
		"sampler":0,
		"source":0
	},
	{
		"sampler":1,
		"source":1
	}],
	"scenes":[{
		"nodes":[0]
	}],
	"nodes":[{
		"name":"Old Board 1",
		"children":[1,
		2,
		3]
	},
	{
		"name":"Old Board 1-Mat",
		"mesh":0
	},
	{
		"name":"Old Board 1-Bottom",
		"mesh":1
	},
	{
		"name":"Old Board 1-Top",
		"mesh":2
	}],
	"samplers":[{
		"magFilter":9729,
		"minFilter":9729,
		"wrapS":10497,
		"wrapT":10497
	},
	{
		"magFilter":9729,
		"minFilter":9729,
		"wrapS":10497,
		"wrapT":10497
	}],
	"meshes":[{
		"name":"Old Board 1-Mat",
		"primitives":[{
			"indices":0,
			"attributes":{
				"POSITION":1,
				"NORMAL":2,
				"TEXCOORD_0":3
			},
			"material":0
		}]
	},
	{
		"name":"Old Board 1-Bottom",
		"primitives":[{
			"indices":4,
			"attributes":{
				"POSITION":5,
				"NORMAL":6,
				"TEXCOORD_0":7
			},
			"material":1
		}]
	},
	{
		"name":"Old Board 1-Top",
		"primitives":[{
			"indices":8,
			"attributes":{
				"POSITION":9,
				"NORMAL":10,
				"TEXCOORD_0":11
			},
			"material":2
		}]
	}],
	"accessors":[{
		"bufferView":0,
		"type":"SCALAR",
		"componentType":5123,
		"count":558,
		"byteOffset":0,
		"min":[0],
		"max":[211]
	},
	{
		"bufferView":1,
		"type":"VEC3",
		"componentType":5126,
		"count":212,
		"byteOffset":0,
		"min":[-30.40023422241211,
		5.355386734008789,
		1.6127328872680665],
		"max":[32.297176361083987,
		350.2009582519531,
		13.24683952331543]
	},
	{
		"bufferView":1,
		"type":"VEC3",
		"componentType":5126,
		"count":212,
		"byteOffset":12,
		"min":[-0.9999688267707825,
		-0.9999688267707825,
		0.0],
		"max":[1.0,
		0.9049375653266907,
		0.42387503385543826]
	},
	{
		"bufferView":1,
		"type":"VEC2",
		"componentType":5126,
		"count":212,
		"byteOffset":24,
		"min":[0.0,
		0.0],
		"max":[1.0,
		1.0]
	},
	{
		"bufferView":2,
		"type":"SCALAR",
		"componentType":5123,
		"count":273,
		"byteOffset":0,
		"min":[0],
		"max":[92]
	},
	{
		"bufferView":3,
		"type":"VEC3",
		"componentType":5126,
		"count":93,
		"byteOffset":0,
		"min":[-30.40023422241211,
		5.355386734008789,
		1.6127328872680665],
		"max":[32.297176361083987,
		350.2009582519531,
		11.990706443786621]
	},
	{
		"bufferView":3,
		"type":"VEC3",
		"componentType":5126,
		"count":93,
		"byteOffset":12,
		"min":[-0.002812500111758709,
		0.0,
		-1.0],
		"max":[0.001312500098720193,
		0.4221875071525574,
		-0.9064375162124634]
	},
	{
		"bufferView":3,
		"type":"VEC2",
		"componentType":5126,
		"count":93,
		"byteOffset":24,
		"min":[0.2216155230998993,
		0.06477050483226776],
		"max":[0.7924658060073853,
		0.9164011478424072]
	},
	{
		"bufferView":4,
		"type":"SCALAR",
		"componentType":5123,
		"count":273,
		"byteOffset":0,
		"min":[0],
		"max":[92]
	},
	{
		"bufferView":5,
		"type":"VEC3",
		"componentType":5126,
		"count":93,
		"byteOffset":0,
		"min":[-30.40023422241211,
		5.355386734008789,
		3.0],
		"max":[32.297176361083987,
		349.6121826171875,
		13.24683952331543]
	},
	{
		"bufferView":5,
		"type":"VEC3",
		"componentType":5126,
		"count":93,
		"byteOffset":12,
		"min":[-0.001312500098720193,
		-0.4220312833786011,
		0.9065625667572022],
		"max":[0.002812500111758709,
		0.0,
		1.0]
	},
	{
		"bufferView":5,
		"type":"VEC2",
		"componentType":5126,
		"count":93,
		"byteOffset":24,
		"min":[0.23462826013565064,
		0.047982268035411838],
		"max":[0.7688535451889038,
		0.9531430006027222]
	}],
	"bufferViews":[{
		"buffer":0,
		"byteOffset":0,
		"byteLength":1116,
		"target":34963
	},
	{
		"buffer":0,
		"byteOffset":1116,
		"byteLength":6784,
		"target":34962,
		"byteStride":32
	},
	{
		"buffer":1,
		"byteOffset":0,
		"byteLength":546,
		"target":34963
	},
	{
		"buffer":1,
		"byteOffset":548,
		"byteLength":2976,
		"target":34962,
		"byteStride":32
	},
	{
		"buffer":2,
		"byteOffset":0,
		"byteLength":546,
		"target":34963
	},
	{
		"buffer":2,
		"byteOffset":548,
		"byteLength":2976,
		"target":34962,
		"byteStride":32
	}],
	"buffers":[{
		"uri":"data:application/octet-stream;base64,",
		"byteLength":7900
	},
	{
		"uri":"data:application/octet-stream;base64,",
		"byteLength":3524
	},
	{
		"uri":"data:application/octet-stream;base64,",
		"byteLength":3524
	}],
	"images":[{
		"uri":"data:image/jpeg;base64,"
	},
	{
		"uri":"data:image/jpeg;base64,"
	}]
}