{
	"materials":[{
		"pbrMetallicRoughness":{
			"baseColorFactor":[0.08627450980392157,
			0.14117647058823538,
			0.24313725490196079,
			1.0],
			"metallicFactor":1.0,
			"roughnessFactor":1.0
		},
		"emissiveFactor":[0.0,
		0.0,
		0.0],
		"alphaMode":"OPAQUE",
		"doubleSided":true,
		"name":"Mat.1"
	},
	{
		"pbrMetallicRoughness":{
			"baseColorTexture":{
				"index":0
			},
			"baseColorFactor":[0.8,
			0.8,
			0.8,
			1.0],
			"metallicFactor":1.0,
			"roughnessFactor":1.0
		},
		"emissiveFactor":[0.0,
		0.0,
		0.0],
		"alphaMode":"OPAQUE",
		"doubleSided":true,
		"name":"Mat"
	},
	{
		"pbrMetallicRoughness":{
			"baseColorTexture":{
				"index":1
			},
			"baseColorFactor":[0.8,
			0.8,
			0.8,
			1.0],
			"metallicFactor":1.0,
			"roughnessFactor":1.0
		},
		"emissiveFactor":[0.0,
		0.0,
		0.0],
		"alphaMode":"OPAQUE",
		"doubleSided":true,
		"name":"Mat"
	}],
	"asset":{
		"version":"2.0",
		"generator":"Created using the official Cinema 4D glTF Exporter 1.000x284978"
	},
	"textures":[{
		"sampler":0,
		"source":0
	},
	{
		"sampler":1,
		"source":1
	}],
	"scenes":[{
		"nodes":[0]
	}],
	"nodes":[{
		"name":"Extrude.1",
		"children":[1,
		2,
		3]
	},
	{
		"name":"Extrude.1-Mat.1",
		"mesh":0
	},
	{
		"name":"Extrude.1-Mat",
		"mesh":1
	},
	{
		"name":"Extrude.1-Mat",
		"mesh":2
	}],
	"samplers":[{
		"magFilter":9729,
		"minFilter":9729,
		"wrapS":10497,
		"wrapT":10497
	},
	{
		"magFilter":9729,
		"minFilter":9729,
		"wrapS":10497,
		"wrapT":10497
	}],
	"meshes":[{
		"name":"Extrude.1-Mat.1",
		"primitives":[{
			"indices":0,
			"attributes":{
				"POSITION":1,
				"NORMAL":2,
				"TEXCOORD_0":3
			},
			"material":0
		}]
	},
	{
		"name":"Extrude.1-Mat",
		"primitives":[{
			"indices":4,
			"attributes":{
				"POSITION":5,
				"NORMAL":6,
				"TEXCOORD_0":7
			},
			"material":1
		}]
	},
	{
		"name":"Extrude.1-Mat",
		"primitives":[{
			"indices":8,
			"attributes":{
				"POSITION":9,
				"NORMAL":10,
				"TEXCOORD_0":11
			},
			"material":2
		}]
	}],
	"accessors":[{
		"bufferView":0,
		"type":"SCALAR",
		"componentType":5123,
		"count":2574,
		"byteOffset":0,
		"min":[0],
		"max":[861]
	},
	{
		"bufferView":1,
		"type":"VEC3",
		"componentType":5126,
		"count":862,
		"byteOffset":0,
		"min":[-15.051514625549317,
		-3.019695281982422,
		0.7739373445510864],
		"max":[14.152647018432618,
		147.5292510986328,
		6.3004865646362309]
	},
	{
		"bufferView":1,
		"type":"VEC3",
		"componentType":5126,
		"count":862,
		"byteOffset":12,
		"min":[-1.0,
		-0.8744375705718994,
		0.0],
		"max":[1.0,
		0.8857187628746033,
		0.48621878027915957]
	},
	{
		"bufferView":1,
		"type":"VEC2",
		"componentType":5126,
		"count":862,
		"byteOffset":24,
		"min":[0.0,
		0.0],
		"max":[1.0,
		1.0]
	},
	{
		"bufferView":2,
		"type":"SCALAR",
		"componentType":5123,
		"count":2817,
		"byteOffset":0,
		"min":[0],
		"max":[687]
	},
	{
		"bufferView":3,
		"type":"VEC3",
		"componentType":5126,
		"count":688,
		"byteOffset":0,
		"min":[-15.051514625549317,
		-3.019695281982422,
		0.7739373445510864],
		"max":[14.152647018432618,
		147.5292510986328,
		5.7647223472595219]
	},
	{
		"bufferView":3,
		"type":"VEC3",
		"componentType":5126,
		"count":688,
		"byteOffset":12,
		"min":[-0.10593750327825546,
		-0.9957500696182251,
		-1.0],
		"max":[0.9880937933921814,
		0.47200003266334536,
		0.9893438220024109]
	},
	{
		"bufferView":3,
		"type":"VEC2",
		"componentType":5126,
		"count":688,
		"byteOffset":24,
		"min":[0.0,
		0.0],
		"max":[0.8085557222366333,
		0.9678019285202026]
	},
	{
		"bufferView":4,
		"type":"SCALAR",
		"componentType":5123,
		"count":2829,
		"byteOffset":0,
		"min":[0],
		"max":[691]
	},
	{
		"bufferView":5,
		"type":"VEC3",
		"componentType":5126,
		"count":692,
		"byteOffset":0,
		"min":[-15.051514625549317,
		-2.725543260574341,
		1.378692626953125],
		"max":[14.152647018432618,
		147.24859619140626,
		6.3004865646362309]
	},
	{
		"bufferView":5,
		"type":"VEC3",
		"componentType":5126,
		"count":692,
		"byteOffset":12,
		"min":[-0.19037501513957978,
		-0.4709687829017639,
		-0.9895625710487366],
		"max":[0.10390625149011612,
		0.9854062795639038,
		1.0]
	},
	{
		"bufferView":5,
		"type":"VEC2",
		"componentType":5126,
		"count":692,
		"byteOffset":24,
		"min":[0.0,
		0.0],
		"max":[0.7981163263320923,
		0.9462014436721802]
	}],
	"bufferViews":[{
		"buffer":0,
		"byteOffset":0,
		"byteLength":5148,
		"target":34963
	},
	{
		"buffer":0,
		"byteOffset":5148,
		"byteLength":27584,
		"target":34962,
		"byteStride":32
	},
	{
		"buffer":1,
		"byteOffset":0,
		"byteLength":5634,
		"target":34963
	},
	{
		"buffer":1,
		"byteOffset":5636,
		"byteLength":22016,
		"target":34962,
		"byteStride":32
	},
	{
		"buffer":2,
		"byteOffset":0,
		"byteLength":5658,
		"target":34963
	},
	{
		"buffer":2,
		"byteOffset":5660,
		"byteLength":22144,
		"target":34962,
		"byteStride":32
	}],
	"buffers":[{
		"uri":"data:application/octet-stream;base64,",
		"byteLength":32732
	},
	{
		"uri":"data:application/octet-stream;base64,",
		"byteLength":27652
	},
	{
		"uri":"data:application/octet-stream;base64,",
		"byteLength":27804
	}],
	"images":[{
		"uri":"data:image/jpeg;base64,"
	},
	{
		"uri":"data:image/jpeg;base64,"
	}]
}