{
	"materials":[{
		"pbrMetallicRoughness":{
			"baseColorFactor":[0.3764705882352941,
			0.40784313725490198,
			0.45098039215686278,
			1.0],
			"metallicFactor":1.0,
			"roughnessFactor":1.0
		},
		"emissiveFactor":[0.0,
		0.0,
		0.0],
		"alphaMode":"OPAQUE",
		"doubleSided":true,
		"name":"Mat.1"
	},
	{
		"pbrMetallicRoughness":{
			"baseColorTexture":{
				"index":0
			},
			"baseColorFactor":[0.8,
			0.8,
			0.8,
			1.0],
			"metallicFactor":1.0,
			"roughnessFactor":1.0
		},
		"emissiveFactor":[0.0,
		0.0,
		0.0],
		"alphaMode":"OPAQUE",
		"doubleSided":true,
		"name":"Mat"
	},
	{
		"pbrMetallicRoughness":{
			"baseColorTexture":{
				"index":1
			},
			"baseColorFactor":[0.8,
			0.8,
			0.8,
			1.0],
			"metallicFactor":1.0,
			"roughnessFactor":1.0
		},
		"emissiveFactor":[0.0,
		0.0,
		0.0],
		"alphaMode":"OPAQUE",
		"doubleSided":true,
		"name":"Mat"
	}],
	"asset":{
		"version":"2.0",
		"generator":"Created using the official Cinema 4D glTF Exporter 1.000x284978"
	},
	"textures":[{
		"sampler":0,
		"source":0
	},
	{
		"sampler":1,
		"source":1
	}],
	"scenes":[{
		"nodes":[0]
	}],
	"nodes":[{
		"name":"Extrude.1",
		"children":[1,
		2,
		3]
	},
	{
		"name":"Extrude.1-Mat.1",
		"mesh":0
	},
	{
		"name":"Extrude.1-Mat",
		"mesh":1
	},
	{
		"name":"Extrude.1-Mat",
		"mesh":2
	}],
	"samplers":[{
		"magFilter":9729,
		"minFilter":9729,
		"wrapS":10497,
		"wrapT":10497
	},
	{
		"magFilter":9729,
		"minFilter":9729,
		"wrapS":10497,
		"wrapT":10497
	}],
	"meshes":[{
		"name":"Extrude.1-Mat.1",
		"primitives":[{
			"indices":0,
			"attributes":{
				"POSITION":1,
				"NORMAL":2,
				"TEXCOORD_0":3
			},
			"material":0
		}]
	},
	{
		"name":"Extrude.1-Mat",
		"primitives":[{
			"indices":4,
			"attributes":{
				"POSITION":5,
				"NORMAL":6,
				"TEXCOORD_0":7
			},
			"material":1
		}]
	},
	{
		"name":"Extrude.1-Mat",
		"primitives":[{
			"indices":8,
			"attributes":{
				"POSITION":9,
				"NORMAL":10,
				"TEXCOORD_0":11
			},
			"material":2
		}]
	}],
	"accessors":[{
		"bufferView":0,
		"type":"SCALAR",
		"componentType":5123,
		"count":1044,
		"byteOffset":0,
		"min":[0],
		"max":[351]
	},
	{
		"bufferView":1,
		"type":"VEC3",
		"componentType":5126,
		"count":352,
		"byteOffset":0,
		"min":[-13.146750450134278,
		-4.839061737060547,
		-1.0],
		"max":[13.142293930053711,
		134.2558135986328,
		5.15770149230957]
	},
	{
		"bufferView":1,
		"type":"VEC3",
		"componentType":5126,
		"count":352,
		"byteOffset":12,
		"min":[-0.9999688267707825,
		-0.8970937728881836,
		-0.0017500000540167094],
		"max":[0.9999688267707825,
		0.8895000219345093,
		0.6480937600135803]
	},
	{
		"bufferView":1,
		"type":"VEC2",
		"componentType":5126,
		"count":352,
		"byteOffset":24,
		"min":[0.0,
		0.0],
		"max":[0.9999966621398926,
		1.0]
	},
	{
		"bufferView":2,
		"type":"SCALAR",
		"componentType":5123,
		"count":1251,
		"byteOffset":0,
		"min":[0],
		"max":[311]
	},
	{
		"bufferView":3,
		"type":"VEC3",
		"componentType":5126,
		"count":312,
		"byteOffset":0,
		"min":[-13.146750450134278,
		-4.839061737060547,
		-1.0],
		"max":[13.142293930053711,
		134.2558135986328,
		4.267961025238037]
	},
	{
		"bufferView":3,
		"type":"VEC3",
		"componentType":5126,
		"count":312,
		"byteOffset":12,
		"min":[-0.9388750195503235,
		-0.484250009059906,
		-1.0],
		"max":[0.5103750228881836,
		0.8470937609672546,
		0.09815625101327896]
	},
	{
		"bufferView":3,
		"type":"VEC2",
		"componentType":5126,
		"count":312,
		"byteOffset":24,
		"min":[0.0,
		0.0],
		"max":[0.8129709959030151,
		0.9550422430038452]
	},
	{
		"bufferView":4,
		"type":"SCALAR",
		"componentType":5123,
		"count":1107,
		"byteOffset":0,
		"min":[0],
		"max":[286]
	},
	{
		"bufferView":5,
		"type":"VEC3",
		"componentType":5126,
		"count":287,
		"byteOffset":0,
		"min":[-13.146224021911621,
		-4.3976149559021,
		-0.000184097996680066],
		"max":[13.142290115356446,
		133.79931640625,
		5.15770149230957]
	},
	{
		"bufferView":5,
		"type":"VEC3",
		"componentType":5126,
		"count":287,
		"byteOffset":12,
		"min":[-0.936500072479248,
		-0.846875011920929,
		0.09600000083446503],
		"max":[0.7102500200271606,
		0.8087812662124634,
		1.0]
	},
	{
		"bufferView":5,
		"type":"VEC2",
		"componentType":5126,
		"count":287,
		"byteOffset":24,
		"min":[0.0,
		0.0],
		"max":[0.8026468753814697,
		0.9626599550247192]
	}],
	"bufferViews":[{
		"buffer":0,
		"byteOffset":0,
		"byteLength":2088,
		"target":34963
	},
	{
		"buffer":0,
		"byteOffset":2088,
		"byteLength":11264,
		"target":34962,
		"byteStride":32
	},
	{
		"buffer":1,
		"byteOffset":0,
		"byteLength":2502,
		"target":34963
	},
	{
		"buffer":1,
		"byteOffset":2504,
		"byteLength":9984,
		"target":34962,
		"byteStride":32
	},
	{
		"buffer":2,
		"byteOffset":0,
		"byteLength":2214,
		"target":34963
	},
	{
		"buffer":2,
		"byteOffset":2216,
		"byteLength":9184,
		"target":34962,
		"byteStride":32
	}],
	"buffers":[{
		"uri":"data:application/octet-stream;base64,",
		"byteLength":13352
	},
	{
		"uri":"data:application/octet-stream;base64,",
		"byteLength":12488
	},
	{
		"uri":"data:application/octet-stream;base64,",
		"byteLength":11400
	}],
	"images":[{
		"uri":"data:image/jpeg;base64,"
	},
	{
		"uri":"data:image/jpeg;base64,"
	}]
}