{
	"nodes":[{
		"name":"Extrude.3",
		"children":[1,
		2,
		3,
		4]
	},
	{
		"name":"Extrude.3",
		"mesh":0
	},
	{
		"name":"Extrude.3-Mat",
		"mesh":1
	},
	{
		"name":"Extrude.3-Mat",
		"mesh":2
	},
	{
		"name":"Extrude.3-Mat.6",
		"mesh":3
	},
	{
		"name":"Extrude.1",
		"translation":[-0.47811266779899599,
		-1.6928210258483887,
		1.6188753843307496],
		"rotation":[0.0,
		0.0,
		0.0,
		-1.0],
		"scale":[1.0,
		1.0,
		1.0],
		"children":[6,
		7,
		8]
	},
	{
		"name":"Extrude.1",
		"mesh":4
	},
	{
		"name":"Extrude.1-Mat.7",
		"mesh":5
	},
	{
		"name":"Extrude.1-Mat",
		"mesh":6
	}],
	"asset":{
		"version":"2.0",
		"generator":"Created using the official Cinema 4D glTF Exporter 1.000x284978"
	},
	"images":[{
		"uri":"data:image/jpeg;base64,"
	},
	{
		"uri":"data:image/jpeg;base64,"
	}],
	"scenes":[{
		"nodes":[0,
		5]
	}],
	"materials":[{
		"emissiveFactor":[0.0,
		0.0,
		0.0],
		"pbrMetallicRoughness":{
			"baseColorFactor":[0.8509803921568627,
			0.7529411764705882,
			0.6196078431372549,
			1.0],
			"metallicFactor":0.0,
			"roughnessFactor":0.5
		},
		"alphaMode":"OPAQUE",
		"doubleSided":true,
		"name":"Mat"
	},
	{
		"emissiveFactor":[0.0,
		0.0,
		0.0],
		"pbrMetallicRoughness":{
			"baseColorFactor":[0.9400000000000001,
			0.7849,
			0.09399999999999999,
			1.0],
			"metallicFactor":1.0,
			"roughnessFactor":1.0
		},
		"alphaMode":"OPAQUE",
		"doubleSided":true,
		"name":"Mat"
	},
	{
		"emissiveFactor":[0.0,
		0.0,
		0.0],
		"pbrMetallicRoughness":{
			"baseColorFactor":[0.8,
			0.8,
			0.8,
			1.0],
			"metallicFactor":0.0,
			"roughnessFactor":0.5
		},
		"alphaMode":"OPAQUE",
		"doubleSided":true,
		"name":"Mat.6"
	},
	{
		"emissiveFactor":[0.0,
		0.0,
		0.0],
		"pbrMetallicRoughness":{
			"baseColorTexture":{
				"index":0
			},
			"baseColorFactor":[0.8,
			0.8,
			0.8,
			1.0],
			"metallicFactor":0.01,
			"roughnessFactor":0.0
		},
		"alphaMode":"OPAQUE",
		"doubleSided":true,
		"name":"Mat.7"
	},
	{
		"emissiveFactor":[0.0,
		0.0,
		0.0],
		"pbrMetallicRoughness":{
			"baseColorTexture":{
				"index":1
			},
			"baseColorFactor":[0.8,
			0.8,
			0.8,
			1.0],
			"metallicFactor":0.05,
			"roughnessFactor":0.0
		},
		"alphaMode":"OPAQUE",
		"doubleSided":true,
		"name":"Mat"
	}],
	"meshes":[{
		"name":"Extrude.3",
		"primitives":[{
			"attributes":{
				"POSITION":1,
				"NORMAL":2,
				"TEXCOORD_0":3
			},
			"indices":0
		}]
	},
	{
		"name":"Extrude.3-Mat",
		"primitives":[{
			"attributes":{
				"POSITION":5,
				"NORMAL":6,
				"TEXCOORD_0":7
			},
			"indices":4,
			"material":0
		}]
	},
	{
		"name":"Extrude.3-Mat",
		"primitives":[{
			"attributes":{
				"POSITION":9,
				"NORMAL":10,
				"TEXCOORD_0":11
			},
			"indices":8,
			"material":1
		}]
	},
	{
		"name":"Extrude.3-Mat.6",
		"primitives":[{
			"attributes":{
				"POSITION":13,
				"NORMAL":14,
				"TEXCOORD_0":15
			},
			"indices":12,
			"material":2
		}]
	},
	{
		"name":"Extrude.1",
		"primitives":[{
			"attributes":{
				"POSITION":17,
				"NORMAL":18,
				"TEXCOORD_0":19
			},
			"indices":16
		}]
	},
	{
		"name":"Extrude.1-Mat.7",
		"primitives":[{
			"attributes":{
				"POSITION":21,
				"NORMAL":22,
				"TEXCOORD_0":23
			},
			"indices":20,
			"material":3
		}]
	},
	{
		"name":"Extrude.1-Mat",
		"primitives":[{
			"attributes":{
				"POSITION":25,
				"NORMAL":26,
				"TEXCOORD_0":27
			},
			"indices":24,
			"material":4
		}]
	}],
	"accessors":[{
		"bufferView":0,
		"type":"SCALAR",
		"componentType":5123,
		"count":291,
		"byteOffset":0,
		"min":[0],
		"max":[104]
	},
	{
		"bufferView":1,
		"type":"VEC3",
		"componentType":5126,
		"count":105,
		"byteOffset":0,
		"min":[0.5023266077041626,
		44.03671646118164,
		4.574615001678467],
		"max":[14.70288372039795,
		46.75806427001953,
		7.3181352615356449]
	},
	{
		"bufferView":1,
		"type":"VEC3",
		"componentType":5126,
		"count":105,
		"byteOffset":12,
		"min":[-0.9980313181877136,
		-0.08756250143051148,
		-0.995218813419342],
		"max":[0.581000030040741,
		0.8114063143730164,
		0.9993438124656677]
	},
	{
		"bufferView":1,
		"type":"VEC2",
		"componentType":5126,
		"count":105,
		"byteOffset":24,
		"min":[0.04700873792171478,
		0.04933095723390579],
		"max":[0.9506697654724121,
		0.2619227170944214]
	},
	{
		"bufferView":2,
		"type":"SCALAR",
		"componentType":5123,
		"count":8754,
		"byteOffset":0,
		"min":[0],
		"max":[2048]
	},
	{
		"bufferView":3,
		"type":"VEC3",
		"componentType":5126,
		"count":2049,
		"byteOffset":0,
		"min":[-0.3762389123439789,
		42.854793548583987,
		4.574615001678467],
		"max":[15.417388916015625,
		47.400726318359378,
		7.3181352615356449]
	},
	{
		"bufferView":3,
		"type":"VEC3",
		"componentType":5126,
		"count":2049,
		"byteOffset":12,
		"min":[-0.9746875166893005,
		-0.9995625615119934,
		-0.9995625615119934],
		"max":[0.9785937666893005,
		0.999093770980835,
		0.9993438124656677]
	},
	{
		"bufferView":3,
		"type":"VEC2",
		"componentType":5126,
		"count":2049,
		"byteOffset":24,
		"min":[-0.05955298990011215,
		-0.05941210687160492],
		"max":[1.0594594478607178,
		0.7849999666213989]
	},
	{
		"bufferView":4,
		"type":"SCALAR",
		"componentType":5123,
		"count":9066,
		"byteOffset":0,
		"min":[0],
		"max":[2873]
	},
	{
		"bufferView":5,
		"type":"VEC3",
		"componentType":5126,
		"count":2874,
		"byteOffset":0,
		"min":[-3.1377251148223879,
		30.39079475402832,
		1.536866307258606],
		"max":[14.179409980773926,
		127.01811981201172,
		9.469624519348145]
	},
	{
		"bufferView":5,
		"type":"VEC3",
		"componentType":5126,
		"count":2874,
		"byteOffset":12,
		"min":[-0.998968780040741,
		-0.9679688215255737,
		-0.9998437762260437],
		"max":[0.9999688267707825,
		0.9777187705039978,
		0.9999688267707825]
	},
	{
		"bufferView":5,
		"type":"VEC2",
		"componentType":5126,
		"count":2874,
		"byteOffset":24,
		"min":[0.0,
		0.0],
		"max":[1.0,
		1.0]
	},
	{
		"bufferView":6,
		"type":"SCALAR",
		"componentType":5123,
		"count":480,
		"byteOffset":0,
		"min":[0],
		"max":[175]
	},
	{
		"bufferView":7,
		"type":"VEC3",
		"componentType":5126,
		"count":176,
		"byteOffset":0,
		"min":[-10.476584434509278,
		9.66235065460205,
		-1.6978907585144044],
		"max":[10.08610725402832,
		31.093528747558595,
		0.07412280887365341]
	},
	{
		"bufferView":7,
		"type":"VEC3",
		"componentType":5126,
		"count":176,
		"byteOffset":12,
		"min":[-0.9999688267707825,
		-0.9998437762260437,
		-0.9932500720024109],
		"max":[0.9999688267707825,
		0.06146875396370888,
		0.9939063191413879]
	},
	{
		"bufferView":7,
		"type":"VEC2",
		"componentType":5126,
		"count":176,
		"byteOffset":24,
		"min":[0.0,
		0.0],
		"max":[1.0,
		1.0]
	},
	{
		"bufferView":8,
		"type":"SCALAR",
		"componentType":5123,
		"count":1449,
		"byteOffset":0,
		"min":[0],
		"max":[520]
	},
	{
		"bufferView":9,
		"type":"VEC3",
		"componentType":5126,
		"count":521,
		"byteOffset":0,
		"min":[-9.702743530273438,
		1.7259193658828736,
		-2.5233757495880129],
		"max":[10.52343463897705,
		130.6106719970703,
		0.9297507405281067]
	},
	{
		"bufferView":9,
		"type":"VEC3",
		"componentType":5126,
		"count":521,
		"byteOffset":12,
		"min":[-0.9999688267707825,
		-0.8600000143051148,
		-0.21631251275539399],
		"max":[1.0,
		0.7792812585830689,
		0.6257500052452087]
	},
	{
		"bufferView":9,
		"type":"VEC2",
		"componentType":5126,
		"count":521,
		"byteOffset":24,
		"min":[0.05672188103199005,
		0.0],
		"max":[0.9530557990074158,
		0.9709537029266357]
	},
	{
		"bufferView":10,
		"type":"SCALAR",
		"componentType":5123,
		"count":717,
		"byteOffset":0,
		"min":[0],
		"max":[240]
	},
	{
		"bufferView":11,
		"type":"VEC3",
		"componentType":5126,
		"count":241,
		"byteOffset":0,
		"min":[-9.702736854553223,
		2.0053277015686037,
		-2.0268757343292238],
		"max":[10.52343463897705,
		130.24574279785157,
		0.9297507405281067]
	},
	{
		"bufferView":11,
		"type":"VEC3",
		"componentType":5126,
		"count":241,
		"byteOffset":12,
		"min":[-0.003718750085681677,
		-0.23781250417232514,
		0.9712188243865967],
		"max":[0.0062812501564621929,
		0.18790626525878907,
		1.0]
	},
	{
		"bufferView":11,
		"type":"VEC2",
		"componentType":5126,
		"count":241,
		"byteOffset":24,
		"min":[0.393174946308136,
		0.08967256546020508],
		"max":[0.6221911907196045,
		0.9707444906234741]
	},
	{
		"bufferView":12,
		"type":"SCALAR",
		"componentType":5123,
		"count":720,
		"byteOffset":0,
		"min":[0],
		"max":[241]
	},
	{
		"bufferView":13,
		"type":"VEC3",
		"componentType":5126,
		"count":242,
		"byteOffset":0,
		"min":[-9.702743530273438,
		1.7259193658828736,
		-2.5233757495880129],
		"max":[10.523427963256836,
		130.6106719970703,
		0.4760666787624359]
	},
	{
		"bufferView":13,
		"type":"VEC3",
		"componentType":5126,
		"count":242,
		"byteOffset":12,
		"min":[-0.005125000141561031,
		-0.18193751573562623,
		-1.0],
		"max":[0.002812500111758709,
		0.23784376680850984,
		-0.9712188243865967]
	},
	{
		"bufferView":13,
		"type":"VEC2",
		"componentType":5126,
		"count":242,
		"byteOffset":24,
		"min":[0.09133344888687134,
		0.03160390257835388],
		"max":[0.8978708982467651,
		0.9826204776763916]
	}],
	"bufferViews":[{
		"buffer":0,
		"byteOffset":0,
		"byteLength":582,
		"target":34963
	},
	{
		"buffer":0,
		"byteOffset":584,
		"byteLength":3360,
		"target":34962,
		"byteStride":32
	},
	{
		"buffer":1,
		"byteOffset":0,
		"byteLength":17508,
		"target":34963
	},
	{
		"buffer":1,
		"byteOffset":17508,
		"byteLength":65568,
		"target":34962,
		"byteStride":32
	},
	{
		"buffer":2,
		"byteOffset":0,
		"byteLength":18132,
		"target":34963
	},
	{
		"buffer":2,
		"byteOffset":18132,
		"byteLength":91968,
		"target":34962,
		"byteStride":32
	},
	{
		"buffer":3,
		"byteOffset":0,
		"byteLength":960,
		"target":34963
	},
	{
		"buffer":3,
		"byteOffset":960,
		"byteLength":5632,
		"target":34962,
		"byteStride":32
	},
	{
		"buffer":4,
		"byteOffset":0,
		"byteLength":2898,
		"target":34963
	},
	{
		"buffer":4,
		"byteOffset":2900,
		"byteLength":16672,
		"target":34962,
		"byteStride":32
	},
	{
		"buffer":5,
		"byteOffset":0,
		"byteLength":1434,
		"target":34963
	},
	{
		"buffer":5,
		"byteOffset":1436,
		"byteLength":7712,
		"target":34962,
		"byteStride":32
	},
	{
		"buffer":6,
		"byteOffset":0,
		"byteLength":1440,
		"target":34963
	},
	{
		"buffer":6,
		"byteOffset":1440,
		"byteLength":7744,
		"target":34962,
		"byteStride":32
	}],
	"buffers":[{
		"uri":"data:application/octet-stream;base64,",
		"byteLength":3944
	},
	{
		"uri":"data:application/octet-stream;base64,",
		"byteLength":83076
	},
	{
		"uri":"data:application/octet-stream;base64,",
		"byteLength":110100
	},
	{
		"uri":"data:application/octet-stream;base64,",
		"byteLength":6592
	},
	{
		"uri":"data:application/octet-stream;base64,",
		"byteLength":19572
	},
	{
		"uri":"data:application/octet-stream;base64,",
		"byteLength":9148
	},
	{
		"uri":"data:application/octet-stream;base64,",
		"byteLength":9184
	}],
	"samplers":[{
		"magFilter":9729,
		"minFilter":9729,
		"wrapS":10497,
		"wrapT":10497
	},
	{
		"magFilter":9729,
		"minFilter":9729,
		"wrapS":10497,
		"wrapT":10497
	}],
	"textures":[{
		"sampler":0,
		"source":0
	},
	{
		"sampler":1,
		"source":1
	}]
}