{
	"nodes":[{
		"name":"Extrude",
		"children":[1,
		2,
		3]
	},
	{
		"name":"Extrude-Mat",
		"mesh":0
	},
	{
		"name":"Extrude-Mat.2",
		"mesh":1
	},
	{
		"name":"Extrude-Mat",
		"mesh":2
	},
	{
		"name":"Extrude.3",
		"translation":[-0.4180389642715454,
		-0.35076776146888735,
		0.14423468708992005],
		"rotation":[-0.003063507843762636,
		0.0,
		0.0,
		-0.9999952912330627],
		"scale":[1.0,
		1.0,
		1.0],
		"mesh":3
	}],
	"asset":{
		"version":"2.0",
		"generator":"Created using the official Cinema 4D glTF Exporter 1.000x284978"
	},
	"images":[{
		"uri":"data:image/jpeg;base64,"
	},
	{
		"uri":"data:image/jpeg;base64,"
	},
	{
		"uri":"data:image/jpeg;base64,"
	}],
	"scenes":[{
		"nodes":[0,
		4]
	}],
	"materials":[{
		"emissiveFactor":[0.0,
		0.0,
		0.0],
		"pbrMetallicRoughness":{
			"baseColorTexture":{
				"index":0
			},
			"baseColorFactor":[0.8,
			0.8,
			0.8,
			1.0],
			"metallicFactor":1.0,
			"roughnessFactor":1.0
		},
		"alphaMode":"OPAQUE",
		"doubleSided":true,
		"name":"Mat"
	},
	{
		"emissiveFactor":[0.0,
		0.0,
		0.0],
		"pbrMetallicRoughness":{
			"baseColorFactor":[0.0,
			0.2862745098039214,
			0.6235294117647059,
			1.0],
			"metallicFactor":1.0,
			"roughnessFactor":1.0
		},
		"alphaMode":"OPAQUE",
		"doubleSided":true,
		"name":"Mat.2"
	},
	{
		"emissiveFactor":[0.0,
		0.0,
		0.0],
		"pbrMetallicRoughness":{
			"baseColorTexture":{
				"index":1
			},
			"baseColorFactor":[0.8,
			0.8,
			0.8,
			1.0],
			"metallicFactor":1.0,
			"roughnessFactor":1.0
		},
		"alphaMode":"OPAQUE",
		"doubleSided":true,
		"name":"Mat"
	},
	{
		"emissiveFactor":[0.0,
		0.0,
		0.0],
		"pbrMetallicRoughness":{
			"baseColorTexture":{
				"index":2
			},
			"baseColorFactor":[0.8,
			0.8,
			0.8,
			1.0],
			"metallicFactor":0.0,
			"roughnessFactor":0.5
		},
		"alphaMode":"OPAQUE",
		"doubleSided":true,
		"name":"Mat.4"
	}],
	"meshes":[{
		"name":"Extrude-Mat",
		"primitives":[{
			"attributes":{
				"POSITION":1,
				"NORMAL":2,
				"TEXCOORD_0":3
			},
			"indices":0,
			"material":0
		}]
	},
	{
		"name":"Extrude-Mat.2",
		"primitives":[{
			"attributes":{
				"POSITION":5,
				"NORMAL":6,
				"TEXCOORD_0":7
			},
			"indices":4,
			"material":1
		}]
	},
	{
		"name":"Extrude-Mat",
		"primitives":[{
			"attributes":{
				"POSITION":9,
				"NORMAL":10,
				"TEXCOORD_0":11
			},
			"indices":8,
			"material":2
		}]
	},
	{
		"name":"Extrude.3",
		"primitives":[{
			"attributes":{
				"POSITION":13,
				"NORMAL":14,
				"TEXCOORD_0":15
			},
			"indices":12,
			"material":3
		}]
	}],
	"accessors":[{
		"bufferView":0,
		"type":"SCALAR",
		"componentType":5123,
		"count":750,
		"byteOffset":0,
		"min":[0],
		"max":[251]
	},
	{
		"bufferView":1,
		"type":"VEC3",
		"componentType":5126,
		"count":252,
		"byteOffset":0,
		"min":[-16.650068283081056,
		0.024306928738951684,
		-0.8292875289916992],
		"max":[16.241500854492189,
		133.02967834472657,
		4.835269451141357]
	},
	{
		"bufferView":1,
		"type":"VEC3",
		"componentType":5126,
		"count":252,
		"byteOffset":12,
		"min":[-0.0325000025331974,
		-0.0014375001192092896,
		-1.0],
		"max":[0.05828125402331352,
		0.38615626096725466,
		-0.9223750233650208]
	},
	{
		"bufferView":1,
		"type":"VEC2",
		"componentType":5126,
		"count":252,
		"byteOffset":24,
		"min":[0.15500327944755555,
		0.02784889191389084],
		"max":[0.8692995309829712,
		0.9276174306869507]
	},
	{
		"bufferView":2,
		"type":"SCALAR",
		"componentType":5123,
		"count":1512,
		"byteOffset":0,
		"min":[0],
		"max":[513]
	},
	{
		"bufferView":3,
		"type":"VEC3",
		"componentType":5126,
		"count":514,
		"byteOffset":0,
		"min":[-16.650068283081056,
		0.024306928738951684,
		-0.8292875289916992],
		"max":[16.241500854492189,
		133.02967834472657,
		5.811553955078125]
	},
	{
		"bufferView":3,
		"type":"VEC3",
		"componentType":5126,
		"count":514,
		"byteOffset":12,
		"min":[-0.9999688267707825,
		-0.9998750686645508,
		0.0],
		"max":[0.9999688267707825,
		0.920343816280365,
		0.7924062609672546]
	},
	{
		"bufferView":3,
		"type":"VEC2",
		"componentType":5126,
		"count":514,
		"byteOffset":24,
		"min":[0.0,
		0.0],
		"max":[1.0,
		1.0]
	},
	{
		"bufferView":4,
		"type":"SCALAR",
		"componentType":5123,
		"count":750,
		"byteOffset":0,
		"min":[0],
		"max":[251]
	},
	{
		"bufferView":5,
		"type":"VEC3",
		"componentType":5126,
		"count":252,
		"byteOffset":0,
		"min":[-16.650068283081056,
		0.024306928738951684,
		0.23115688562393189],
		"max":[16.241500854492189,
		132.61566162109376,
		5.811553955078125]
	},
	{
		"bufferView":5,
		"type":"VEC3",
		"componentType":5126,
		"count":252,
		"byteOffset":12,
		"min":[-0.9282500147819519,
		-0.378468781709671,
		0.14128126204013825],
		"max":[0.13037501275539399,
		0.5573750138282776,
		1.0]
	},
	{
		"bufferView":5,
		"type":"VEC2",
		"componentType":5126,
		"count":252,
		"byteOffset":24,
		"min":[0.15846386551856996,
		0.03635949641466141],
		"max":[0.8427958488464356,
		0.9331226348876953]
	},
	{
		"bufferView":6,
		"type":"SCALAR",
		"componentType":5123,
		"count":540,
		"byteOffset":0,
		"min":[0],
		"max":[203]
	},
	{
		"bufferView":7,
		"type":"VEC3",
		"componentType":5126,
		"count":204,
		"byteOffset":0,
		"min":[-15.608475685119629,
		6.3609538078308109,
		-4.236861228942871],
		"max":[15.67752456665039,
		29.094478607177736,
		0.04115451127290726]
	},
	{
		"bufferView":7,
		"type":"VEC3",
		"componentType":5126,
		"count":204,
		"byteOffset":12,
		"min":[-1.0,
		-0.9999873638153076,
		-0.9996646046638489],
		"max":[1.0,
		0.3225114047527313,
		1.0]
	},
	{
		"bufferView":7,
		"type":"VEC2",
		"componentType":5126,
		"count":204,
		"byteOffset":24,
		"min":[0.0,
		0.0],
		"max":[1.0,
		1.0]
	}],
	"bufferViews":[{
		"buffer":0,
		"byteOffset":0,
		"byteLength":1500,
		"target":34963
	},
	{
		"buffer":0,
		"byteOffset":1500,
		"byteLength":8064,
		"target":34962,
		"byteStride":32
	},
	{
		"buffer":1,
		"byteOffset":0,
		"byteLength":3024,
		"target":34963
	},
	{
		"buffer":1,
		"byteOffset":3024,
		"byteLength":16448,
		"target":34962,
		"byteStride":32
	},
	{
		"buffer":2,
		"byteOffset":0,
		"byteLength":1500,
		"target":34963
	},
	{
		"buffer":2,
		"byteOffset":1500,
		"byteLength":8064,
		"target":34962,
		"byteStride":32
	},
	{
		"buffer":3,
		"byteOffset":0,
		"byteLength":1080,
		"target":34963
	},
	{
		"buffer":3,
		"byteOffset":1080,
		"byteLength":6528,
		"target":34962,
		"byteStride":32
	}],
	"buffers":[{
		"uri":"data:application/octet-stream;base64,",
		"byteLength":9564
	},
	{
		"uri":"data:application/octet-stream;base64,",
		"byteLength":19472
	},
	{
		"uri":"data:application/octet-stream;base64,",
		"byteLength":9564
	},
	{
		"uri":"data:application/octet-stream;base64,",
		"byteLength":7608
	}],
	"samplers":[{
		"magFilter":9729,
		"minFilter":9729,
		"wrapS":10497,
		"wrapT":10497
	},
	{
		"magFilter":9729,
		"minFilter":9729,
		"wrapS":10497,
		"wrapT":10497
	},
	{
		"magFilter":9729,
		"minFilter":9729,
		"wrapS":10497,
		"wrapT":10497
	}],
	"textures":[{
		"sampler":0,
		"source":0
	},
	{
		"sampler":1,
		"source":1
	},
	{
		"sampler":2,
		"source":2
	}]
}