{
	"nodes":[{
		"name":"Board",
		"children":[1,
		2,
		3,
		4]
	},
	{
		"name":"Board-Mat",
		"mesh":0
	},
	{
		"name":"Board-Mat.1",
		"mesh":1
	},
	{
		"name":"Board-Mat",
		"mesh":2
	},
	{
		"name":"Board-Mat",
		"mesh":3
	}],
	"asset":{
		"version":"2.0",
		"generator":"Created using the official Cinema 4D glTF Exporter 1.000x284978"
	},
	"images":[{
		"uri":"data:image/jpeg;base64,"
	},
	{
		"uri":"data:image/jpeg;base64,"
	},
	{
		"uri":"data:image/jpeg;base64,"
	}],
	"scenes":[{
		"nodes":[0]
	}],
	"materials":[{
		"emissiveFactor":[0.0,
		0.0,
		0.0],
		"pbrMetallicRoughness":{
			"baseColorTexture":{
				"index":0
			},
			"baseColorFactor":[0.8,
			0.8,
			0.8,
			1.0],
			"metallicFactor":1.0,
			"roughnessFactor":1.0
		},
		"alphaMode":"OPAQUE",
		"doubleSided":true,
		"name":"Mat"
	},
	{
		"emissiveFactor":[0.0,
		0.0,
		0.0],
		"pbrMetallicRoughness":{
			"baseColorTexture":{
				"index":1
			},
			"baseColorFactor":[0.8,
			0.8,
			0.8,
			1.0],
			"metallicFactor":1.0,
			"roughnessFactor":1.0
		},
		"alphaMode":"OPAQUE",
		"doubleSided":true,
		"name":"Mat.1"
	},
	{
		"emissiveFactor":[0.0,
		0.0,
		0.0],
		"pbrMetallicRoughness":{
			"baseColorTexture":{
				"index":2
			},
			"baseColorFactor":[0.8,
			0.8,
			0.8,
			1.0],
			"metallicFactor":1.0,
			"roughnessFactor":1.0
		},
		"alphaMode":"OPAQUE",
		"doubleSided":true,
		"name":"Mat"
	}],
	"meshes":[{
		"name":"Board-Mat",
		"primitives":[{
			"attributes":{
				"POSITION":1,
				"NORMAL":2,
				"TEXCOORD_0":3
			},
			"indices":0,
			"material":0
		}]
	},
	{
		"name":"Board-Mat.1",
		"primitives":[{
			"attributes":{
				"POSITION":5,
				"NORMAL":6,
				"TEXCOORD_0":7
			},
			"indices":4,
			"material":1
		}]
	},
	{
		"name":"Board-Mat",
		"primitives":[{
			"attributes":{
				"POSITION":9,
				"NORMAL":10,
				"TEXCOORD_0":11
			},
			"indices":8,
			"material":2
		}]
	},
	{
		"name":"Board-Mat",
		"primitives":[{
			"attributes":{
				"POSITION":13,
				"NORMAL":14,
				"TEXCOORD_0":15
			},
			"indices":12,
			"material":0
		}]
	}],
	"accessors":[{
		"bufferView":0,
		"type":"SCALAR",
		"componentType":5123,
		"count":228,
		"byteOffset":0,
		"min":[0],
		"max":[83]
	},
	{
		"bufferView":1,
		"type":"VEC3",
		"componentType":5126,
		"count":84,
		"byteOffset":0,
		"min":[-0.19534876942634583,
		23.90564727783203,
		-4.7408294677734379],
		"max":[0.16375122964382173,
		41.217681884765628,
		0.5429501533508301]
	},
	{
		"bufferView":1,
		"type":"VEC3",
		"componentType":5126,
		"count":84,
		"byteOffset":12,
		"min":[-1.0,
		-0.9999688267707825,
		-0.9998750686645508],
		"max":[1.0,
		0.36912500858306887,
		0.9999688267707825]
	},
	{
		"bufferView":1,
		"type":"VEC2",
		"componentType":5126,
		"count":84,
		"byteOffset":24,
		"min":[0.0,
		0.0],
		"max":[1.0,
		1.0]
	},
	{
		"bufferView":2,
		"type":"SCALAR",
		"componentType":5123,
		"count":810,
		"byteOffset":0,
		"min":[0],
		"max":[271]
	},
	{
		"bufferView":3,
		"type":"VEC3",
		"componentType":5126,
		"count":272,
		"byteOffset":0,
		"min":[-15.920177459716797,
		0.11479055881500244,
		1.5297850370407105],
		"max":[15.451510429382325,
		161.1778564453125,
		6.965080261230469]
	},
	{
		"bufferView":3,
		"type":"VEC3",
		"componentType":5126,
		"count":272,
		"byteOffset":12,
		"min":[-0.0009062500321306288,
		-0.3657187819480896,
		0.9306563138961792],
		"max":[0.0,
		-0.0020000000949949028,
		0.9999688267707825]
	},
	{
		"bufferView":3,
		"type":"VEC2",
		"componentType":5126,
		"count":272,
		"byteOffset":24,
		"min":[0.19620171189308167,
		0.023714594542980195],
		"max":[0.7993817329406738,
		0.955187201499939]
	},
	{
		"bufferView":4,
		"type":"SCALAR",
		"componentType":5123,
		"count":813,
		"byteOffset":0,
		"min":[0],
		"max":[272]
	},
	{
		"bufferView":5,
		"type":"VEC3",
		"componentType":5126,
		"count":273,
		"byteOffset":0,
		"min":[-15.920177459716797,
		0.11798666417598725,
		-0.009211692027747631],
		"max":[15.451510429382325,
		161.74574279785157,
		5.53466272354126]
	},
	{
		"bufferView":5,
		"type":"VEC3",
		"componentType":5126,
		"count":273,
		"byteOffset":12,
		"min":[0.0,
		0.0020000000949949028,
		-0.9999688267707825],
		"max":[0.000562500033993274,
		0.3657500147819519,
		-0.9306563138961792]
	},
	{
		"bufferView":5,
		"type":"VEC2",
		"componentType":5126,
		"count":273,
		"byteOffset":24,
		"min":[0.1838827133178711,
		0.017694897949695588],
		"max":[0.8042006492614746,
		0.952538251876831]
	},
	{
		"bufferView":6,
		"type":"SCALAR",
		"componentType":5123,
		"count":1635,
		"byteOffset":0,
		"min":[0],
		"max":[570]
	},
	{
		"bufferView":7,
		"type":"VEC3",
		"componentType":5126,
		"count":571,
		"byteOffset":0,
		"min":[-15.920177459716797,
		0.11479055881500244,
		-0.009211692027747631],
		"max":[15.451510429382325,
		161.74574279785157,
		6.965080261230469]
	},
	{
		"bufferView":7,
		"type":"VEC3",
		"componentType":5126,
		"count":571,
		"byteOffset":12,
		"min":[-1.0,
		-0.9999688267707825,
		-0.005656250286847353],
		"max":[1.0,
		0.9291250705718994,
		0.3685937821865082]
	},
	{
		"bufferView":7,
		"type":"VEC2",
		"componentType":5126,
		"count":571,
		"byteOffset":24,
		"min":[0.0,
		-0.0010392928961664439],
		"max":[1.0,
		1.0]
	}],
	"bufferViews":[{
		"buffer":0,
		"byteOffset":0,
		"byteLength":456,
		"target":34963
	},
	{
		"buffer":0,
		"byteOffset":456,
		"byteLength":2688,
		"target":34962,
		"byteStride":32
	},
	{
		"buffer":1,
		"byteOffset":0,
		"byteLength":1620,
		"target":34963
	},
	{
		"buffer":1,
		"byteOffset":1620,
		"byteLength":8704,
		"target":34962,
		"byteStride":32
	},
	{
		"buffer":2,
		"byteOffset":0,
		"byteLength":1626,
		"target":34963
	},
	{
		"buffer":2,
		"byteOffset":1628,
		"byteLength":8736,
		"target":34962,
		"byteStride":32
	},
	{
		"buffer":3,
		"byteOffset":0,
		"byteLength":3270,
		"target":34963
	},
	{
		"buffer":3,
		"byteOffset":3272,
		"byteLength":18272,
		"target":34962,
		"byteStride":32
	}],
	"buffers":[{
		"uri":"data:application/octet-stream;base64,",
		"byteLength":3144
	},
	{
		"uri":"data:application/octet-stream;base64,",
		"byteLength":10324
	},
	{
		"uri":"data:application/octet-stream;base64,",
		"byteLength":10364
	},
	{
		"uri":"data:application/octet-stream;base64,",
		"byteLength":21544
	}],
	"samplers":[{
		"magFilter":9729,
		"minFilter":9729,
		"wrapS":10497,
		"wrapT":10497
	},
	{
		"magFilter":9729,
		"minFilter":9729,
		"wrapS":10497,
		"wrapT":10497
	},
	{
		"magFilter":9729,
		"minFilter":9729,
		"wrapS":10497,
		"wrapT":10497
	}],
	"textures":[{
		"sampler":0,
		"source":0
	},
	{
		"sampler":1,
		"source":1
	},
	{
		"sampler":2,
		"source":2
	}]
}