{
	"nodes":[{
		"name":"Extrude.1",
		"children":[1,
		2,
		3]
	},
	{
		"name":"Extrude.1-Top",
		"mesh":0
	},
	{
		"name":"Extrude.1-Mat.1",
		"mesh":1
	},
	{
		"name":"Extrude.1-Bottom",
		"mesh":2
	}],
	"asset":{
		"version":"2.0",
		"generator":"Created using the official Cinema 4D glTF Exporter 1.000x284978"
	},
	"images":[{
		"uri":"data:image/jpeg;base64,"
	},
	{
		"uri":"data:image/jpeg;base64,"
	}],
	"scenes":[{
		"nodes":[0]
	}],
	"materials":[{
		"emissiveFactor":[0.0,
		0.0,
		0.0],
		"pbrMetallicRoughness":{
			"baseColorTexture":{
				"index":0
			},
			"baseColorFactor":[0.8,
			0.8,
			0.8,
			1.0],
			"metallicFactor":0.02,
			"roughnessFactor":0.0
		},
		"alphaMode":"OPAQUE",
		"doubleSided":true,
		"name":"Top"
	},
	{
		"emissiveFactor":[0.0,
		0.0,
		0.0],
		"pbrMetallicRoughness":{
			"baseColorFactor":[0.37,
			0.37,
			0.37,
			1.0],
			"metallicFactor":0.0,
			"roughnessFactor":0.5
		},
		"alphaMode":"OPAQUE",
		"doubleSided":true,
		"name":"Mat.1"
	},
	{
		"emissiveFactor":[0.0,
		0.0,
		0.0],
		"pbrMetallicRoughness":{
			"baseColorTexture":{
				"index":1
			},
			"baseColorFactor":[0.8,
			0.8,
			0.8,
			1.0],
			"metallicFactor":0.02,
			"roughnessFactor":0.0
		},
		"alphaMode":"OPAQUE",
		"doubleSided":true,
		"name":"Bottom"
	}],
	"meshes":[{
		"name":"Extrude.1-Top",
		"primitives":[{
			"attributes":{
				"POSITION":1,
				"NORMAL":2,
				"TEXCOORD_0":3
			},
			"indices":0,
			"material":0
		}]
	},
	{
		"name":"Extrude.1-Mat.1",
		"primitives":[{
			"attributes":{
				"POSITION":5,
				"NORMAL":6,
				"TEXCOORD_0":7
			},
			"indices":4,
			"material":1
		}]
	},
	{
		"name":"Extrude.1-Bottom",
		"primitives":[{
			"attributes":{
				"POSITION":9,
				"NORMAL":10,
				"TEXCOORD_0":11
			},
			"indices":8,
			"material":2
		}]
	}],
	"accessors":[{
		"bufferView":0,
		"type":"SCALAR",
		"componentType":5123,
		"count":261,
		"byteOffset":0,
		"min":[0],
		"max":[88]
	},
	{
		"bufferView":1,
		"type":"VEC3",
		"componentType":5126,
		"count":89,
		"byteOffset":0,
		"min":[-13.885390281677246,
		-0.04304906353354454,
		1.3702582120895386],
		"max":[14.751823425292969,
		155.75192260742188,
		9.478047370910645]
	},
	{
		"bufferView":1,
		"type":"VEC3",
		"componentType":5126,
		"count":89,
		"byteOffset":12,
		"min":[-0.0012812500353902579,
		-0.6305312514305115,
		0.7761250138282776],
		"max":[0.00390625,
		0.0,
		1.0]
	},
	{
		"bufferView":1,
		"type":"VEC2",
		"componentType":5126,
		"count":89,
		"byteOffset":24,
		"min":[0.23462826013565064,
		0.047982268035411838],
		"max":[0.7688535451889038,
		0.9531257152557373]
	},
	{
		"bufferView":2,
		"type":"SCALAR",
		"componentType":5123,
		"count":531,
		"byteOffset":0,
		"min":[0],
		"max":[202]
	},
	{
		"bufferView":3,
		"type":"VEC3",
		"componentType":5126,
		"count":203,
		"byteOffset":0,
		"min":[-13.885390281677246,
		-0.04304906353354454,
		-1.5416999138906027e-14],
		"max":[14.751823425292969,
		156.61837768554688,
		9.478047370910645]
	},
	{
		"bufferView":3,
		"type":"VEC3",
		"componentType":5126,
		"count":203,
		"byteOffset":12,
		"min":[-0.9999688267707825,
		-0.9999688267707825,
		-0.000562500033993274],
		"max":[1.0,
		0.7744063138961792,
		0.6317187547683716]
	},
	{
		"bufferView":3,
		"type":"VEC2",
		"componentType":5126,
		"count":203,
		"byteOffset":24,
		"min":[0.0,
		0.0],
		"max":[1.0,
		1.0]
	},
	{
		"bufferView":4,
		"type":"SCALAR",
		"componentType":5123,
		"count":258,
		"byteOffset":0,
		"min":[0],
		"max":[87]
	},
	{
		"bufferView":5,
		"type":"VEC3",
		"componentType":5126,
		"count":88,
		"byteOffset":0,
		"min":[-13.885390281677246,
		-0.040856219828128818,
		-1.5416999138906027e-14],
		"max":[14.751823425292969,
		156.61837768554688,
		8.416494369506836]
	},
	{
		"bufferView":5,
		"type":"VEC3",
		"componentType":5126,
		"count":88,
		"byteOffset":12,
		"min":[-0.0036875002551823856,
		0.0,
		-1.0],
		"max":[0.0018437501275911928,
		0.6305000185966492,
		-0.7761250138282776]
	},
	{
		"bufferView":5,
		"type":"VEC2",
		"componentType":5126,
		"count":88,
		"byteOffset":24,
		"min":[0.2216155230998993,
		0.06477050483226776],
		"max":[0.7924658060073853,
		0.9163727760314941]
	}],
	"bufferViews":[{
		"buffer":0,
		"byteOffset":0,
		"byteLength":522,
		"target":34963
	},
	{
		"buffer":0,
		"byteOffset":524,
		"byteLength":2848,
		"target":34962,
		"byteStride":32
	},
	{
		"buffer":1,
		"byteOffset":0,
		"byteLength":1062,
		"target":34963
	},
	{
		"buffer":1,
		"byteOffset":1064,
		"byteLength":6496,
		"target":34962,
		"byteStride":32
	},
	{
		"buffer":2,
		"byteOffset":0,
		"byteLength":516,
		"target":34963
	},
	{
		"buffer":2,
		"byteOffset":516,
		"byteLength":2816,
		"target":34962,
		"byteStride":32
	}],
	"buffers":[{
		"uri":"data:application/octet-stream;base64,",
		"byteLength":3372
	},
	{
		"uri":"data:application/octet-stream;base64,",
		"byteLength":7560
	},
	{
		"uri":"data:application/octet-stream;base64,",
		"byteLength":3332
	}],
	"samplers":[{
		"magFilter":9729,
		"minFilter":9729,
		"wrapS":10497,
		"wrapT":10497
	},
	{
		"magFilter":9729,
		"minFilter":9729,
		"wrapS":10497,
		"wrapT":10497
	}],
	"textures":[{
		"sampler":0,
		"source":0
	},
	{
		"sampler":1,
		"source":1
	}]
}