{
	"asset":{
		"version":"2.0",
		"generator":"Created using the official Cinema 4D glTF Exporter 1.000x284978"
	},
	"scenes":[{
		"nodes":[0]
	}],
	"nodes":[{
		"name":"1993",
		"translation":[0.0,
		0.0,
		0.0],
		"rotation":[0.0026179898995906116,
		0.000002284627726112376,
		0.0008726615342311561,
		-0.9999961853027344],
		"scale":[1.0,
		1.0,
		1.0],
		"children":[1]
	},
	{
		"name":"Extrude",
		"translation":[3.526304038538059e-19,
		-2.0620782375335695,
		0.022356560453772546],
		"rotation":[0.0,
		0.0,
		0.0,
		-1.0],
		"scale":[1.0,
		1.0,
		1.0],
		"children":[2,
		3,
		4]
	},
	{
		"name":"Extrude-Mat",
		"mesh":0
	},
	{
		"name":"Extrude-Mat.2",
		"mesh":1
	},
	{
		"name":"Extrude-Mat.1",
		"mesh":2
	}],
	"meshes":[{
		"name":"Extrude-Mat",
		"primitives":[{
			"attributes":{
				"POSITION":1,
				"NORMAL":2,
				"TEXCOORD_0":3
			},
			"indices":0,
			"material":0
		}]
	},
	{
		"name":"Extrude-Mat.2",
		"primitives":[{
			"attributes":{
				"POSITION":5,
				"NORMAL":6,
				"TEXCOORD_0":7
			},
			"indices":4,
			"material":1
		}]
	},
	{
		"name":"Extrude-Mat.1",
		"primitives":[{
			"attributes":{
				"POSITION":9,
				"NORMAL":10,
				"TEXCOORD_0":11
			},
			"indices":8,
			"material":2
		}]
	}],
	"accessors":[{
		"type":"SCALAR",
		"bufferView":0,
		"componentType":5123,
		"count":3702,
		"byteOffset":0,
		"min":[0],
		"max":[756]
	},
	{
		"type":"VEC3",
		"bufferView":1,
		"componentType":5126,
		"count":757,
		"byteOffset":0,
		"min":[-14.890107154846192,
		2.1737711429595949,
		0.5652967095375061],
		"max":[14.971561431884766,
		158.97589111328126,
		9.602293014526368]
	},
	{
		"type":"VEC3",
		"bufferView":1,
		"componentType":5126,
		"count":757,
		"byteOffset":12,
		"min":[-0.019968751817941667,
		-0.5751875042915344,
		-0.9643750190734863],
		"max":[0.3738437592983246,
		0.2770625054836273,
		0.9999688267707825]
	},
	{
		"type":"VEC2",
		"bufferView":1,
		"componentType":5126,
		"count":757,
		"byteOffset":24,
		"min":[0.222222238779068,
		0.04545454680919647],
		"max":[0.7531629800796509,
		0.9545454382896423]
	},
	{
		"type":"SCALAR",
		"bufferView":2,
		"componentType":5123,
		"count":1500,
		"byteOffset":0,
		"min":[0],
		"max":[511]
	},
	{
		"type":"VEC3",
		"bufferView":3,
		"componentType":5126,
		"count":512,
		"byteOffset":0,
		"min":[-14.890107154846192,
		2.1002614498138429,
		-0.02207285910844803],
		"max":[14.971561431884766,
		159.32858276367188,
		9.602293014526368]
	},
	{
		"type":"VEC3",
		"bufferView":3,
		"componentType":5126,
		"count":512,
		"byteOffset":12,
		"min":[-1.0,
		-0.9611250162124634,
		-0.00390625],
		"max":[0.9999688267707825,
		0.8012812733650208,
		0.9465938210487366]
	},
	{
		"type":"VEC2",
		"bufferView":3,
		"componentType":5126,
		"count":512,
		"byteOffset":24,
		"min":[0.0,
		-4.163336342344337e-17],
		"max":[1.0,
		0.0]
	},
	{
		"type":"SCALAR",
		"bufferView":4,
		"componentType":5123,
		"count":3720,
		"byteOffset":0,
		"min":[0],
		"max":[747]
	},
	{
		"type":"VEC3",
		"bufferView":5,
		"componentType":5126,
		"count":748,
		"byteOffset":0,
		"min":[-14.890107154846192,
		2.1002614498138429,
		-0.022732311859726907],
		"max":[14.971561431884766,
		159.32858276367188,
		9.131699562072754]
	},
	{
		"type":"VEC3",
		"bufferView":5,
		"componentType":5126,
		"count":748,
		"byteOffset":12,
		"min":[-0.019218750298023225,
		-0.2775000035762787,
		-0.9999688267707825],
		"max":[0.027687501162290574,
		0.5725937485694885,
		-0.8197500109672546]
	},
	{
		"type":"VEC2",
		"bufferView":5,
		"componentType":5126,
		"count":748,
		"byteOffset":24,
		"min":[0.211904838681221,
		0.043197259306907657],
		"max":[0.803061842918396,
		0.9481788873672485]
	}],
	"bufferViews":[{
		"buffer":0,
		"byteOffset":0,
		"byteLength":7404,
		"target":34963
	},
	{
		"buffer":0,
		"byteOffset":7404,
		"byteLength":24224,
		"target":34962,
		"byteStride":32
	},
	{
		"buffer":1,
		"byteOffset":0,
		"byteLength":3000,
		"target":34963
	},
	{
		"buffer":1,
		"byteOffset":3000,
		"byteLength":16384,
		"target":34962,
		"byteStride":32
	},
	{
		"buffer":2,
		"byteOffset":0,
		"byteLength":7440,
		"target":34963
	},
	{
		"buffer":2,
		"byteOffset":7440,
		"byteLength":23936,
		"target":34962,
		"byteStride":32
	}],
	"buffers":[{
		"uri":"data:application/octet-stream;base64,",
		"byteLength":31628
	},
	{
		"uri":"data:application/octet-stream;base64,",
		"byteLength":19384
	},
	{
		"uri":"data:application/octet-stream;base64,",
		"byteLength":31376
	}],
	"images":[{
		"uri":"data:image/jpeg;base64,"
	},
	{
		"uri":"data:image/jpeg;base64,"
	}],
	"samplers":[{
		"magFilter":9729,
		"minFilter":9729,
		"wrapS":10497,
		"wrapT":10497
	},
	{
		"magFilter":9729,
		"minFilter":9729,
		"wrapS":10497,
		"wrapT":10497
	}],
	"textures":[{
		"sampler":0,
		"source":0
	},
	{
		"sampler":1,
		"source":1
	}],
	"materials":[{
		"pbrMetallicRoughness":{
			"baseColorTexture":{
				"index":0
			},
			"baseColorFactor":[0.8,
			0.8,
			0.8,
			1.0],
			"metallicFactor":0.06,
			"roughnessFactor":0.0
		},
		"emissiveFactor":[0.0,
		0.0,
		0.0],
		"alphaMode":"OPAQUE",
		"doubleSided":true,
		"name":"Mat"
	},
	{
		"pbrMetallicRoughness":{
			"baseColorFactor":[0.0,
			0.0,
			0.0,
			1.0],
			"metallicFactor":0.04,
			"roughnessFactor":0.0
		},
		"emissiveFactor":[0.0,
		0.0,
		0.0],
		"alphaMode":"OPAQUE",
		"doubleSided":true,
		"name":"Mat.2"
	},
	{
		"pbrMetallicRoughness":{
			"baseColorTexture":{
				"index":1
			},
			"baseColorFactor":[0.8,
			0.8,
			0.8,
			1.0],
			"metallicFactor":0.05,
			"roughnessFactor":0.0
		},
		"emissiveFactor":[0.0,
		0.0,
		0.0],
		"alphaMode":"OPAQUE",
		"doubleSided":true,
		"name":"Mat.1"
	}]
}