{
	"nodes":[{
		"name":"Extrude",
		"children":[1,
		2,
		3]
	},
	{
		"name":"Extrude-Mat.2",
		"mesh":0
	},
	{
		"name":"Extrude-Mat",
		"mesh":1
	},
	{
		"name":"Extrude-Mat.1",
		"mesh":2
	}],
	"asset":{
		"version":"2.0",
		"generator":"Created using the official Cinema 4D glTF Exporter 1.000x284978"
	},
	"images":[{
		"uri":"data:image/jpeg;base64,"
	},
	{
		"uri":"data:image/jpeg;base64,"
	}],
	"scenes":[{
		"nodes":[0]
	}],
	"materials":[{
		"emissiveFactor":[0.0,
		0.0,
		0.0],
		"pbrMetallicRoughness":{
			"baseColorFactor":[0.050980392156862747,
			0.18039215686274505,
			0.32941176470588237,
			1.0],
			"metallicFactor":1.0,
			"roughnessFactor":1.0
		},
		"alphaMode":"OPAQUE",
		"doubleSided":true,
		"name":"Mat.2"
	},
	{
		"emissiveFactor":[0.0,
		0.0,
		0.0],
		"pbrMetallicRoughness":{
			"baseColorTexture":{
				"index":0
			},
			"baseColorFactor":[0.8,
			0.8,
			0.8,
			1.0],
			"metallicFactor":0.02,
			"roughnessFactor":0.0
		},
		"alphaMode":"OPAQUE",
		"doubleSided":true,
		"name":"Mat"
	},
	{
		"emissiveFactor":[0.0,
		0.0,
		0.0],
		"pbrMetallicRoughness":{
			"baseColorTexture":{
				"index":1
			},
			"baseColorFactor":[0.8,
			0.8,
			0.8,
			1.0],
			"metallicFactor":0.02,
			"roughnessFactor":0.0
		},
		"alphaMode":"OPAQUE",
		"doubleSided":true,
		"name":"Mat.1"
	}],
	"meshes":[{
		"name":"Extrude-Mat.2",
		"primitives":[{
			"attributes":{
				"POSITION":1,
				"NORMAL":2,
				"TEXCOORD_0":3
			},
			"indices":0,
			"material":0
		}]
	},
	{
		"name":"Extrude-Mat",
		"primitives":[{
			"attributes":{
				"POSITION":5,
				"NORMAL":6,
				"TEXCOORD_0":7
			},
			"indices":4,
			"material":1
		}]
	},
	{
		"name":"Extrude-Mat.1",
		"primitives":[{
			"attributes":{
				"POSITION":9,
				"NORMAL":10,
				"TEXCOORD_0":11
			},
			"indices":8,
			"material":2
		}]
	}],
	"accessors":[{
		"bufferView":0,
		"type":"SCALAR",
		"componentType":5123,
		"count":552,
		"byteOffset":0,
		"min":[0],
		"max":[189]
	},
	{
		"bufferView":1,
		"type":"VEC3",
		"componentType":5126,
		"count":190,
		"byteOffset":0,
		"min":[-15.075634956359864,
		0.24117790162563325,
		-7.630538656987728e-15],
		"max":[14.480610847473145,
		154.8897705078125,
		6.116456985473633]
	},
	{
		"bufferView":1,
		"type":"VEC3",
		"componentType":5126,
		"count":190,
		"byteOffset":12,
		"min":[-1.0,
		-0.8834375143051148,
		-0.00043750001350417733],
		"max":[1.0,
		0.8829063177108765,
		0.46928128600120547]
	},
	{
		"bufferView":1,
		"type":"VEC2",
		"componentType":5126,
		"count":190,
		"byteOffset":24,
		"min":[0.0,
		0.0],
		"max":[1.0,
		1.0]
	},
	{
		"bufferView":2,
		"type":"SCALAR",
		"componentType":5123,
		"count":270,
		"byteOffset":0,
		"min":[0],
		"max":[91]
	},
	{
		"bufferView":3,
		"type":"VEC3",
		"componentType":5126,
		"count":92,
		"byteOffset":0,
		"min":[-15.075634956359864,
		0.24117790162563325,
		-7.630538656987728e-15],
		"max":[14.480610847473145,
		154.8897705078125,
		5.1732096672058109]
	},
	{
		"bufferView":3,
		"type":"VEC3",
		"componentType":5126,
		"count":92,
		"byteOffset":12,
		"min":[-0.20800000429153443,
		-0.4582187831401825,
		-1.0],
		"max":[0.09025000780820847,
		0.4558125138282776,
		-0.8887500166893005]
	},
	{
		"bufferView":3,
		"type":"VEC2",
		"componentType":5126,
		"count":92,
		"byteOffset":24,
		"min":[0.18881472945213319,
		0.039743319153785709],
		"max":[0.7680896520614624,
		0.932052493095398]
	},
	{
		"bufferView":4,
		"type":"SCALAR",
		"componentType":5123,
		"count":270,
		"byteOffset":0,
		"min":[0],
		"max":[91]
	},
	{
		"bufferView":5,
		"type":"VEC3",
		"componentType":5126,
		"count":92,
		"byteOffset":0,
		"min":[-15.075634956359864,
		0.7431991696357727,
		1.0682979822158814],
		"max":[14.480610847473145,
		154.38821411132813,
		6.116456985473633]
	},
	{
		"bufferView":5,
		"type":"VEC3",
		"componentType":5126,
		"count":92,
		"byteOffset":12,
		"min":[-0.08796875178813935,
		-0.45593753457069399,
		0.8887500166893005],
		"max":[0.20121875405311585,
		0.4582187831401825,
		1.0]
	},
	{
		"bufferView":5,
		"type":"VEC2",
		"componentType":5126,
		"count":92,
		"byteOffset":24,
		"min":[0.207617849111557,
		0.0428440198302269],
		"max":[0.7812525033950806,
		0.9459424018859863]
	}],
	"bufferViews":[{
		"buffer":0,
		"byteOffset":0,
		"byteLength":1104,
		"target":34963
	},
	{
		"buffer":0,
		"byteOffset":1104,
		"byteLength":6080,
		"target":34962,
		"byteStride":32
	},
	{
		"buffer":1,
		"byteOffset":0,
		"byteLength":540,
		"target":34963
	},
	{
		"buffer":1,
		"byteOffset":540,
		"byteLength":2944,
		"target":34962,
		"byteStride":32
	},
	{
		"buffer":2,
		"byteOffset":0,
		"byteLength":540,
		"target":34963
	},
	{
		"buffer":2,
		"byteOffset":540,
		"byteLength":2944,
		"target":34962,
		"byteStride":32
	}],
	"buffers":[{
		"uri":"data:application/octet-stream;base64,",
		"byteLength":7184
	},
	{
		"uri":"data:application/octet-stream;base64,",
		"byteLength":3484
	},
	{
		"uri":"data:application/octet-stream;base64,",
		"byteLength":3484
	}],
	"samplers":[{
		"magFilter":9729,
		"minFilter":9729,
		"wrapS":10497,
		"wrapT":10497
	},
	{
		"magFilter":9729,
		"minFilter":9729,
		"wrapS":10497,
		"wrapT":10497
	}],
	"textures":[{
		"sampler":0,
		"source":0
	},
	{
		"sampler":1,
		"source":1
	}]
}