{
	"nodes":[{
		"name":"1996_dolphin",
		"children":[1]
	},
	{
		"name":"Extrude",
		"translation":[-0.18340399861335755,
		0.0,
		-4.440892098500626e-16],
		"rotation":[0.000872709380928427,
		0.000015992505723261276,
		-0.0026180376298725607,
		-0.9999961853027344],
		"scale":[1.0,
		1.0,
		1.0],
		"children":[2,
		3,
		4]
	},
	{
		"name":"Extrude-Mat",
		"mesh":0
	},
	{
		"name":"Extrude-Mat.2",
		"mesh":1
	},
	{
		"name":"Extrude-Mat",
		"mesh":2
	}],
	"asset":{
		"version":"2.0",
		"generator":"Created using the official Cinema 4D glTF Exporter 1.000x284978"
	},
	"images":[{
		"uri":"data:image/jpeg;base64,"
	},
	{
		"uri":"data:image/jpeg;base64,"
	}],
	"scenes":[{
		"nodes":[0]
	}],
	"materials":[{
		"emissiveFactor":[0.0,
		0.0,
		0.0],
		"pbrMetallicRoughness":{
			"baseColorTexture":{
				"index":0
			},
			"baseColorFactor":[0.8,
			0.8,
			0.8,
			1.0],
			"metallicFactor":0.05,
			"roughnessFactor":0.0
		},
		"alphaMode":"OPAQUE",
		"doubleSided":true,
		"name":"Mat"
	},
	{
		"emissiveFactor":[0.0,
		0.0,
		0.0],
		"pbrMetallicRoughness":{
			"baseColorTexture":{
				"index":1
			},
			"baseColorFactor":[0.8,
			0.8,
			0.8,
			1.0],
			"metallicFactor":0.05,
			"roughnessFactor":0.0
		},
		"alphaMode":"OPAQUE",
		"doubleSided":true,
		"name":"Mat.2"
	}],
	"meshes":[{
		"name":"Extrude-Mat",
		"primitives":[{
			"attributes":{
				"POSITION":1,
				"NORMAL":2,
				"TEXCOORD_0":3
			},
			"indices":0,
			"material":0
		}]
	},
	{
		"name":"Extrude-Mat.2",
		"primitives":[{
			"attributes":{
				"POSITION":5,
				"NORMAL":6,
				"TEXCOORD_0":7
			},
			"indices":4,
			"material":1
		}]
	},
	{
		"name":"Extrude-Mat",
		"primitives":[{
			"attributes":{
				"POSITION":9,
				"NORMAL":10,
				"TEXCOORD_0":11
			},
			"indices":8,
			"material":0
		}]
	}],
	"accessors":[{
		"bufferView":0,
		"type":"SCALAR",
		"componentType":5123,
		"count":522,
		"byteOffset":0,
		"min":[0],
		"max":[177]
	},
	{
		"bufferView":1,
		"type":"VEC3",
		"componentType":5126,
		"count":178,
		"byteOffset":0,
		"min":[-14.69090461730957,
		0.28444981575012209,
		0.059107083827257159],
		"max":[14.58527946472168,
		144.46307373046876,
		7.484039783477783]
	},
	{
		"bufferView":1,
		"type":"VEC3",
		"componentType":5126,
		"count":178,
		"byteOffset":12,
		"min":[-0.9999688267707825,
		-0.7745937705039978,
		-0.0012812500353902579],
		"max":[0.9999688267707825,
		0.558343768119812,
		0.8292812705039978]
	},
	{
		"bufferView":1,
		"type":"VEC2",
		"componentType":5126,
		"count":178,
		"byteOffset":24,
		"min":[0.0,
		0.0],
		"max":[1.0,
		1.0]
	},
	{
		"bufferView":2,
		"type":"SCALAR",
		"componentType":5123,
		"count":255,
		"byteOffset":0,
		"min":[0],
		"max":[86]
	},
	{
		"bufferView":3,
		"type":"VEC3",
		"componentType":5126,
		"count":87,
		"byteOffset":0,
		"min":[-14.69090461730957,
		0.28444981575012209,
		0.059107083827257159],
		"max":[14.58527946472168,
		144.46307373046876,
		6.8139519691467289]
	},
	{
		"bufferView":3,
		"type":"VEC3",
		"componentType":5126,
		"count":87,
		"byteOffset":12,
		"min":[-0.31846877932548525,
		-0.3348437547683716,
		-0.9999688267707825],
		"max":[0.07646875083446503,
		0.3909375071525574,
		-0.9183750152587891]
	},
	{
		"bufferView":3,
		"type":"VEC2",
		"componentType":5126,
		"count":87,
		"byteOffset":24,
		"min":[0.19710856676101685,
		0.030458353459835054],
		"max":[0.808635950088501,
		0.9534027576446533]
	},
	{
		"bufferView":4,
		"type":"SCALAR",
		"componentType":5123,
		"count":255,
		"byteOffset":0,
		"min":[0],
		"max":[86]
	},
	{
		"bufferView":5,
		"type":"VEC3",
		"componentType":5126,
		"count":87,
		"byteOffset":0,
		"min":[-14.69090461730957,
		0.9566905498504639,
		1.0010788440704346],
		"max":[14.584983825683594,
		143.4656524658203,
		7.484039783477783]
	},
	{
		"bufferView":5,
		"type":"VEC3",
		"componentType":5126,
		"count":87,
		"byteOffset":12,
		"min":[-0.07462500035762787,
		-0.3907812833786011,
		0.9185937643051148],
		"max":[0.30662500858306887,
		0.3347812592983246,
		0.9999688267707825]
	},
	{
		"bufferView":5,
		"type":"VEC2",
		"componentType":5126,
		"count":87,
		"byteOffset":24,
		"min":[0.17987731099128724,
		0.030219417065382005],
		"max":[0.8131390810012817,
		0.9617122411727905]
	}],
	"bufferViews":[{
		"buffer":0,
		"byteOffset":0,
		"byteLength":1044,
		"target":34963
	},
	{
		"buffer":0,
		"byteOffset":1044,
		"byteLength":5696,
		"target":34962,
		"byteStride":32
	},
	{
		"buffer":1,
		"byteOffset":0,
		"byteLength":510,
		"target":34963
	},
	{
		"buffer":1,
		"byteOffset":512,
		"byteLength":2784,
		"target":34962,
		"byteStride":32
	},
	{
		"buffer":2,
		"byteOffset":0,
		"byteLength":510,
		"target":34963
	},
	{
		"buffer":2,
		"byteOffset":512,
		"byteLength":2784,
		"target":34962,
		"byteStride":32
	}],
	"buffers":[{
		"uri":"data:application/octet-stream;base64,",
		"byteLength":6740
	},
	{
		"uri":"data:application/octet-stream;base64,",
		"byteLength":3296
	},
	{
		"uri":"data:application/octet-stream;base64,",
		"byteLength":3296
	}],
	"samplers":[{
		"magFilter":9729,
		"minFilter":9729,
		"wrapS":10497,
		"wrapT":10497
	},
	{
		"magFilter":9729,
		"minFilter":9729,
		"wrapS":10497,
		"wrapT":10497
	}],
	"textures":[{
		"sampler":0,
		"source":0
	},
	{
		"sampler":1,
		"source":1
	}]
}