{
	"materials":[{
		"pbrMetallicRoughness":{
			"baseColorFactor":[0.0,
			0.0,
			0.0,
			1.0],
			"metallicFactor":0.05,
			"roughnessFactor":0.0
		},
		"emissiveFactor":[0.0,
		0.0,
		0.0],
		"alphaMode":"OPAQUE",
		"doubleSided":true,
		"name":"Mat.3"
	},
	{
		"pbrMetallicRoughness":{
			"baseColorTexture":{
				"index":0
			},
			"baseColorFactor":[0.8,
			0.8,
			0.8,
			1.0],
			"metallicFactor":0.05,
			"roughnessFactor":0.0
		},
		"emissiveFactor":[0.0,
		0.0,
		0.0],
		"alphaMode":"OPAQUE",
		"doubleSided":true,
		"name":"Mat.1"
	},
	{
		"pbrMetallicRoughness":{
			"baseColorFactor":[0.4117647058823529,
			0.4470588235294118,
			0.2549019607843137,
			1.0],
			"metallicFactor":0.04,
			"roughnessFactor":0.0
		},
		"emissiveFactor":[0.0,
		0.0,
		0.0],
		"alphaMode":"OPAQUE",
		"doubleSided":true,
		"name":"Mat.2"
	},
	{
		"pbrMetallicRoughness":{
			"baseColorTexture":{
				"index":1
			},
			"baseColorFactor":[0.8,
			0.8,
			0.8,
			1.0],
			"metallicFactor":0.05,
			"roughnessFactor":0.0
		},
		"emissiveFactor":[0.0,
		0.0,
		0.0],
		"alphaMode":"OPAQUE",
		"doubleSided":true,
		"name":"Mat"
	}],
	"asset":{
		"version":"2.0",
		"generator":"Created using the official Cinema 4D glTF Exporter 1.000x284978"
	},
	"textures":[{
		"sampler":0,
		"source":0
	},
	{
		"sampler":1,
		"source":1
	}],
	"scenes":[{
		"nodes":[0]
	}],
	"nodes":[{
		"name":"Extrude",
		"children":[1,
		2,
		3,
		4,
		5]
	},
	{
		"name":"Extrude",
		"mesh":0
	},
	{
		"name":"Extrude-Mat.3",
		"mesh":1
	},
	{
		"name":"Extrude-Mat.1",
		"mesh":2
	},
	{
		"name":"Extrude-Mat.2",
		"mesh":3
	},
	{
		"name":"Extrude-Mat",
		"mesh":4
	}],
	"samplers":[{
		"magFilter":9729,
		"minFilter":9729,
		"wrapS":10497,
		"wrapT":10497
	},
	{
		"magFilter":9729,
		"minFilter":9729,
		"wrapS":10497,
		"wrapT":10497
	}],
	"meshes":[{
		"name":"Extrude",
		"primitives":[{
			"attributes":{
				"POSITION":1,
				"NORMAL":2,
				"TEXCOORD_0":3
			},
			"indices":0
		}]
	},
	{
		"name":"Extrude-Mat.3",
		"primitives":[{
			"attributes":{
				"POSITION":5,
				"NORMAL":6,
				"TEXCOORD_0":7
			},
			"indices":4,
			"material":0
		}]
	},
	{
		"name":"Extrude-Mat.1",
		"primitives":[{
			"attributes":{
				"POSITION":9,
				"NORMAL":10,
				"TEXCOORD_0":11
			},
			"indices":8,
			"material":1
		}]
	},
	{
		"name":"Extrude-Mat.2",
		"primitives":[{
			"attributes":{
				"POSITION":13,
				"NORMAL":14,
				"TEXCOORD_0":15
			},
			"indices":12,
			"material":2
		}]
	},
	{
		"name":"Extrude-Mat",
		"primitives":[{
			"attributes":{
				"POSITION":17,
				"NORMAL":18,
				"TEXCOORD_0":19
			},
			"indices":16,
			"material":3
		}]
	}],
	"accessors":[{
		"bufferView":0,
		"type":"SCALAR",
		"componentType":5123,
		"count":6,
		"byteOffset":0,
		"min":[0],
		"max":[3]
	},
	{
		"bufferView":1,
		"type":"VEC3",
		"componentType":5126,
		"count":4,
		"byteOffset":0,
		"min":[-0.030833017081022264,
		156.03819274902345,
		8.14116382598877],
		"max":[0.16095083951950074,
		156.30325317382813,
		8.669363021850586]
	},
	{
		"bufferView":1,
		"type":"VEC3",
		"componentType":5126,
		"count":4,
		"byteOffset":12,
		"min":[0.004000000189989805,
		0.8938750624656677,
		0.4476250112056732],
		"max":[0.024406250566244127,
		0.8940938115119934,
		0.4477812647819519]
	},
	{
		"bufferView":1,
		"type":"VEC2",
		"componentType":5126,
		"count":4,
		"byteOffset":24,
		"min":[0.9992539882659912,
		0.0],
		"max":[0.9998109340667725,
		1.0]
	},
	{
		"bufferView":2,
		"type":"SCALAR",
		"componentType":5123,
		"count":960,
		"byteOffset":0,
		"min":[0],
		"max":[323]
	},
	{
		"bufferView":3,
		"type":"VEC3",
		"componentType":5126,
		"count":324,
		"byteOffset":0,
		"min":[-16.486228942871095,
		0.05986909568309784,
		-0.06995253264904022],
		"max":[16.546350479125978,
		156.30325317382813,
		8.669363021850586]
	},
	{
		"bufferView":3,
		"type":"VEC3",
		"componentType":5126,
		"count":324,
		"byteOffset":12,
		"min":[-0.9999688267707825,
		-0.9210938215255737,
		-0.01243750099092722],
		"max":[0.9999688267707825,
		0.8939688205718994,
		0.4477500319480896]
	},
	{
		"bufferView":3,
		"type":"VEC2",
		"componentType":5126,
		"count":324,
		"byteOffset":24,
		"min":[0.0,
		0.0],
		"max":[0.9992539882659912,
		1.0]
	},
	{
		"bufferView":4,
		"type":"SCALAR",
		"componentType":5123,
		"count":2175,
		"byteOffset":0,
		"min":[0],
		"max":[444]
	},
	{
		"bufferView":5,
		"type":"VEC3",
		"componentType":5126,
		"count":445,
		"byteOffset":0,
		"min":[-16.486228942871095,
		0.05986909568309784,
		-0.06995253264904022],
		"max":[16.546350479125978,
		156.30325317382813,
		8.14151382446289]
	},
	{
		"bufferView":5,
		"type":"VEC3",
		"componentType":5126,
		"count":445,
		"byteOffset":12,
		"min":[-0.007718750275671482,
		-0.3839375078678131,
		-1.0],
		"max":[0.008593750186264515,
		0.44709378480911257,
		-0.8944063186645508]
	},
	{
		"bufferView":5,
		"type":"VEC2",
		"componentType":5126,
		"count":445,
		"byteOffset":24,
		"min":[0.053653985261917117,
		0.14175483584403993],
		"max":[0.9541558623313904,
		0.8546689748764038]
	},
	{
		"bufferView":6,
		"type":"SCALAR",
		"componentType":5123,
		"count":3,
		"byteOffset":0,
		"min":[0],
		"max":[2]
	},
	{
		"bufferView":7,
		"type":"VEC3",
		"componentType":5126,
		"count":3,
		"byteOffset":0,
		"min":[12.21701431274414,
		64.3463134765625,
		0.5203994512557983],
		"max":[13.69724178314209,
		65.86689758300781,
		0.5203994512557983]
	},
	{
		"bufferView":7,
		"type":"VEC3",
		"componentType":5126,
		"count":3,
		"byteOffset":12,
		"min":[0.0,
		0.0,
		1.0],
		"max":[0.0,
		0.0,
		1.0]
	},
	{
		"bufferView":7,
		"type":"VEC2",
		"componentType":5126,
		"count":3,
		"byteOffset":24,
		"min":[0.41634052991867068,
		0.1871001124382019],
		"max":[0.4262523055076599,
		0.19674888253211976]
	},
	{
		"bufferView":8,
		"type":"SCALAR",
		"componentType":5123,
		"count":2316,
		"byteOffset":0,
		"min":[0],
		"max":[468]
	},
	{
		"bufferView":9,
		"type":"VEC3",
		"componentType":5126,
		"count":469,
		"byteOffset":0,
		"min":[-16.486228942871095,
		0.28953635692596438,
		0.5203994512557983],
		"max":[16.546350479125978,
		156.0388946533203,
		8.669363021850586]
	},
	{
		"bufferView":9,
		"type":"VEC3",
		"componentType":5126,
		"count":469,
		"byteOffset":12,
		"min":[-0.007656250149011612,
		-0.44696876406669619,
		0.8945000171661377],
		"max":[0.00937500037252903,
		0.3839375078678131,
		1.0]
	},
	{
		"bufferView":9,
		"type":"VEC2",
		"componentType":5126,
		"count":469,
		"byteOffset":24,
		"min":[0.05399325489997864,
		0.14638108015060426],
		"max":[0.9706853628158569,
		0.8207404613494873]
	}],
	"bufferViews":[{
		"buffer":0,
		"byteOffset":0,
		"target":34963,
		"byteLength":12
	},
	{
		"buffer":0,
		"byteOffset":12,
		"target":34962,
		"byteLength":128,
		"byteStride":32
	},
	{
		"buffer":1,
		"byteOffset":0,
		"target":34963,
		"byteLength":1920
	},
	{
		"buffer":1,
		"byteOffset":1920,
		"target":34962,
		"byteLength":10368,
		"byteStride":32
	},
	{
		"buffer":2,
		"byteOffset":0,
		"target":34963,
		"byteLength":4350
	},
	{
		"buffer":2,
		"byteOffset":4352,
		"target":34962,
		"byteLength":14240,
		"byteStride":32
	},
	{
		"buffer":3,
		"byteOffset":0,
		"target":34963,
		"byteLength":6
	},
	{
		"buffer":3,
		"byteOffset":8,
		"target":34962,
		"byteLength":96,
		"byteStride":32
	},
	{
		"buffer":4,
		"byteOffset":0,
		"target":34963,
		"byteLength":4632
	},
	{
		"buffer":4,
		"byteOffset":4632,
		"target":34962,
		"byteLength":15008,
		"byteStride":32
	}],
	"buffers":[{
		"uri":"data:application/octet-stream;base64,",
		"byteLength":140
	},
	{
		"uri":"data:application/octet-stream;base64,",
		"byteLength":12288
	},
	{
		"uri":"data:application/octet-stream;base64,",
		"byteLength":18592
	},
	{
		"uri":"data:application/octet-stream;base64,",
		"byteLength":104
	},
	{
		"uri":"data:application/octet-stream;base64,",
		"byteLength":19640
	}],
	"images":[{
		"uri":"data:image/jpeg;base64,"
	},
	{
		"uri":"data:image/jpeg;base64,"
	}]
}