{
	"nodes":[{
		"name":"Extrude.1",
		"children":[1,
		2,
		3]
	},
	{
		"name":"Extrude.1-Mat.1",
		"mesh":0
	},
	{
		"name":"Extrude.1-Mat",
		"mesh":1
	},
	{
		"name":"Extrude.1-Mat",
		"mesh":2
	}],
	"asset":{
		"version":"2.0",
		"generator":"Created using the official Cinema 4D glTF Exporter 1.000x284978"
	},
	"images":[{
		"uri":"data:image/jpeg;base64,"
	},
	{
		"uri":"data:image/jpeg;base64,"
	}],
	"scenes":[{
		"nodes":[0]
	}],
	"materials":[{
		"emissiveFactor":[0.0,
		0.0,
		0.0],
		"pbrMetallicRoughness":{
			"baseColorFactor":[0.08627450980392157,
			0.14117647058823538,
			0.24313725490196079,
			1.0],
			"metallicFactor":0.02,
			"roughnessFactor":0.0
		},
		"alphaMode":"OPAQUE",
		"doubleSided":true,
		"name":"Mat.1"
	},
	{
		"emissiveFactor":[0.0,
		0.0,
		0.0],
		"pbrMetallicRoughness":{
			"baseColorTexture":{
				"index":0
			},
			"baseColorFactor":[0.8,
			0.8,
			0.8,
			1.0],
			"metallicFactor":0.05,
			"roughnessFactor":0.0
		},
		"alphaMode":"OPAQUE",
		"doubleSided":true,
		"name":"Mat"
	},
	{
		"emissiveFactor":[0.0,
		0.0,
		0.0],
		"pbrMetallicRoughness":{
			"baseColorTexture":{
				"index":1
			},
			"baseColorFactor":[0.8,
			0.8,
			0.8,
			1.0],
			"metallicFactor":0.05,
			"roughnessFactor":0.0
		},
		"alphaMode":"OPAQUE",
		"doubleSided":true,
		"name":"Mat"
	}],
	"meshes":[{
		"name":"Extrude.1-Mat.1",
		"primitives":[{
			"attributes":{
				"POSITION":1,
				"NORMAL":2,
				"TEXCOORD_0":3
			},
			"indices":0,
			"material":0
		}]
	},
	{
		"name":"Extrude.1-Mat",
		"primitives":[{
			"attributes":{
				"POSITION":5,
				"NORMAL":6,
				"TEXCOORD_0":7
			},
			"indices":4,
			"material":1
		}]
	},
	{
		"name":"Extrude.1-Mat",
		"primitives":[{
			"attributes":{
				"POSITION":9,
				"NORMAL":10,
				"TEXCOORD_0":11
			},
			"indices":8,
			"material":2
		}]
	}],
	"accessors":[{
		"bufferView":0,
		"type":"SCALAR",
		"componentType":5123,
		"count":1296,
		"byteOffset":0,
		"min":[0],
		"max":[435]
	},
	{
		"bufferView":1,
		"type":"VEC3",
		"componentType":5126,
		"count":436,
		"byteOffset":0,
		"min":[-15.047554969787598,
		0.027676213532686235,
		-0.31955525279045107],
		"max":[14.477851867675782,
		149.76390075683595,
		7.500161170959473]
	},
	{
		"bufferView":1,
		"type":"VEC3",
		"componentType":5126,
		"count":436,
		"byteOffset":12,
		"min":[-1.0,
		-0.901468813419342,
		-0.000750000006519258],
		"max":[0.9999688267707825,
		0.8583750128746033,
		0.5125625133514404]
	},
	{
		"bufferView":1,
		"type":"VEC2",
		"componentType":5126,
		"count":436,
		"byteOffset":24,
		"min":[0.0,
		0.0],
		"max":[1.0,
		1.0]
	},
	{
		"bufferView":2,
		"type":"SCALAR",
		"componentType":5123,
		"count":642,
		"byteOffset":0,
		"min":[0],
		"max":[215]
	},
	{
		"bufferView":3,
		"type":"VEC3",
		"componentType":5126,
		"count":216,
		"byteOffset":0,
		"min":[-15.047554969787598,
		0.027676213532686235,
		-0.31955525279045107],
		"max":[14.477851867675782,
		149.76390075683595,
		6.632256507873535]
	},
	{
		"bufferView":3,
		"type":"VEC3",
		"componentType":5126,
		"count":216,
		"byteOffset":12,
		"min":[-0.01359375100582838,
		-0.43271878361701968,
		-0.9999688267707825],
		"max":[0.2904687523841858,
		0.5107187628746033,
		-0.8596875667572022]
	},
	{
		"bufferView":3,
		"type":"VEC2",
		"componentType":5126,
		"count":216,
		"byteOffset":24,
		"min":[0.18293291330337525,
		0.06983822584152222],
		"max":[0.8085557222366333,
		0.9678019285202026]
	},
	{
		"bufferView":4,
		"type":"SCALAR",
		"componentType":5123,
		"count":642,
		"byteOffset":0,
		"min":[0],
		"max":[215]
	},
	{
		"bufferView":5,
		"type":"VEC3",
		"componentType":5126,
		"count":216,
		"byteOffset":0,
		"min":[-15.047554969787598,
		0.46609583497047427,
		0.691429615020752],
		"max":[14.477851867675782,
		149.24539184570313,
		7.500161170959473]
	},
	{
		"bufferView":5,
		"type":"VEC3",
		"componentType":5126,
		"count":216,
		"byteOffset":12,
		"min":[-0.28440627455711367,
		-0.5122500061988831,
		0.8587812781333923],
		"max":[0.013156251050531865,
		0.43271878361701968,
		0.9999688267707825]
	},
	{
		"bufferView":5,
		"type":"VEC2",
		"componentType":5126,
		"count":216,
		"byteOffset":24,
		"min":[0.20563969016075135,
		0.026391953229904176],
		"max":[0.7981163263320923,
		0.9462014436721802]
	}],
	"bufferViews":[{
		"buffer":0,
		"byteOffset":0,
		"byteLength":2592,
		"target":34963
	},
	{
		"buffer":0,
		"byteOffset":2592,
		"byteLength":13952,
		"target":34962,
		"byteStride":32
	},
	{
		"buffer":1,
		"byteOffset":0,
		"byteLength":1284,
		"target":34963
	},
	{
		"buffer":1,
		"byteOffset":1284,
		"byteLength":6912,
		"target":34962,
		"byteStride":32
	},
	{
		"buffer":2,
		"byteOffset":0,
		"byteLength":1284,
		"target":34963
	},
	{
		"buffer":2,
		"byteOffset":1284,
		"byteLength":6912,
		"target":34962,
		"byteStride":32
	}],
	"buffers":[{
		"uri":"data:application/octet-stream;base64,",
		"byteLength":16544
	},
	{
		"uri":"data:application/octet-stream;base64,",
		"byteLength":8196
	},
	{
		"uri":"data:application/octet-stream;base64,",
		"byteLength":8196
	}],
	"samplers":[{
		"magFilter":9729,
		"minFilter":9729,
		"wrapS":10497,
		"wrapT":10497
	},
	{
		"magFilter":9729,
		"minFilter":9729,
		"wrapS":10497,
		"wrapT":10497
	}],
	"textures":[{
		"sampler":0,
		"source":0
	},
	{
		"sampler":1,
		"source":1
	}]
}