{
	"nodes":[{
		"name":"Extrude.1",
		"children":[1,
		2,
		3]
	},
	{
		"name":"Extrude.1-Mat.1",
		"mesh":0
	},
	{
		"name":"Extrude.1-Mat",
		"mesh":1
	},
	{
		"name":"Extrude.1-Mat",
		"mesh":2
	}],
	"asset":{
		"version":"2.0",
		"generator":"Created using the official Cinema 4D glTF Exporter 1.000x284978"
	},
	"images":[{
		"uri":"data:image/jpeg;base64,"
	},
	{
		"uri":"data:image/jpeg;base64,"
	}],
	"scenes":[{
		"nodes":[0]
	}],
	"materials":[{
		"emissiveFactor":[0.0,
		0.0,
		0.0],
		"pbrMetallicRoughness":{
			"baseColorFactor":[0.21176470588235295,
			0.25882352941176475,
			0.3215686274509804,
			1.0],
			"metallicFactor":1.0,
			"roughnessFactor":1.0
		},
		"alphaMode":"OPAQUE",
		"doubleSided":true,
		"name":"Mat.1"
	},
	{
		"emissiveFactor":[0.0,
		0.0,
		0.0],
		"pbrMetallicRoughness":{
			"baseColorTexture":{
				"index":0
			},
			"baseColorFactor":[0.8,
			0.8,
			0.8,
			1.0],
			"metallicFactor":0.05,
			"roughnessFactor":0.0
		},
		"alphaMode":"OPAQUE",
		"doubleSided":true,
		"name":"Mat"
	},
	{
		"emissiveFactor":[0.0,
		0.0,
		0.0],
		"pbrMetallicRoughness":{
			"baseColorTexture":{
				"index":1
			},
			"baseColorFactor":[0.8,
			0.8,
			0.8,
			1.0],
			"metallicFactor":0.05,
			"roughnessFactor":0.0
		},
		"alphaMode":"OPAQUE",
		"doubleSided":true,
		"name":"Mat"
	}],
	"meshes":[{
		"name":"Extrude.1-Mat.1",
		"primitives":[{
			"attributes":{
				"POSITION":1,
				"NORMAL":2,
				"TEXCOORD_0":3
			},
			"indices":0,
			"material":0
		}]
	},
	{
		"name":"Extrude.1-Mat",
		"primitives":[{
			"attributes":{
				"POSITION":5,
				"NORMAL":6,
				"TEXCOORD_0":7
			},
			"indices":4,
			"material":1
		}]
	},
	{
		"name":"Extrude.1-Mat",
		"primitives":[{
			"attributes":{
				"POSITION":9,
				"NORMAL":10,
				"TEXCOORD_0":11
			},
			"indices":8,
			"material":2
		}]
	}],
	"accessors":[{
		"bufferView":0,
		"type":"SCALAR",
		"componentType":5123,
		"count":540,
		"byteOffset":0,
		"min":[0],
		"max":[183]
	},
	{
		"bufferView":1,
		"type":"VEC3",
		"componentType":5126,
		"count":184,
		"byteOffset":0,
		"min":[-13.871952056884766,
		0.03196462616324425,
		-1.5938146324099603e-14],
		"max":[13.90664005279541,
		157.39877319335938,
		6.364231109619141]
	},
	{
		"bufferView":1,
		"type":"VEC3",
		"componentType":5126,
		"count":184,
		"byteOffset":12,
		"min":[-0.9999688267707825,
		-0.9564688205718994,
		-0.000375000003259629],
		"max":[0.9999688267707825,
		0.9226250648498535,
		0.38459375500679018]
	},
	{
		"bufferView":1,
		"type":"VEC2",
		"componentType":5126,
		"count":184,
		"byteOffset":24,
		"min":[0.0,
		0.0],
		"max":[1.0,
		1.0]
	},
	{
		"bufferView":2,
		"type":"SCALAR",
		"componentType":5123,
		"count":264,
		"byteOffset":0,
		"min":[0],
		"max":[89]
	},
	{
		"bufferView":3,
		"type":"VEC3",
		"componentType":5126,
		"count":90,
		"byteOffset":0,
		"min":[-13.871952056884766,
		0.03196462616324425,
		-1.5938146324099603e-14],
		"max":[13.906635284423829,
		157.39877319335938,
		5.441628932952881]
	},
	{
		"bufferView":3,
		"type":"VEC3",
		"componentType":5126,
		"count":90,
		"byteOffset":12,
		"min":[-0.2748437523841858,
		-0.23496876657009126,
		-1.0],
		"max":[0.18050001561641694,
		0.3566562533378601,
		-0.9341250658035278]
	},
	{
		"bufferView":3,
		"type":"VEC2",
		"componentType":5126,
		"count":90,
		"byteOffset":24,
		"min":[0.19225481152534486,
		0.04625184088945389],
		"max":[0.8183090686798096,
		0.9494047164916992]
	},
	{
		"bufferView":4,
		"type":"SCALAR",
		"componentType":5123,
		"count":264,
		"byteOffset":0,
		"min":[0],
		"max":[89]
	},
	{
		"bufferView":5,
		"type":"VEC3",
		"componentType":5126,
		"count":90,
		"byteOffset":0,
		"min":[-13.871952056884766,
		0.3240005671977997,
		1.0],
		"max":[13.90664005279541,
		157.01303100585938,
		6.364231109619141]
	},
	{
		"bufferView":5,
		"type":"VEC3",
		"componentType":5126,
		"count":90,
		"byteOffset":12,
		"min":[-0.17800000309944154,
		-0.3566562533378601,
		0.9341250658035278],
		"max":[0.27128127217292788,
		0.23496876657009126,
		1.0]
	},
	{
		"bufferView":5,
		"type":"VEC2",
		"componentType":5126,
		"count":90,
		"byteOffset":24,
		"min":[0.20206472277641297,
		0.032081760466098788],
		"max":[0.8028672933578491,
		0.9572081565856934]
	}],
	"bufferViews":[{
		"buffer":0,
		"byteOffset":0,
		"byteLength":1080,
		"target":34963
	},
	{
		"buffer":0,
		"byteOffset":1080,
		"byteLength":5888,
		"target":34962,
		"byteStride":32
	},
	{
		"buffer":1,
		"byteOffset":0,
		"byteLength":528,
		"target":34963
	},
	{
		"buffer":1,
		"byteOffset":528,
		"byteLength":2880,
		"target":34962,
		"byteStride":32
	},
	{
		"buffer":2,
		"byteOffset":0,
		"byteLength":528,
		"target":34963
	},
	{
		"buffer":2,
		"byteOffset":528,
		"byteLength":2880,
		"target":34962,
		"byteStride":32
	}],
	"buffers":[{
		"uri":"data:application/octet-stream;base64,",
		"byteLength":6968
	},
	{
		"uri":"data:application/octet-stream;base64,",
		"byteLength":3408
	},
	{
		"uri":"data:application/octet-stream;base64,",
		"byteLength":3408
	}],
	"samplers":[{
		"magFilter":9729,
		"minFilter":9729,
		"wrapS":10497,
		"wrapT":10497
	},
	{
		"magFilter":9729,
		"minFilter":9729,
		"wrapS":10497,
		"wrapT":10497
	}],
	"textures":[{
		"sampler":0,
		"source":0
	},
	{
		"sampler":1,
		"source":1
	}]
}