{
	"nodes":[{
		"name":"Extrude",
		"translation":[0.005430533550679684,
		0.0,
		2.9099838733673097],
		"rotation":[0.0,
		0.0,
		0.0,
		-1.0],
		"scale":[1.0,
		1.0,
		1.0],
		"children":[1,
		2,
		3]
	},
	{
		"name":"Extrude-Mat.1",
		"mesh":0
	},
	{
		"name":"Extrude-Mat",
		"mesh":1
	},
	{
		"name":"Extrude-Mat",
		"mesh":2
	}],
	"asset":{
		"version":"2.0",
		"generator":"Created using the official Cinema 4D glTF Exporter 1.000x284978"
	},
	"images":[{
		"uri":"data:image/jpeg;base64,"
	},
	{
		"uri":"data:image/jpeg;base64,"
	}],
	"scenes":[{
		"nodes":[0]
	}],
	"materials":[{
		"emissiveFactor":[0.0,
		0.0,
		0.0],
		"pbrMetallicRoughness":{
			"baseColorFactor":[0.10037499999999999,
			0.10175000000000001,
			0.11,
			1.0],
			"metallicFactor":0.0,
			"roughnessFactor":0.5
		},
		"alphaMode":"OPAQUE",
		"doubleSided":true,
		"name":"Mat.1"
	},
	{
		"emissiveFactor":[0.0,
		0.0,
		0.0],
		"pbrMetallicRoughness":{
			"baseColorTexture":{
				"index":0
			},
			"baseColorFactor":[0.8,
			0.8,
			0.8,
			1.0],
			"metallicFactor":1.0,
			"roughnessFactor":1.0
		},
		"alphaMode":"OPAQUE",
		"doubleSided":true,
		"name":"Mat"
	},
	{
		"emissiveFactor":[0.0,
		0.0,
		0.0],
		"pbrMetallicRoughness":{
			"baseColorTexture":{
				"index":1
			},
			"baseColorFactor":[0.8,
			0.8,
			0.8,
			1.0],
			"metallicFactor":1.0,
			"roughnessFactor":1.0
		},
		"alphaMode":"OPAQUE",
		"doubleSided":true,
		"name":"Mat"
	}],
	"meshes":[{
		"name":"Extrude-Mat.1",
		"primitives":[{
			"attributes":{
				"POSITION":1,
				"NORMAL":2,
				"TEXCOORD_0":3
			},
			"indices":0,
			"material":0
		}]
	},
	{
		"name":"Extrude-Mat",
		"primitives":[{
			"attributes":{
				"POSITION":5,
				"NORMAL":6,
				"TEXCOORD_0":7
			},
			"indices":4,
			"material":1
		}]
	},
	{
		"name":"Extrude-Mat",
		"primitives":[{
			"attributes":{
				"POSITION":9,
				"NORMAL":10,
				"TEXCOORD_0":11
			},
			"indices":8,
			"material":2
		}]
	}],
	"accessors":[{
		"bufferView":0,
		"type":"SCALAR",
		"componentType":5123,
		"count":735,
		"byteOffset":0,
		"min":[0],
		"max":[250]
	},
	{
		"bufferView":1,
		"type":"VEC3",
		"componentType":5126,
		"count":251,
		"byteOffset":0,
		"min":[-19.530744552612306,
		0.04953181743621826,
		-2.9058172702789308],
		"max":[19.172019958496095,
		157.0775146484375,
		2.5097622871398927]
	},
	{
		"bufferView":1,
		"type":"VEC3",
		"componentType":5126,
		"count":251,
		"byteOffset":12,
		"min":[-0.9999688267707825,
		-0.921500027179718,
		-0.000375000003259629],
		"max":[0.9999688267707825,
		0.7473750114440918,
		0.5203750133514404]
	},
	{
		"bufferView":1,
		"type":"VEC2",
		"componentType":5126,
		"count":251,
		"byteOffset":24,
		"min":[0.0,
		0.0],
		"max":[1.0,
		1.0]
	},
	{
		"bufferView":2,
		"type":"SCALAR",
		"componentType":5123,
		"count":363,
		"byteOffset":0,
		"min":[0],
		"max":[122]
	},
	{
		"bufferView":3,
		"type":"VEC3",
		"componentType":5126,
		"count":123,
		"byteOffset":0,
		"min":[-19.530723571777345,
		0.04953181743621826,
		-2.9058172702789308],
		"max":[19.172019958496095,
		157.0775146484375,
		2.0171401500701906]
	},
	{
		"bufferView":3,
		"type":"VEC3",
		"componentType":5126,
		"count":123,
		"byteOffset":12,
		"min":[-0.005562500096857548,
		-0.5044062733650208,
		-1.0],
		"max":[0.01925000175833702,
		0.47350001335144045,
		-0.8633750677108765]
	},
	{
		"bufferView":3,
		"type":"VEC2",
		"componentType":5126,
		"count":123,
		"byteOffset":24,
		"min":[0.16197603940963746,
		0.03964550793170929],
		"max":[0.8324050903320313,
		0.960213303565979]
	},
	{
		"bufferView":4,
		"type":"SCALAR",
		"componentType":5123,
		"count":360,
		"byteOffset":0,
		"min":[0],
		"max":[121]
	},
	{
		"bufferView":5,
		"type":"VEC3",
		"componentType":5126,
		"count":122,
		"byteOffset":0,
		"min":[-19.530744552612306,
		0.330925852060318,
		-2.3359994888305666],
		"max":[19.1719970703125,
		156.74951171875,
		2.5097622871398927]
	},
	{
		"bufferView":5,
		"type":"VEC3",
		"componentType":5126,
		"count":122,
		"byteOffset":12,
		"min":[-0.018968751654028894,
		-0.47193753719329836,
		0.8632813096046448],
		"max":[0.01328125037252903,
		0.5045312643051148,
		1.0]
	},
	{
		"bufferView":5,
		"type":"VEC2",
		"componentType":5126,
		"count":122,
		"byteOffset":24,
		"min":[0.17868348956108094,
		0.02668791264295578],
		"max":[0.8189070224761963,
		0.9605830907821655]
	}],
	"bufferViews":[{
		"buffer":0,
		"byteOffset":0,
		"byteLength":1470,
		"target":34963
	},
	{
		"buffer":0,
		"byteOffset":1472,
		"byteLength":8032,
		"target":34962,
		"byteStride":32
	},
	{
		"buffer":1,
		"byteOffset":0,
		"byteLength":726,
		"target":34963
	},
	{
		"buffer":1,
		"byteOffset":728,
		"byteLength":3936,
		"target":34962,
		"byteStride":32
	},
	{
		"buffer":2,
		"byteOffset":0,
		"byteLength":720,
		"target":34963
	},
	{
		"buffer":2,
		"byteOffset":720,
		"byteLength":3904,
		"target":34962,
		"byteStride":32
	}],
	"buffers":[{
		"uri":"data:application/octet-stream;base64,",
		"byteLength":9504
	},
	{
		"uri":"data:application/octet-stream;base64,",
		"byteLength":4664
	},
	{
		"uri":"data:application/octet-stream;base64,",
		"byteLength":4624
	}],
	"samplers":[{
		"magFilter":9729,
		"minFilter":9729,
		"wrapS":10497,
		"wrapT":10497
	},
	{
		"magFilter":9729,
		"minFilter":9729,
		"wrapS":10497,
		"wrapT":10497
	}],
	"textures":[{
		"sampler":0,
		"source":0
	},
	{
		"sampler":1,
		"source":1
	}]
}