{
	"materials":[{
		"pbrMetallicRoughness":{
			"baseColorTexture":{
				"index":0
			},
			"baseColorFactor":[0.8,
			0.8,
			0.8,
			1.0],
			"metallicFactor":0.02,
			"roughnessFactor":0.0
		},
		"emissiveFactor":[0.0,
		0.0,
		0.0],
		"alphaMode":"OPAQUE",
		"doubleSided":true,
		"name":"Top"
	},
	{
		"pbrMetallicRoughness":{
			"baseColorFactor":[0.06274509803921569,
			0.08627450980392157,
			0.08627450980392157,
			1.0],
			"metallicFactor":1.0,
			"roughnessFactor":1.0
		},
		"emissiveFactor":[0.0,
		0.0,
		0.0],
		"alphaMode":"OPAQUE",
		"doubleSided":true,
		"name":"Mat"
	},
	{
		"pbrMetallicRoughness":{
			"baseColorTexture":{
				"index":1
			},
			"baseColorFactor":[0.8,
			0.8,
			0.8,
			1.0],
			"metallicFactor":0.02,
			"roughnessFactor":0.0
		},
		"emissiveFactor":[0.0,
		0.0,
		0.0],
		"alphaMode":"OPAQUE",
		"doubleSided":true,
		"name":"Bottom"
	}],
	"asset":{
		"version":"2.0",
		"generator":"Created using the official Cinema 4D glTF Exporter 1.000x284978"
	},
	"textures":[{
		"sampler":0,
		"source":0
	},
	{
		"sampler":1,
		"source":1
	}],
	"scenes":[{
		"nodes":[0]
	}],
	"nodes":[{
		"name":"1993",
		"children":[1,
		2,
		3]
	},
	{
		"name":"1993-Top",
		"mesh":0
	},
	{
		"name":"1993-Mat",
		"mesh":1
	},
	{
		"name":"1993-Bottom",
		"mesh":2
	}],
	"samplers":[{
		"magFilter":9729,
		"minFilter":9729,
		"wrapS":10497,
		"wrapT":10497
	},
	{
		"magFilter":9729,
		"minFilter":9729,
		"wrapS":10497,
		"wrapT":10497
	}],
	"meshes":[{
		"name":"1993-Top",
		"primitives":[{
			"indices":0,
			"attributes":{
				"POSITION":1,
				"NORMAL":2,
				"TEXCOORD_0":3
			},
			"material":0
		}]
	},
	{
		"name":"1993-Mat",
		"primitives":[{
			"indices":4,
			"attributes":{
				"POSITION":5,
				"NORMAL":6,
				"TEXCOORD_0":7
			},
			"material":1
		}]
	},
	{
		"name":"1993-Bottom",
		"primitives":[{
			"indices":8,
			"attributes":{
				"POSITION":9,
				"NORMAL":10,
				"TEXCOORD_0":11
			},
			"material":2
		}]
	}],
	"accessors":[{
		"bufferView":0,
		"type":"SCALAR",
		"componentType":5123,
		"count":1416,
		"byteOffset":0,
		"min":[0],
		"max":[380]
	},
	{
		"bufferView":1,
		"type":"VEC3",
		"componentType":5126,
		"count":381,
		"byteOffset":0,
		"min":[-14.344513893127442,
		0.2731963098049164,
		1.4787676334381104],
		"max":[14.41126537322998,
		152.7014617919922,
		9.784948348999024]
	},
	{
		"bufferView":1,
		"type":"VEC3",
		"componentType":5126,
		"count":381,
		"byteOffset":12,
		"min":[-0.7277500629425049,
		-0.48109376430511477,
		-0.464406281709671],
		"max":[0.7351250052452087,
		0.7226563096046448,
		1.0]
	},
	{
		"bufferView":1,
		"type":"VEC2",
		"componentType":5126,
		"count":381,
		"byteOffset":24,
		"min":[0.21549668908119203,
		0.044004231691360477],
		"max":[0.7850149869918823,
		0.9550938606262207]
	},
	{
		"bufferView":2,
		"type":"SCALAR",
		"componentType":5123,
		"count":1173,
		"byteOffset":0,
		"min":[0],
		"max":[400]
	},
	{
		"bufferView":3,
		"type":"VEC3",
		"componentType":5126,
		"count":401,
		"byteOffset":0,
		"min":[-14.344513893127442,
		-0.5900295376777649,
		-0.030574511736631395],
		"max":[14.41126537322998,
		153.25633239746095,
		9.784948348999024]
	},
	{
		"bufferView":3,
		"type":"VEC3",
		"componentType":5126,
		"count":401,
		"byteOffset":12,
		"min":[-0.9999688267707825,
		-0.8214687705039978,
		-0.0043750000186264519],
		"max":[1.0,
		0.9306563138961792,
		0.5751562714576721]
	},
	{
		"bufferView":3,
		"type":"VEC2",
		"componentType":5126,
		"count":401,
		"byteOffset":24,
		"min":[0.0,
		0.0],
		"max":[1.0,
		1.0]
	},
	{
		"bufferView":4,
		"type":"SCALAR",
		"componentType":5123,
		"count":1437,
		"byteOffset":0,
		"min":[0],
		"max":[383]
	},
	{
		"bufferView":5,
		"type":"VEC3",
		"componentType":5126,
		"count":384,
		"byteOffset":0,
		"min":[-14.342817306518555,
		-0.5900295376777649,
		-0.030574511736631395],
		"max":[14.406791687011719,
		153.25633239746095,
		8.374256134033204]
	},
	{
		"bufferView":5,
		"type":"VEC3",
		"componentType":5126,
		"count":384,
		"byteOffset":12,
		"min":[-0.7621250152587891,
		-0.710812509059906,
		-1.0],
		"max":[0.8809062838554382,
		0.5210312604904175,
		0.35084375739097597]
	},
	{
		"bufferView":5,
		"type":"VEC2",
		"componentType":5126,
		"count":384,
		"byteOffset":24,
		"min":[0.22122609615325929,
		0.04330988973379135],
		"max":[0.8060742616653442,
		0.9511598348617554]
	}],
	"bufferViews":[{
		"buffer":0,
		"byteOffset":0,
		"byteLength":2832,
		"target":34963
	},
	{
		"buffer":0,
		"byteOffset":2832,
		"byteLength":12192,
		"target":34962,
		"byteStride":32
	},
	{
		"buffer":1,
		"byteOffset":0,
		"byteLength":2346,
		"target":34963
	},
	{
		"buffer":1,
		"byteOffset":2348,
		"byteLength":12832,
		"target":34962,
		"byteStride":32
	},
	{
		"buffer":2,
		"byteOffset":0,
		"byteLength":2874,
		"target":34963
	},
	{
		"buffer":2,
		"byteOffset":2876,
		"byteLength":12288,
		"target":34962,
		"byteStride":32
	}],
	"buffers":[{
		"uri":"data:application/octet-stream;base64,",
		"byteLength":15024
	},
	{
		"uri":"data:application/octet-stream;base64,",
		"byteLength":15180
	},
	{
		"uri":"data:application/octet-stream;base64,",
		"byteLength":15164
	}],
	"images":[{
		"uri":"data:image/jpeg;base64,"
	},
	{
		"uri":"data:image/jpeg;base64,"
	}]
}