{
	"nodes":[{
		"name":"Extrude",
		"children":[1,
		2,
		3,
		4]
	},
	{
		"name":"Extrude-Mat.1",
		"mesh":0
	},
	{
		"name":"Extrude-Mat",
		"mesh":1
	},
	{
		"name":"Extrude-Mat",
		"mesh":2
	},
	{
		"name":"Extrude-Mat",
		"mesh":3
	}],
	"asset":{
		"version":"2.0",
		"generator":"Created using the official Cinema 4D glTF Exporter 1.000x284978"
	},
	"scenes":[{
		"nodes":[0]
	}],
	"meshes":[{
		"name":"Extrude-Mat.1",
		"primitives":[{
			"attributes":{
				"POSITION":1,
				"NORMAL":2,
				"TEXCOORD_0":3
			},
			"indices":0,
			"material":0
		}]
	},
	{
		"name":"Extrude-Mat",
		"primitives":[{
			"attributes":{
				"POSITION":5,
				"NORMAL":6,
				"TEXCOORD_0":7
			},
			"indices":4,
			"material":1
		}]
	},
	{
		"name":"Extrude-Mat",
		"primitives":[{
			"attributes":{
				"POSITION":9,
				"NORMAL":10,
				"TEXCOORD_0":11
			},
			"indices":8,
			"material":2
		}]
	},
	{
		"name":"Extrude-Mat",
		"primitives":[{
			"attributes":{
				"POSITION":13,
				"NORMAL":14,
				"TEXCOORD_0":15
			},
			"indices":12,
			"material":2
		}]
	}],
	"accessors":[{
		"bufferView":0,
		"componentType":5123,
		"type":"SCALAR",
		"count":810,
		"byteOffset":0,
		"min":[0],
		"max":[271]
	},
	{
		"bufferView":1,
		"componentType":5126,
		"type":"VEC3",
		"count":272,
		"byteOffset":0,
		"min":[-15.856770515441895,
		3.5397543907165529,
		0.8836333155632019],
		"max":[14.719923973083496,
		160.52130126953126,
		6.181191921234131]
	},
	{
		"bufferView":1,
		"componentType":5126,
		"type":"VEC3",
		"count":272,
		"byteOffset":12,
		"min":[-0.0009062500321306288,
		-0.3657500147819519,
		0.9306563138961792],
		"max":[0.0,
		-0.0020000000949949028,
		0.9999688267707825]
	},
	{
		"bufferView":1,
		"componentType":5126,
		"type":"VEC2",
		"count":272,
		"byteOffset":24,
		"min":[0.19789129495620728,
		0.028045888990163804],
		"max":[0.7705889940261841,
		0.9371515512466431]
	},
	{
		"bufferView":2,
		"componentType":5123,
		"type":"SCALAR",
		"count":807,
		"byteOffset":0,
		"min":[0],
		"max":[270]
	},
	{
		"bufferView":3,
		"componentType":5126,
		"type":"VEC3",
		"count":271,
		"byteOffset":0,
		"min":[-15.856770515441895,
		3.5428695678710939,
		-0.6163634657859802],
		"max":[14.719923973083496,
		161.07479858398438,
		4.787023067474365]
	},
	{
		"bufferView":3,
		"componentType":5126,
		"type":"VEC3",
		"count":271,
		"byteOffset":12,
		"min":[0.0,
		0.0020000000949949028,
		-0.9999688267707825],
		"max":[0.000562500033993274,
		0.3658125102519989,
		-0.9306563138961792]
	},
	{
		"bufferView":3,
		"componentType":5126,
		"type":"VEC2",
		"count":271,
		"byteOffset":24,
		"min":[0.18502449989318849,
		0.0188295915722847],
		"max":[0.8053847551345825,
		0.95664381980896]
	},
	{
		"bufferView":4,
		"componentType":5123,
		"type":"SCALAR",
		"count":1629,
		"byteOffset":0,
		"min":[0],
		"max":[564]
	},
	{
		"bufferView":5,
		"componentType":5126,
		"type":"VEC3",
		"count":565,
		"byteOffset":0,
		"min":[-15.856770515441895,
		3.5397543907165529,
		-0.6163634657859802],
		"max":[14.719923973083496,
		161.07479858398438,
		6.181191921234131]
	},
	{
		"bufferView":5,
		"componentType":5126,
		"type":"VEC3",
		"count":565,
		"byteOffset":12,
		"min":[-1.0,
		-0.9999688267707825,
		-0.006593750324100256],
		"max":[1.0,
		0.9291250705718994,
		0.3685937821865082]
	},
	{
		"bufferView":5,
		"componentType":5126,
		"type":"VEC2",
		"count":565,
		"byteOffset":24,
		"min":[0.0,
		0.0],
		"max":[1.0,
		1.0]
	},
	{
		"bufferView":6,
		"componentType":5123,
		"type":"SCALAR",
		"count":894,
		"byteOffset":0,
		"min":[0],
		"max":[327]
	},
	{
		"bufferView":7,
		"componentType":5126,
		"type":"VEC3",
		"count":328,
		"byteOffset":0,
		"min":[-14.046128273010254,
		18.866146087646486,
		-5.228076457977295],
		"max":[13.72725772857666,
		96.94348907470703,
		1.2702522277832032]
	},
	{
		"bufferView":7,
		"componentType":5126,
		"type":"VEC3",
		"count":328,
		"byteOffset":12,
		"min":[-1.0,
		-0.9999688267707825,
		-0.9999688267707825],
		"max":[1.0,
		0.998468816280365,
		0.9999688267707825]
	},
	{
		"bufferView":7,
		"componentType":5126,
		"type":"VEC2",
		"count":328,
		"byteOffset":24,
		"min":[-0.07886980473995209,
		0.0],
		"max":[1.236038088798523,
		1.0]
	}],
	"bufferViews":[{
		"buffer":0,
		"byteOffset":0,
		"byteLength":1620,
		"target":34963
	},
	{
		"buffer":0,
		"byteOffset":1620,
		"byteLength":8704,
		"target":34962,
		"byteStride":32
	},
	{
		"buffer":1,
		"byteOffset":0,
		"byteLength":1614,
		"target":34963
	},
	{
		"buffer":1,
		"byteOffset":1616,
		"byteLength":8672,
		"target":34962,
		"byteStride":32
	},
	{
		"buffer":2,
		"byteOffset":0,
		"byteLength":3258,
		"target":34963
	},
	{
		"buffer":2,
		"byteOffset":3260,
		"byteLength":18080,
		"target":34962,
		"byteStride":32
	},
	{
		"buffer":3,
		"byteOffset":0,
		"byteLength":1788,
		"target":34963
	},
	{
		"buffer":3,
		"byteOffset":1788,
		"byteLength":10496,
		"target":34962,
		"byteStride":32
	}],
	"buffers":[{
		"uri":"data:application/octet-stream;base64,",
		"byteLength":10324
	},
	{
		"uri":"data:application/octet-stream;base64,",
		"byteLength":10288
	},
	{
		"uri":"data:application/octet-stream;base64,",
		"byteLength":21340
	},
	{
		"uri":"data:application/octet-stream;base64,",
		"byteLength":12284
	}],
	"images":[{
		"uri":"data:image/jpeg;base64,"
	},
	{
		"uri":"data:image/jpeg;base64,"
	},
	{
		"uri":"data:image/jpeg;base64,"
	}],
	"samplers":[{
		"magFilter":9729,
		"minFilter":9729,
		"wrapS":10497,
		"wrapT":10497
	},
	{
		"magFilter":9729,
		"minFilter":9729,
		"wrapS":10497,
		"wrapT":10497
	},
	{
		"magFilter":9729,
		"minFilter":9729,
		"wrapS":10497,
		"wrapT":10497
	}],
	"textures":[{
		"sampler":0,
		"source":0
	},
	{
		"sampler":1,
		"source":1
	},
	{
		"sampler":2,
		"source":2
	}],
	"materials":[{
		"pbrMetallicRoughness":{
			"baseColorTexture":{
				"index":0
			},
			"baseColorFactor":[0.8,
			0.8,
			0.8,
			1.0],
			"metallicFactor":1.0,
			"roughnessFactor":1.0
		},
		"emissiveFactor":[0.0,
		0.0,
		0.0],
		"alphaMode":"OPAQUE",
		"doubleSided":false,
		"name":"Mat.1"
	},
	{
		"pbrMetallicRoughness":{
			"baseColorTexture":{
				"index":1
			},
			"baseColorFactor":[0.8,
			0.8,
			0.8,
			1.0],
			"metallicFactor":1.0,
			"roughnessFactor":1.0
		},
		"emissiveFactor":[0.0,
		0.0,
		0.0],
		"alphaMode":"OPAQUE",
		"doubleSided":false,
		"name":"Mat"
	},
	{
		"pbrMetallicRoughness":{
			"baseColorTexture":{
				"index":2
			},
			"baseColorFactor":[0.8,
			0.8,
			0.8,
			1.0],
			"metallicFactor":1.0,
			"roughnessFactor":1.0
		},
		"emissiveFactor":[0.0,
		0.0,
		0.0],
		"alphaMode":"OPAQUE",
		"doubleSided":false,
		"name":"Mat"
	}]
}