{
	"asset":{
		"version":"2.0",
		"generator":"Created using the official Cinema 4D glTF Exporter 1.000x284978"
	},
	"images":[{
		"uri":"data:image/jpeg;base64,"
	}],
	"scenes":[{
		"nodes":[0]
	}],
	"nodes":[{
		"name":"1989",
		"translation":[32.962249755859378,
		0.0,
		0.0],
		"scale":[1.0,
		1.0,
		1.0],
		"rotation":[0.0,
		0.0,
		0.0,
		-1.0],
		"mesh":0
	}],
	"materials":[{
		"pbrMetallicRoughness":{
			"baseColorTexture":{
				"index":0
			},
			"baseColorFactor":[0.8,
			0.8,
			0.8,
			1.0],
			"metallicFactor":0.0,
			"roughnessFactor":0.5
		},
		"emissiveFactor":[0.0,
		0.0,
		0.0],
		"name":"1989",
		"alphaMode":"OPAQUE",
		"doubleSided":true
	}],
	"meshes":[{
		"name":"1989",
		"primitives":[{
			"indices":0,
			"attributes":{
				"POSITION":1,
				"TEXCOORD_0":2
			},
			"material":0
		}]
	}],
	"accessors":[{
		"bufferView":0,
		"type":"SCALAR",
		"componentType":5123,
		"max":[366],
		"count":1074,
		"byteOffset":0,
		"min":[0]
	},
	{
		"bufferView":1,
		"type":"VEC3",
		"componentType":5126,
		"max":[-17.51399803161621,
		158.1429901123047,
		8.63458251953125],
		"count":367,
		"byteOffset":0,
		"min":[-46.3372917175293,
		-0.7596805095672607,
		0.6812614798545837]
	},
	{
		"bufferView":1,
		"type":"VEC2",
		"componentType":5126,
		"max":[0.9980040192604065,
		0.7131404876708984],
		"count":367,
		"byteOffset":12,
		"min":[0.0006668742280453444,
		0.0006668742280453444]
	}],
	"bufferViews":[{
		"buffer":0,
		"byteOffset":0,
		"byteLength":2148,
		"target":34963
	},
	{
		"buffer":0,
		"byteOffset":2148,
		"byteLength":7340,
		"target":34962,
		"byteStride":20
	}],
	"buffers":[{
		"uri":"data:application/octet-stream;base64,",
		"byteLength":9488
	}],
	"samplers":[{
		"magFilter":9729,
		"minFilter":9729,
		"wrapS":10497,
		"wrapT":10497
	}],
	"textures":[{
		"sampler":0,
		"source":0
	}]
}