{
	"asset":{
		"version":"2.0",
		"generator":"Created using the official Cinema 4D glTF Exporter 1.000x284978"
	},
	"textures":[{
		"sampler":0,
		"source":0
	},
	{
		"sampler":1,
		"source":1
	}],
	"scenes":[{
		"nodes":[0]
	}],
	"nodes":[{
		"name":"1989.1",
		"translation":[32.962249755859378,
		0.0,
		0.0],
		"rotation":[0.0,
		0.0,
		0.0,
		-1.0],
		"scale":[1.0,
		1.0,
		1.0],
		"children":[1,
		2,
		3]
	},
	{
		"name":"1989.1-Top",
		"mesh":0
	},
	{
		"name":"1989.1-Mat.1",
		"mesh":1
	},
	{
		"name":"1989.1-Bottom",
		"mesh":2
	}],
	"samplers":[{
		"magFilter":9729,
		"minFilter":9729,
		"wrapS":10497,
		"wrapT":10497
	},
	{
		"magFilter":9729,
		"minFilter":9729,
		"wrapS":10497,
		"wrapT":10497
	}],
	"meshes":[{
		"name":"1989.1-Top",
		"primitives":[{
			"attributes":{
				"POSITION":1,
				"TEXCOORD_0":2
			},
			"indices":0,
			"material":0
		}]
	},
	{
		"name":"1989.1-Mat.1",
		"primitives":[{
			"attributes":{
				"POSITION":4,
				"TEXCOORD_0":5
			},
			"indices":3,
			"material":1
		}]
	},
	{
		"name":"1989.1-Bottom",
		"primitives":[{
			"attributes":{
				"POSITION":7,
				"TEXCOORD_0":8
			},
			"indices":6,
			"material":2
		}]
	}],
	"accessors":[{
		"bufferView":0,
		"type":"SCALAR",
		"componentType":5123,
		"max":[90],
		"count":267,
		"byteOffset":0,
		"min":[0]
	},
	{
		"bufferView":1,
		"type":"VEC3",
		"componentType":5126,
		"max":[-17.51399803161621,
		157.1859893798828,
		8.63458251953125],
		"count":91,
		"byteOffset":0,
		"min":[-46.3372917175293,
		0.03477010503411293,
		1.695063591003418]
	},
	{
		"bufferView":1,
		"type":"VEC2",
		"componentType":5126,
		"max":[0.7688535451889038,
		0.9531430006027222],
		"count":91,
		"byteOffset":12,
		"min":[0.23462826013565064,
		0.047982268035411838]
	},
	{
		"bufferView":2,
		"type":"SCALAR",
		"componentType":5123,
		"max":[183],
		"count":546,
		"byteOffset":0,
		"min":[0]
	},
	{
		"bufferView":3,
		"type":"VEC3",
		"componentType":5126,
		"max":[-17.51399803161621,
		158.1429901123047,
		8.63458251953125],
		"count":184,
		"byteOffset":0,
		"min":[-46.3372917175293,
		-0.7596805095672607,
		-9.602029017545793e-15]
	},
	{
		"bufferView":3,
		"type":"VEC2",
		"componentType":5126,
		"max":[1.0,
		1.0],
		"count":184,
		"byteOffset":12,
		"min":[0.0,
		0.0]
	},
	{
		"bufferView":4,
		"type":"SCALAR",
		"componentType":5123,
		"max":[88],
		"count":261,
		"byteOffset":0,
		"min":[0]
	},
	{
		"bufferView":5,
		"type":"VEC3",
		"componentType":5126,
		"max":[-17.51399803161621,
		158.1429901123047,
		7.2355146408081059],
		"count":89,
		"byteOffset":0,
		"min":[-46.3372917175293,
		-0.7596805095672607,
		-9.602029017545793e-15]
	},
	{
		"bufferView":5,
		"type":"VEC2",
		"componentType":5126,
		"max":[0.7924658060073853,
		0.9163912534713745],
		"count":89,
		"byteOffset":12,
		"min":[0.2216155230998993,
		0.06477050483226776]
	}],
	"bufferViews":[{
		"buffer":0,
		"byteOffset":0,
		"byteLength":534,
		"target":34963
	},
	{
		"buffer":0,
		"byteOffset":536,
		"byteLength":1820,
		"target":34962,
		"byteStride":20
	},
	{
		"buffer":1,
		"byteOffset":0,
		"byteLength":1092,
		"target":34963
	},
	{
		"buffer":1,
		"byteOffset":1092,
		"byteLength":3680,
		"target":34962,
		"byteStride":20
	},
	{
		"buffer":2,
		"byteOffset":0,
		"byteLength":522,
		"target":34963
	},
	{
		"buffer":2,
		"byteOffset":524,
		"byteLength":1780,
		"target":34962,
		"byteStride":20
	}],
	"buffers":[{
		"uri":"data:application/octet-stream;base64,",
		"byteLength":2356
	},
	{
		"uri":"data:application/octet-stream;base64,",
		"byteLength":4772
	},
	{
		"uri":"data:application/octet-stream;base64,",
		"byteLength":2304
	}],
	"images":[{
		"uri":"data:image/jpeg;base64,"
	},
	{
		"uri":"data:image/jpeg;base64,"
	}],
	"materials":[{
		"pbrMetallicRoughness":{
			"baseColorTexture":{
				"index":0
			},
			"baseColorFactor":[0.8,
			0.8,
			0.8,
			1.0],
			"metallicFactor":0.02,
			"roughnessFactor":0.0
		},
		"emissiveFactor":[0.0,
		0.0,
		0.0],
		"alphaMode":"OPAQUE",
		"doubleSided":true,
		"name":"Top"
	},
	{
		"pbrMetallicRoughness":{
			"baseColorFactor":[0.37,
			0.37,
			0.37,
			1.0],
			"metallicFactor":0.0,
			"roughnessFactor":0.5
		},
		"emissiveFactor":[0.0,
		0.0,
		0.0],
		"alphaMode":"OPAQUE",
		"doubleSided":true,
		"name":"Mat.1"
	},
	{
		"pbrMetallicRoughness":{
			"baseColorTexture":{
				"index":1
			},
			"baseColorFactor":[0.8,
			0.8,
			0.8,
			1.0],
			"metallicFactor":0.02,
			"roughnessFactor":0.0
		},
		"emissiveFactor":[0.0,
		0.0,
		0.0],
		"alphaMode":"OPAQUE",
		"doubleSided":true,
		"name":"Bottom"
	}]
}