{
	"materials":[{
		"pbrMetallicRoughness":{
			"baseColorTexture":{
				"index":0
			},
			"baseColorFactor":[0.8,
			0.8,
			0.8,
			1.0],
			"metallicFactor":1.0,
			"roughnessFactor":1.0
		},
		"emissiveFactor":[0.0,
		0.0,
		0.0],
		"alphaMode":"OPAQUE",
		"doubleSided":true,
		"name":"Mat"
	},
	{
		"pbrMetallicRoughness":{
			"baseColorFactor":[0.8,
			0.8,
			0.03999999999999995,
			1.0],
			"metallicFactor":1.0,
			"roughnessFactor":1.0
		},
		"emissiveFactor":[0.0,
		0.0,
		0.0],
		"alphaMode":"OPAQUE",
		"doubleSided":true,
		"name":"Mat.1"
	}],
	"asset":{
		"version":"2.0",
		"generator":"Created using the official Cinema 4D glTF Exporter 1.000x284978"
	},
	"textures":[{
		"sampler":0,
		"source":0
	}],
	"scenes":[{
		"nodes":[0]
	}],
	"nodes":[{
		"name":"Layer_Board007",
		"children":[1,
		2,
		3]
	},
	{
		"name":"Layer_Board007",
		"mesh":0
	},
	{
		"name":"Layer_Board007-Mat",
		"mesh":1
	},
	{
		"name":"Layer_Board007-Mat.1",
		"mesh":2
	}],
	"samplers":[{
		"magFilter":9729,
		"minFilter":9729,
		"wrapS":10497,
		"wrapT":10497
	}],
	"meshes":[{
		"name":"Layer_Board007",
		"primitives":[{
			"indices":0,
			"attributes":{
				"POSITION":1,
				"NORMAL":2,
				"TEXCOORD_0":3
			}
		}]
	},
	{
		"name":"Layer_Board007-Mat",
		"primitives":[{
			"indices":4,
			"attributes":{
				"POSITION":5,
				"NORMAL":6,
				"TEXCOORD_0":7
			},
			"material":0
		}]
	},
	{
		"name":"Layer_Board007-Mat.1",
		"primitives":[{
			"indices":8,
			"attributes":{
				"POSITION":9,
				"NORMAL":10,
				"TEXCOORD_0":11
			},
			"material":1
		}]
	}],
	"accessors":[{
		"bufferView":0,
		"type":"SCALAR",
		"componentType":5123,
		"count":2232,
		"byteOffset":0,
		"min":[0],
		"max":[1509]
	},
	{
		"bufferView":1,
		"type":"VEC3",
		"componentType":5126,
		"count":1510,
		"byteOffset":0,
		"min":[-2.1591813564300539,
		11.756072044372559,
		12.39527702331543],
		"max":[6.685143947601318,
		14.050435066223145,
		13.741846084594727]
	},
	{
		"bufferView":1,
		"type":"VEC3",
		"componentType":5126,
		"count":1510,
		"byteOffset":12,
		"min":[-0.9903125762939453,
		-0.9955313205718994,
		-0.9969375729560852],
		"max":[0.9915000200271606,
		0.990531325340271,
		0.9989063143730164]
	},
	{
		"bufferView":1,
		"type":"VEC2",
		"componentType":5126,
		"count":1510,
		"byteOffset":24,
		"min":[-20.55940055847168,
		-98.7156982421875],
		"max":[99.15619659423828,
		57.090797424316409]
	},
	{
		"bufferView":2,
		"type":"SCALAR",
		"componentType":5123,
		"count":2892,
		"byteOffset":0,
		"min":[0],
		"max":[1001]
	},
	{
		"bufferView":3,
		"type":"VEC3",
		"componentType":5126,
		"count":1002,
		"byteOffset":0,
		"min":[-4.118345260620117,
		-3.193373441696167,
		9.91420841217041],
		"max":[7.139565944671631,
		71.64445495605469,
		13.788779258728028]
	},
	{
		"bufferView":3,
		"type":"VEC3",
		"componentType":5126,
		"count":1002,
		"byteOffset":12,
		"min":[-0.9999688267707825,
		-0.9948750734329224,
		-1.0],
		"max":[1.0,
		0.9024375677108765,
		1.0]
	},
	{
		"bufferView":3,
		"type":"VEC2",
		"componentType":5126,
		"count":1002,
		"byteOffset":24,
		"min":[0.05672188103199005,
		-0.006686209701001644],
		"max":[0.9530557990074158,
		0.9707595109939575]
	},
	{
		"bufferView":4,
		"type":"SCALAR",
		"componentType":5123,
		"count":1434,
		"byteOffset":0,
		"min":[0],
		"max":[545]
	},
	{
		"bufferView":5,
		"type":"VEC3",
		"componentType":5126,
		"count":546,
		"byteOffset":0,
		"min":[-2.7903521060943605,
		2.0038294792175295,
		11.369964599609375],
		"max":[6.841885089874268,
		67.88188171386719,
		13.075908660888672]
	},
	{
		"bufferView":5,
		"type":"VEC3",
		"componentType":5126,
		"count":546,
		"byteOffset":12,
		"min":[-0.9998750686645508,
		-0.9999688267707825,
		-1.0],
		"max":[0.9998750686645508,
		1.0,
		1.0]
	},
	{
		"bufferView":5,
		"type":"VEC2",
		"componentType":5126,
		"count":546,
		"byteOffset":24,
		"min":[-100000.0,
		-14.104598999023438],
		"max":[100000.0,
		24.985000610351564]
	}],
	"bufferViews":[{
		"buffer":0,
		"byteOffset":0,
		"byteLength":4464,
		"target":34963
	},
	{
		"buffer":0,
		"byteOffset":4464,
		"byteLength":48320,
		"target":34962,
		"byteStride":32
	},
	{
		"buffer":1,
		"byteOffset":0,
		"byteLength":5784,
		"target":34963
	},
	{
		"buffer":1,
		"byteOffset":5784,
		"byteLength":32064,
		"target":34962,
		"byteStride":32
	},
	{
		"buffer":2,
		"byteOffset":0,
		"byteLength":2868,
		"target":34963
	},
	{
		"buffer":2,
		"byteOffset":2868,
		"byteLength":17472,
		"target":34962,
		"byteStride":32
	}],
	"buffers":[{
		"uri":"data:application/octet-stream;base64,",
		"byteLength":52784
	},
	{
		"uri":"data:application/octet-stream;base64,",
		"byteLength":37848
	},
	{
		"uri":"data:application/octet-stream;base64,",
		"byteLength":20340
	}],
	"images":[{
		"uri":"data:image/jpeg;base64,"
	}]
}