{
	"asset":{
		"version":"2.0",
		"generator":"Created using the official Cinema 4D glTF Exporter 1.000x284978"
	},
	"scenes":[{
		"nodes":[0]
	}],
	"images":[{
		"uri":"data:image/jpeg;base64,"
	}],
	"nodes":[{
		"name":"1977.2",
		"mesh":0
	}],
	"materials":[{
		"alphaMode":"OPAQUE",
		"pbrMetallicRoughness":{
			"baseColorTexture":{
				"index":0
			},
			"baseColorFactor":[0.8,
			0.8,
			0.8,
			1.0],
			"metallicFactor":0.003,
			"roughnessFactor":0.0
		},
		"emissiveFactor":[0.0,
		0.0,
		0.0],
		"doubleSided":true,
		"name":"1977"
	}],
	"meshes":[{
		"name":"1977.2",
		"primitives":[{
			"attributes":{
				"POSITION":1,
				"TEXCOORD_0":2
			},
			"indices":0,
			"material":0
		}]
	}],
	"accessors":[{
		"bufferView":0,
		"type":"SCALAR",
		"componentType":5123,
		"count":31008,
		"byteOffset":0,
		"min":[0],
		"max":[6655]
	},
	{
		"bufferView":1,
		"type":"VEC3",
		"componentType":5126,
		"count":6656,
		"byteOffset":0,
		"min":[-10.231314659118653,
		1.6387816667556763,
		-3.370968818664551],
		"max":[15.416938781738282,
		134.6488037109375,
		8.186860084533692]
	},
	{
		"bufferView":1,
		"type":"VEC2",
		"componentType":5126,
		"count":6656,
		"byteOffset":12,
		"min":[0.0006668683490715921,
		0.0006668682908639312],
		"max":[0.9980040192604065,
		0.769637942314148]
	}],
	"bufferViews":[{
		"buffer":0,
		"byteOffset":0,
		"byteLength":62016,
		"target":34963
	},
	{
		"buffer":0,
		"byteOffset":62016,
		"byteLength":133120,
		"target":34962,
		"byteStride":20
	}],
	"buffers":[{
		"uri":"data:application/octet-stream;base64,",
		"byteLength":195136
	}],
	"samplers":[{
		"magFilter":9729,
		"minFilter":9729,
		"wrapS":10497,
		"wrapT":10497
	}],
	"textures":[{
		"sampler":0,
		"source":0
	}]
}