{
	"buffers":[{
		"uri":"data:application/octet-stream;base64,",
		"byteLength":28240
	}],
	"asset":{
		"version":"2.0",
		"generator":"Created using the official Cinema 4D glTF Exporter 1.000x284978"
	},
	"scenes":[{
		"nodes":[0]
	}],
	"nodes":[{
		"name":"Extrude",
		"translation":[-1.0345244407653809,
		76.18485260009766,
		1.9917751550674439],
		"rotation":[-0.7031224966049194,
		0.0,
		0.0,
		-0.7110687494277954],
		"scale":[1.0,
		1.0,
		1.0],
		"children":[1]
	},
	{
		"name":"Extrude.4",
		"mesh":0
	}],
	"meshes":[{
		"name":"Extrude.4",
		"primitives":[{
			"attributes":{
				"POSITION":1,
				"TEXCOORD_0":2
			},
			"indices":0,
			"material":0
		}]
	}],
	"accessors":[{
		"min":[0],
		"bufferView":0,
		"type":"SCALAR",
		"componentType":5123,
		"count":4020,
		"byteOffset":0,
		"max":[1009]
	},
	{
		"min":[-13.620482444763184,
		-0.9845238924026489,
		-81.5084228515625],
		"bufferView":1,
		"type":"VEC3",
		"componentType":5126,
		"count":1010,
		"byteOffset":0,
		"max":[16.83478355407715,
		10.436633110046387,
		77.09152221679688]
	},
	{
		"min":[0.0006668746354989708,
		0.0006668745772913098],
		"bufferView":1,
		"type":"VEC2",
		"componentType":5126,
		"count":1010,
		"byteOffset":12,
		"max":[0.6504204869270325,
		0.9980039596557617]
	}],
	"bufferViews":[{
		"buffer":0,
		"byteOffset":0,
		"byteLength":8040,
		"target":34963
	},
	{
		"buffer":0,
		"byteOffset":8040,
		"byteLength":20200,
		"target":34962,
		"byteStride":20
	}],
	"images":[{
		"uri":"data:image/jpeg;base64,"
	}],
	"samplers":[{
		"magFilter":9729,
		"minFilter":9729,
		"wrapS":10497,
		"wrapT":10497
	}],
	"textures":[{
		"sampler":0,
		"source":0
	}],
	"materials":[{
		"pbrMetallicRoughness":{
			"baseColorTexture":{
				"index":0
			},
			"baseColorFactor":[0.8,
			0.8,
			0.8,
			1.0],
			"metallicFactor":0.01,
			"roughnessFactor":0.0
		},
		"emissiveFactor":[0.0,
		0.0,
		0.0],
		"alphaMode":"OPAQUE",
		"doubleSided":true,
		"name":"Extrude"
	}]
}