{
	"accessors":[{
		"bufferView":0,
		"count":2232,
		"type":"SCALAR",
		"componentType":5123,
		"byteOffset":0,
		"min":[0],
		"max":[1509]
	},
	{
		"bufferView":1,
		"count":1510,
		"type":"VEC3",
		"componentType":5126,
		"byteOffset":0,
		"min":[-4.246392726898193,
		11.756072044372559,
		1.0955462455749512],
		"max":[4.5979323387146,
		14.050435066223145,
		2.442115068435669]
	},
	{
		"bufferView":1,
		"count":1510,
		"type":"VEC3",
		"componentType":5126,
		"byteOffset":12,
		"min":[-0.9903125762939453,
		-0.9955313205718994,
		-0.9969375729560852],
		"max":[0.9915000200271606,
		0.990531325340271,
		0.9989063143730164]
	},
	{
		"bufferView":1,
		"count":1510,
		"type":"VEC2",
		"componentType":5126,
		"byteOffset":24,
		"min":[-20.55940055847168,
		-98.7156982421875],
		"max":[99.15619659423828,
		57.090797424316409]
	},
	{
		"bufferView":2,
		"count":720,
		"type":"SCALAR",
		"componentType":5123,
		"byteOffset":0,
		"min":[0],
		"max":[241]
	},
	{
		"bufferView":3,
		"count":242,
		"type":"VEC3",
		"componentType":5126,
		"byteOffset":0,
		"min":[-6.205556392669678,
		-3.193373441696167,
		-1.3855228424072266],
		"max":[5.0523505210876469,
		71.64445495605469,
		2.2317471504211427]
	},
	{
		"bufferView":3,
		"count":242,
		"type":"VEC3",
		"componentType":5126,
		"byteOffset":12,
		"min":[-0.009812500327825547,
		-0.021375000476837159,
		-1.0],
		"max":[0.000375000003259629,
		0.4283125102519989,
		-0.9035937786102295]
	},
	{
		"bufferView":3,
		"count":242,
		"type":"VEC2",
		"componentType":5126,
		"byteOffset":24,
		"min":[0.2636107802391052,
		0.043572328984737399],
		"max":[0.7252218723297119,
		0.9289654493331909]
	},
	{
		"bufferView":4,
		"count":2172,
		"type":"SCALAR",
		"componentType":5123,
		"byteOffset":0,
		"min":[0],
		"max":[759]
	},
	{
		"bufferView":5,
		"count":760,
		"type":"VEC3",
		"componentType":5126,
		"byteOffset":0,
		"min":[-6.205556392669678,
		-3.193373441696167,
		-1.3855228424072266],
		"max":[5.052354335784912,
		71.64445495605469,
		2.4890480041503908]
	},
	{
		"bufferView":5,
		"count":760,
		"type":"VEC3",
		"componentType":5126,
		"byteOffset":12,
		"min":[-0.9999688267707825,
		-0.9948750734329224,
		-0.0002500000118743628],
		"max":[1.0,
		0.9024375677108765,
		1.0]
	},
	{
		"bufferView":5,
		"count":760,
		"type":"VEC2",
		"componentType":5126,
		"byteOffset":24,
		"min":[0.05672188103199005,
		-0.006686209701001644],
		"max":[0.9530557990074158,
		0.9707595109939575]
	},
	{
		"bufferView":6,
		"count":1434,
		"type":"SCALAR",
		"componentType":5123,
		"byteOffset":0,
		"min":[0],
		"max":[545]
	},
	{
		"bufferView":7,
		"count":546,
		"type":"VEC3",
		"componentType":5126,
		"byteOffset":0,
		"min":[-4.8775634765625,
		2.0038294792175295,
		0.0702330470085144],
		"max":[4.754673480987549,
		67.88188171386719,
		1.776178002357483]
	},
	{
		"bufferView":7,
		"count":546,
		"type":"VEC3",
		"componentType":5126,
		"byteOffset":12,
		"min":[-0.9998750686645508,
		-0.9999688267707825,
		-1.0],
		"max":[0.9998750686645508,
		0.9999688267707825,
		1.0]
	},
	{
		"bufferView":7,
		"count":546,
		"type":"VEC2",
		"componentType":5126,
		"byteOffset":24,
		"min":[-100000.0,
		-14.104598999023438],
		"max":[100000.0,
		24.985000610351564]
	}],
	"nodes":[{
		"name":"Layer_Board007",
		"translation":[-2.3447910280083308e-13,
		0.0,
		8.881784197001252e-14],
		"children":[1,
		2,
		3,
		4],
		"rotation":[0.0,
		-1.0,
		0.0,
		-6.123234262925839e-17],
		"scale":[1.0,
		1.0,
		1.0]
	},
	{
		"name":"Layer_Board007-Mat.3",
		"mesh":0
	},
	{
		"name":"Layer_Board007-Mat.3",
		"mesh":1
	},
	{
		"name":"Layer_Board007-Mat",
		"mesh":2
	},
	{
		"name":"Layer_Board007-Mat.1",
		"mesh":3
	}],
	"asset":{
		"version":"2.0",
		"generator":"Created using the official Cinema 4D glTF Exporter 1.000x284978"
	},
	"scenes":[{
		"nodes":[0]
	}],
	"meshes":[{
		"name":"Layer_Board007-Mat.3",
		"primitives":[{
			"attributes":{
				"POSITION":1,
				"NORMAL":2,
				"TEXCOORD_0":3
			},
			"indices":0,
			"material":0
		}]
	},
	{
		"name":"Layer_Board007-Mat.3",
		"primitives":[{
			"attributes":{
				"POSITION":5,
				"NORMAL":6,
				"TEXCOORD_0":7
			},
			"indices":4,
			"material":0
		}]
	},
	{
		"name":"Layer_Board007-Mat",
		"primitives":[{
			"attributes":{
				"POSITION":9,
				"NORMAL":10,
				"TEXCOORD_0":11
			},
			"indices":8,
			"material":1
		}]
	},
	{
		"name":"Layer_Board007-Mat.1",
		"primitives":[{
			"attributes":{
				"POSITION":13,
				"NORMAL":14,
				"TEXCOORD_0":15
			},
			"indices":12,
			"material":2
		}]
	}],
	"bufferViews":[{
		"buffer":0,
		"byteOffset":0,
		"byteLength":4464,
		"target":34963
	},
	{
		"buffer":0,
		"byteOffset":4464,
		"byteLength":48320,
		"target":34962,
		"byteStride":32
	},
	{
		"buffer":1,
		"byteOffset":0,
		"byteLength":1440,
		"target":34963
	},
	{
		"buffer":1,
		"byteOffset":1440,
		"byteLength":7744,
		"target":34962,
		"byteStride":32
	},
	{
		"buffer":2,
		"byteOffset":0,
		"byteLength":4344,
		"target":34963
	},
	{
		"buffer":2,
		"byteOffset":4344,
		"byteLength":24320,
		"target":34962,
		"byteStride":32
	},
	{
		"buffer":3,
		"byteOffset":0,
		"byteLength":2868,
		"target":34963
	},
	{
		"buffer":3,
		"byteOffset":2868,
		"byteLength":17472,
		"target":34962,
		"byteStride":32
	}],
	"buffers":[{
		"uri":"data:application/octet-stream;base64,",
		"byteLength":52784
	},
	{
		"uri":"data:application/octet-stream;base64,",
		"byteLength":9184
	},
	{
		"uri":"data:application/octet-stream;base64,",
		"byteLength":28664
	},
	{
		"uri":"data:application/octet-stream;base64,",
		"byteLength":20340
	}],
	"images":[{
		"uri":"data:image/jpeg;base64,"
	},
	{
		"uri":"data:image/jpeg;base64,"
	}],
	"samplers":[{
		"magFilter":9729,
		"minFilter":9729,
		"wrapS":10497,
		"wrapT":10497
	},
	{
		"magFilter":9729,
		"minFilter":9729,
		"wrapS":10497,
		"wrapT":10497
	}],
	"textures":[{
		"sampler":0,
		"source":0
	},
	{
		"sampler":1,
		"source":1
	}],
	"materials":[{
		"pbrMetallicRoughness":{
			"baseColorTexture":{
				"index":0
			},
			"baseColorFactor":[0.8,
			0.8,
			0.8,
			1.0],
			"metallicFactor":0.0,
			"roughnessFactor":0.5
		},
		"emissiveFactor":[0.0,
		0.0,
		0.0],
		"alphaMode":"OPAQUE",
		"doubleSided":false,
		"name":"Mat.3"
	},
	{
		"pbrMetallicRoughness":{
			"baseColorTexture":{
				"index":1
			},
			"baseColorFactor":[0.8,
			0.8,
			0.8,
			1.0],
			"metallicFactor":1.0,
			"roughnessFactor":1.0
		},
		"emissiveFactor":[0.0,
		0.0,
		0.0],
		"alphaMode":"OPAQUE",
		"doubleSided":false,
		"name":"Mat"
	},
	{
		"pbrMetallicRoughness":{
			"baseColorFactor":[0.8,
			0.8,
			0.03999999999999995,
			1.0],
			"metallicFactor":1.0,
			"roughnessFactor":1.0
		},
		"emissiveFactor":[0.0,
		0.0,
		0.0],
		"alphaMode":"OPAQUE",
		"doubleSided":false,
		"name":"Mat.1"
	}]
}