{
	"asset":{
		"version":"2.0",
		"generator":"Created using the official Cinema 4D glTF Exporter 1.000x284978"
	},
	"scenes":[{
		"nodes":[0]
	}],
	"nodes":[{
		"name":"1993.1",
		"translation":[-0.06075950339436531,
		-1.2822182178497315,
		0.0],
		"mesh":0,
		"rotation":[0.0,
		0.0,
		0.0,
		-1.0],
		"scale":[1.0,
		1.0,
		1.0]
	}],
	"meshes":[{
		"name":"1993.1",
		"primitives":[{
			"attributes":{
				"POSITION":1,
				"TEXCOORD_0":2
			},
			"indices":0,
			"material":0
		}]
	}],
	"accessors":[{
		"bufferView":0,
		"componentType":5123,
		"type":"SCALAR",
		"count":8922,
		"byteOffset":0,
		"min":[0],
		"max":[1992]
	},
	{
		"bufferView":1,
		"componentType":5126,
		"type":"VEC3",
		"count":1993,
		"byteOffset":0,
		"min":[-14.65673828125,
		2.0673446655273439,
		0.15367333590984345],
		"max":[14.736916542053223,
		156.8314666748047,
		9.627848625183106]
	},
	{
		"bufferView":1,
		"componentType":5126,
		"type":"VEC2",
		"count":1993,
		"byteOffset":12,
		"min":[0.0003333863278385252,
		0.0003333862987346947],
		"max":[0.9990010261535645,
		0.610366702079773]
	}],
	"bufferViews":[{
		"buffer":0,
		"byteOffset":0,
		"byteLength":17844,
		"target":34963
	},
	{
		"buffer":0,
		"byteOffset":17844,
		"byteLength":39860,
		"target":34962,
		"byteStride":20
	}],
	"buffers":[{
		"uri":"data:application/octet-stream;base64,",
		"byteLength":57704
	}],
	"images":[{
		"uri":"data:image/jpeg;base64,"
	}],
	"samplers":[{
		"magFilter":9729,
		"minFilter":9729,
		"wrapS":10497,
		"wrapT":10497
	}],
	"textures":[{
		"sampler":0,
		"source":0
	}],
	"materials":[{
		"pbrMetallicRoughness":{
			"baseColorTexture":{
				"index":0
			},
			"baseColorFactor":[0.8,
			0.8,
			0.8,
			1.0],
			"metallicFactor":0.0,
			"roughnessFactor":0.5
		},
		"emissiveFactor":[0.0,
		0.0,
		0.0],
		"alphaMode":"OPAQUE",
		"doubleSided":true,
		"name":"1993"
	}]
}