{
	"asset":{
		"version":"2.0",
		"generator":"Created using the official Cinema 4D glTF Exporter 1.000x284978"
	},
	"textures":[{
		"sampler":0,
		"source":0
	},
	{
		"sampler":1,
		"source":1
	}],
	"scenes":[{
		"nodes":[0]
	}],
	"nodes":[{
		"name":"2013",
		"translation":[-0.2812846601009369,
		0.0,
		0.0],
		"rotation":[0.709039032459259,
		-8.659528177946542e-17,
		8.659528177946542e-17,
		0.7051692008972168],
		"scale":[1.0,
		1.0,
		1.0],
		"children":[1]
	},
	{
		"name":"Extrude.1",
		"translation":[-0.14240698516368867,
		-0.39031481742858889,
		-71.31901550292969],
		"rotation":[0.0,
		0.0,
		0.0,
		-1.0],
		"scale":[1.0,
		1.0,
		1.0],
		"children":[2,
		4,
		6]
	},
	{
		"name":"Extrude.1-Mat.1",
		"children":[3]
	},
	{
		"name":"Extrude.1-Mat.1",
		"mesh":0
	},
	{
		"name":"Extrude.1-Mat",
		"children":[5]
	},
	{
		"name":"Extrude.1-Mat",
		"mesh":1
	},
	{
		"name":"Extrude.1-Mat",
		"children":[7]
	},
	{
		"name":"Extrude.1-Mat",
		"mesh":2
	}],
	"samplers":[{
		"magFilter":9729,
		"minFilter":9729,
		"wrapS":10497,
		"wrapT":10497
	},
	{
		"magFilter":9729,
		"minFilter":9729,
		"wrapS":10497,
		"wrapT":10497
	}],
	"meshes":[{
		"name":"Extrude.1-Mat.1",
		"primitives":[{
			"attributes":{
				"POSITION":1,
				"TEXCOORD_0":2
			},
			"indices":0,
			"material":0
		}]
	},
	{
		"name":"Extrude.1-Mat",
		"primitives":[{
			"attributes":{
				"POSITION":4,
				"TEXCOORD_0":5
			},
			"indices":3,
			"material":1
		}]
	},
	{
		"name":"Extrude.1-Mat",
		"primitives":[{
			"attributes":{
				"POSITION":7,
				"TEXCOORD_0":8
			},
			"indices":6,
			"material":2
		}]
	}],
	"accessors":[{
		"bufferView":0,
		"type":"SCALAR",
		"componentType":5123,
		"max":[433],
		"count":1296,
		"byteOffset":0,
		"min":[0]
	},
	{
		"bufferView":1,
		"type":"VEC3",
		"componentType":5126,
		"max":[14.620259284973145,
		7.073585510253906,
		71.27735137939453],
		"count":434,
		"byteOffset":0,
		"min":[-14.90514850616455,
		-7.713318339889943e-15,
		-78.47895050048828]
	},
	{
		"bufferView":1,
		"type":"VEC2",
		"componentType":5126,
		"max":[1.0,
		1.0],
		"count":434,
		"byteOffset":12,
		"min":[0.0,
		0.0]
	},
	{
		"bufferView":2,
		"type":"SCALAR",
		"componentType":5123,
		"max":[215],
		"count":642,
		"byteOffset":0,
		"min":[0]
	},
	{
		"bufferView":3,
		"type":"VEC3",
		"componentType":5126,
		"max":[14.620259284973145,
		6.202856063842773,
		71.27735137939453],
		"count":216,
		"byteOffset":0,
		"min":[-14.90514850616455,
		-7.713318339889943e-15,
		-78.47895050048828]
	},
	{
		"bufferView":3,
		"type":"VEC2",
		"componentType":5126,
		"max":[0.8085557222366333,
		0.9678019285202026],
		"count":216,
		"byteOffset":12,
		"min":[0.18293291330337525,
		0.06983822584152222]
	},
	{
		"bufferView":4,
		"type":"SCALAR",
		"componentType":5123,
		"max":[215],
		"count":642,
		"byteOffset":0,
		"min":[0]
	},
	{
		"bufferView":5,
		"type":"VEC3",
		"componentType":5126,
		"max":[14.620259284973145,
		7.073585510253906,
		70.83395385742188],
		"count":216,
		"byteOffset":0,
		"min":[-14.90514850616455,
		1.0110000371932984,
		-77.9651870727539]
	},
	{
		"bufferView":5,
		"type":"VEC2",
		"componentType":5126,
		"max":[0.7981163263320923,
		0.9462014436721802],
		"count":216,
		"byteOffset":12,
		"min":[0.20563969016075135,
		0.026391953229904176]
	}],
	"bufferViews":[{
		"buffer":0,
		"byteOffset":0,
		"byteLength":2592,
		"target":34963
	},
	{
		"buffer":0,
		"byteOffset":2592,
		"byteLength":8680,
		"target":34962,
		"byteStride":20
	},
	{
		"buffer":1,
		"byteOffset":0,
		"byteLength":1284,
		"target":34963
	},
	{
		"buffer":1,
		"byteOffset":1284,
		"byteLength":4320,
		"target":34962,
		"byteStride":20
	},
	{
		"buffer":2,
		"byteOffset":0,
		"byteLength":1284,
		"target":34963
	},
	{
		"buffer":2,
		"byteOffset":1284,
		"byteLength":4320,
		"target":34962,
		"byteStride":20
	}],
	"buffers":[{
		"uri":"data:application/octet-stream;base64,",
		"byteLength":11272
	},
	{
		"uri":"data:application/octet-stream;base64,",
		"byteLength":5604
	},
	{
		"uri":"data:application/octet-stream;base64,",
		"byteLength":5604
	}],
	"images":[{
		"uri":"data:image/jpeg;base64,"
	},
	{
		"uri":"data:image/jpeg;base64,"
	}],
	"materials":[{
		"pbrMetallicRoughness":{
			"baseColorFactor":[0.08627450980392157,
			0.14117647058823538,
			0.24313725490196079,
			1.0],
			"metallicFactor":0.02,
			"roughnessFactor":0.0
		},
		"emissiveFactor":[0.0,
		0.0,
		0.0],
		"alphaMode":"OPAQUE",
		"doubleSided":true,
		"name":"Mat.1"
	},
	{
		"pbrMetallicRoughness":{
			"baseColorTexture":{
				"index":0
			},
			"baseColorFactor":[0.8,
			0.8,
			0.8,
			1.0],
			"metallicFactor":0.05,
			"roughnessFactor":0.0
		},
		"emissiveFactor":[0.0,
		0.0,
		0.0],
		"alphaMode":"OPAQUE",
		"doubleSided":true,
		"name":"Mat"
	},
	{
		"pbrMetallicRoughness":{
			"baseColorTexture":{
				"index":1
			},
			"baseColorFactor":[0.8,
			0.8,
			0.8,
			1.0],
			"metallicFactor":0.05,
			"roughnessFactor":0.0
		},
		"emissiveFactor":[0.0,
		0.0,
		0.0],
		"alphaMode":"OPAQUE",
		"doubleSided":true,
		"name":"Mat"
	}]
}