{
	"materials":[{
		"pbrMetallicRoughness":{
			"baseColorFactor":[0.10037499999999999,
			0.10175000000000001,
			0.11,
			1.0],
			"metallicFactor":0.0,
			"roughnessFactor":0.5
		},
		"emissiveFactor":[0.0,
		0.0,
		0.0],
		"alphaMode":"OPAQUE",
		"doubleSided":true,
		"name":"Mat.1"
	},
	{
		"pbrMetallicRoughness":{
			"baseColorTexture":{
				"index":0
			},
			"baseColorFactor":[0.8,
			0.8,
			0.8,
			1.0],
			"metallicFactor":1.0,
			"roughnessFactor":1.0
		},
		"emissiveFactor":[0.0,
		0.0,
		0.0],
		"alphaMode":"OPAQUE",
		"doubleSided":true,
		"name":"Mat"
	},
	{
		"pbrMetallicRoughness":{
			"baseColorTexture":{
				"index":1
			},
			"baseColorFactor":[0.8,
			0.8,
			0.8,
			1.0],
			"metallicFactor":1.0,
			"roughnessFactor":1.0
		},
		"emissiveFactor":[0.0,
		0.0,
		0.0],
		"alphaMode":"OPAQUE",
		"doubleSided":true,
		"name":"Mat"
	}],
	"asset":{
		"version":"2.0",
		"generator":"Created using the official Cinema 4D glTF Exporter 1.000x284978"
	},
	"textures":[{
		"sampler":0,
		"source":0
	},
	{
		"sampler":1,
		"source":1
	}],
	"scenes":[{
		"nodes":[0]
	}],
	"nodes":[{
		"name":"Extrude",
		"children":[1,
		2,
		3]
	},
	{
		"name":"Extrude-Mat.1",
		"mesh":0
	},
	{
		"name":"Extrude-Mat",
		"mesh":1
	},
	{
		"name":"Extrude-Mat",
		"mesh":2
	}],
	"samplers":[{
		"magFilter":9729,
		"minFilter":9729,
		"wrapS":10497,
		"wrapT":10497
	},
	{
		"magFilter":9729,
		"minFilter":9729,
		"wrapS":10497,
		"wrapT":10497
	}],
	"meshes":[{
		"name":"Extrude-Mat.1",
		"primitives":[{
			"indices":0,
			"attributes":{
				"POSITION":1,
				"NORMAL":2,
				"TEXCOORD_0":3
			},
			"material":0
		}]
	},
	{
		"name":"Extrude-Mat",
		"primitives":[{
			"indices":4,
			"attributes":{
				"POSITION":5,
				"NORMAL":6,
				"TEXCOORD_0":7
			},
			"material":1
		}]
	},
	{
		"name":"Extrude-Mat",
		"primitives":[{
			"indices":8,
			"attributes":{
				"POSITION":9,
				"NORMAL":10,
				"TEXCOORD_0":11
			},
			"material":2
		}]
	}],
	"accessors":[{
		"bufferView":0,
		"type":"SCALAR",
		"componentType":5123,
		"count":735,
		"byteOffset":0,
		"min":[0],
		"max":[250]
	},
	{
		"bufferView":1,
		"type":"VEC3",
		"componentType":5126,
		"count":251,
		"byteOffset":0,
		"min":[-16.61286163330078,
		18.82979393005371,
		-0.497687429189682],
		"max":[16.307729721069337,
		149.5905303955078,
		6.399862766265869]
	},
	{
		"bufferView":1,
		"type":"VEC3",
		"componentType":5126,
		"count":251,
		"byteOffset":12,
		"min":[-0.9999688267707825,
		-0.7795000076293945,
		-0.00003125000148429535],
		"max":[0.9999688267707825,
		0.6924687623977661,
		0.6579375267028809]
	},
	{
		"bufferView":1,
		"type":"VEC2",
		"componentType":5126,
		"count":251,
		"byteOffset":24,
		"min":[0.0,
		0.0],
		"max":[1.0,
		1.0]
	},
	{
		"bufferView":2,
		"type":"SCALAR",
		"componentType":5123,
		"count":360,
		"byteOffset":0,
		"min":[0],
		"max":[121]
	},
	{
		"bufferView":3,
		"type":"VEC3",
		"componentType":5126,
		"count":122,
		"byteOffset":0,
		"min":[-16.612842559814454,
		18.82979393005371,
		-0.497687429189682],
		"max":[16.307729721069337,
		149.5905303955078,
		6.041165351867676]
	},
	{
		"bufferView":3,
		"type":"VEC3",
		"componentType":5126,
		"count":122,
		"byteOffset":12,
		"min":[-0.03659375011920929,
		-0.6731250286102295,
		-1.0],
		"max":[0.1303437501192093,
		0.5941562652587891,
		-0.7394688129425049]
	},
	{
		"bufferView":3,
		"type":"VEC2",
		"componentType":5126,
		"count":122,
		"byteOffset":24,
		"min":[0.16197603940963746,
		0.03964550793170929],
		"max":[0.8324050903320313,
		0.960213303565979]
	},
	{
		"bufferView":4,
		"type":"SCALAR",
		"componentType":5123,
		"count":363,
		"byteOffset":0,
		"min":[0],
		"max":[122]
	},
	{
		"bufferView":5,
		"type":"VEC3",
		"componentType":5126,
		"count":123,
		"byteOffset":0,
		"min":[-16.61286163330078,
		19.152563095092775,
		-0.014451907016336918],
		"max":[16.307710647583009,
		149.26705932617188,
		6.399862766265869]
	},
	{
		"bufferView":5,
		"type":"VEC3",
		"componentType":5126,
		"count":123,
		"byteOffset":12,
		"min":[-0.12721875309944154,
		-0.592968761920929,
		0.7393437623977661],
		"max":[0.04243750125169754,
		0.6732500195503235,
		1.0]
	},
	{
		"bufferView":5,
		"type":"VEC2",
		"componentType":5126,
		"count":123,
		"byteOffset":24,
		"min":[0.17868348956108094,
		0.026669226586818696],
		"max":[0.8189070224761963,
		0.9672034978866577]
	}],
	"bufferViews":[{
		"buffer":0,
		"byteOffset":0,
		"byteLength":1470,
		"target":34963
	},
	{
		"buffer":0,
		"byteOffset":1472,
		"byteLength":8032,
		"target":34962,
		"byteStride":32
	},
	{
		"buffer":1,
		"byteOffset":0,
		"byteLength":720,
		"target":34963
	},
	{
		"buffer":1,
		"byteOffset":720,
		"byteLength":3904,
		"target":34962,
		"byteStride":32
	},
	{
		"buffer":2,
		"byteOffset":0,
		"byteLength":726,
		"target":34963
	},
	{
		"buffer":2,
		"byteOffset":728,
		"byteLength":3936,
		"target":34962,
		"byteStride":32
	}],
	"buffers":[{
		"uri":"data:application/octet-stream;base64,",
		"byteLength":9504
	},
	{
		"uri":"data:application/octet-stream;base64,",
		"byteLength":4624
	},
	{
		"uri":"data:application/octet-stream;base64,",
		"byteLength":4664
	}],
	"images":[{
		"uri":"data:image/jpeg;base64,"
	},
	{
		"uri":"data:image/jpeg;base64,"
	}]
}