{
	"materials":[{
		"pbrMetallicRoughness":{
			"baseColorTexture":{
				"index":0
			},
			"baseColorFactor":[0.8,
			0.8,
			0.8,
			1.0],
			"metallicFactor":0.0,
			"roughnessFactor":0.5
		},
		"emissiveFactor":[0.0,
		0.0,
		0.0],
		"alphaMode":"OPAQUE",
		"name":"Mat.6",
		"doubleSided":true
	},
	{
		"pbrMetallicRoughness":{
			"baseColorTexture":{
				"index":1
			},
			"baseColorFactor":[0.8,
			0.8,
			0.8,
			1.0],
			"metallicFactor":0.0,
			"roughnessFactor":0.5
		},
		"emissiveFactor":[0.0,
		0.0,
		0.0],
		"alphaMode":"OPAQUE",
		"name":"Mat",
		"doubleSided":true
	},
	{
		"pbrMetallicRoughness":{
			"baseColorTexture":{
				"index":2
			},
			"baseColorFactor":[0.8,
			0.8,
			0.8,
			1.0],
			"metallicFactor":0.0,
			"roughnessFactor":0.5
		},
		"emissiveFactor":[0.0,
		0.0,
		0.0],
		"alphaMode":"OPAQUE",
		"name":"Mat",
		"doubleSided":true
	},
	{
		"pbrMetallicRoughness":{
			"baseColorFactor":[0.3450980392156863,
			0.4313725490196079,
			0.5490196078431373,
			1.0],
			"metallicFactor":0.0,
			"roughnessFactor":0.5
		},
		"emissiveFactor":[0.0,
		0.0,
		0.0],
		"alphaMode":"OPAQUE",
		"name":"Mat.10",
		"doubleSided":true
	},
	{
		"pbrMetallicRoughness":{
			"baseColorTexture":{
				"index":3
			},
			"baseColorFactor":[0.8,
			0.8,
			0.8,
			1.0],
			"metallicFactor":0.01,
			"roughnessFactor":0.42
		},
		"emissiveFactor":[0.0,
		0.0,
		0.0],
		"alphaMode":"OPAQUE",
		"name":"Mat",
		"doubleSided":true
	},
	{
		"pbrMetallicRoughness":{
			"baseColorTexture":{
				"index":4
			},
			"baseColorFactor":[0.8,
			0.8,
			0.8,
			1.0],
			"metallicFactor":0.003,
			"roughnessFactor":0.0
		},
		"emissiveFactor":[0.0,
		0.0,
		0.0],
		"alphaMode":"OPAQUE",
		"name":"Mat.9",
		"doubleSided":true
	}],
	"nodes":[{
		"name":"1977.1",
		"rotation":[0.0,
		0.0,
		0.0,
		-1.0],
		"translation":[0.42038992047309878,
		0.1666969358921051,
		3.1029763221740724],
		"scale":[1.0,
		1.0,
		1.0],
		"children":[1,
		3,
		5,
		7,
		8,
		10]
	},
	{
		"name":"Extrude.3",
		"rotation":[0.0,
		0.0,
		0.0,
		-1.0],
		"translation":[-9.49888801574707,
		-0.30907684564590456,
		13.853272438049317],
		"scale":[1.0,
		1.0,
		1.0],
		"children":[2]
	},
	{
		"name":"Extrude.3",
		"mesh":0
	},
	{
		"name":"Extrude.2",
		"rotation":[0.0,
		0.0,
		0.0,
		-1.0],
		"translation":[10.294148445129395,
		-0.30907684564590456,
		13.853272438049317],
		"scale":[1.0,
		1.0,
		1.0],
		"children":[4]
	},
	{
		"name":"Extrude.2",
		"mesh":1
	},
	{
		"name":"Sweep.1",
		"rotation":[0.05256322771310806,
		0.0,
		0.0,
		-0.9986175894737244],
		"translation":[-0.7481133937835693,
		1.0620747804641724,
		4.6122589111328129],
		"scale":[1.0,
		1.0,
		1.0],
		"children":[6]
	},
	{
		"name":"Sweep.1",
		"mesh":2
	},
	{
		"name":"Extrude",
		"rotation":[-0.07693029195070267,
		0.04206070676445961,
		0.04372582957148552,
		0.9951887726783752],
		"translation":[2.9453065395355226,
		0.7923861742019653,
		-19.906898498535158],
		"scale":[1.0,
		1.0,
		1.0],
		"mesh":3
	},
	{
		"name":"Sweep",
		"rotation":[0.0,
		0.0,
		0.0,
		-1.0],
		"translation":[-0.7481133937835693,
		-0.30907684564590456,
		-3.1029763221740724],
		"scale":[1.0,
		1.0,
		1.0],
		"children":[9]
	},
	{
		"name":"Sweep",
		"mesh":4
	},
	{
		"name":"Extrude.1",
		"rotation":[0.0,
		0.0,
		0.0,
		-1.0],
		"translation":[-0.7481133937835693,
		-0.30907684564590456,
		-3.1029763221740724],
		"scale":[1.0,
		1.0,
		1.0],
		"children":[11,
		12,
		13,
		14]
	},
	{
		"name":"Extrude.1-Mat.10",
		"mesh":5
	},
	{
		"name":"Extrude.1-Mat.10",
		"mesh":6
	},
	{
		"name":"Extrude.1-Mat",
		"mesh":7
	},
	{
		"name":"Extrude.1-Mat.9",
		"mesh":8
	}],
	"asset":{
		"version":"2.0",
		"generator":"Created using the official Cinema 4D glTF Exporter 1.000x284978"
	},
	"textures":[{
		"sampler":0,
		"source":0
	},
	{
		"sampler":1,
		"source":1
	},
	{
		"sampler":2,
		"source":2
	},
	{
		"sampler":3,
		"source":3
	},
	{
		"sampler":4,
		"source":4
	}],
	"scenes":[{
		"nodes":[0]
	}],
	"samplers":[{
		"magFilter":9729,
		"minFilter":9729,
		"wrapS":10497,
		"wrapT":10497
	},
	{
		"magFilter":9729,
		"minFilter":9729,
		"wrapS":10497,
		"wrapT":10497
	},
	{
		"magFilter":9729,
		"minFilter":9729,
		"wrapS":10497,
		"wrapT":10497
	},
	{
		"magFilter":9729,
		"minFilter":9729,
		"wrapS":10497,
		"wrapT":10497
	},
	{
		"magFilter":9729,
		"minFilter":9729,
		"wrapS":10497,
		"wrapT":10497
	}],
	"meshes":[{
		"name":"Extrude.3",
		"primitives":[{
			"attributes":{
				"POSITION":7,
				"TEXCOORD_0":8
			},
			"indices":6,
			"material":0
		}]
	},
	{
		"name":"Extrude.2",
		"primitives":[{
			"attributes":{
				"POSITION":10,
				"TEXCOORD_0":11
			},
			"indices":9,
			"material":0
		}]
	},
	{
		"name":"Sweep.1",
		"primitives":[{
			"attributes":{
				"POSITION":13,
				"TEXCOORD_0":14
			},
			"indices":12,
			"material":1
		}]
	},
	{
		"name":"Extrude",
		"primitives":[{
			"attributes":{
				"POSITION":16,
				"TEXCOORD_0":17
			},
			"indices":15,
			"material":2
		}]
	},
	{
		"name":"Sweep",
		"primitives":[{
			"attributes":{
				"POSITION":19,
				"TEXCOORD_0":20
			},
			"indices":18,
			"material":1
		}]
	},
	{
		"name":"Extrude.1-Mat.10",
		"primitives":[{
			"attributes":{
				"POSITION":22,
				"TEXCOORD_0":23
			},
			"indices":21,
			"material":3
		}]
	},
	{
		"name":"Extrude.1-Mat.10",
		"primitives":[{
			"attributes":{
				"POSITION":25,
				"TEXCOORD_0":26
			},
			"indices":24,
			"material":3
		}]
	},
	{
		"name":"Extrude.1-Mat",
		"primitives":[{
			"attributes":{
				"POSITION":28,
				"TEXCOORD_0":29
			},
			"indices":27,
			"material":4
		}]
	},
	{
		"name":"Extrude.1-Mat.9",
		"primitives":[{
			"attributes":{
				"POSITION":31,
				"TEXCOORD_0":32
			},
			"indices":30,
			"material":5
		}]
	}],
	"accessors":[{
		"max":[10.0],
		"bufferView":0,
		"type":"SCALAR",
		"componentType":5126,
		"count":3,
		"byteOffset":0,
		"min":[0.0]
	},
	{
		"max":[0.42038992047309878,
		0.1666969358921051,
		3.1029763221740724],
		"bufferView":0,
		"type":"VEC3",
		"componentType":5126,
		"count":3,
		"byteOffset":12,
		"min":[0.42038992047309878,
		0.1666969358921051,
		3.1029763221740724]
	},
	{
		"max":[10.0],
		"bufferView":1,
		"type":"SCALAR",
		"componentType":5126,
		"count":10,
		"byteOffset":0,
		"min":[0.0]
	},
	{
		"max":[0.0,
		0.9999862909317017,
		0.0,
		0.9999939203262329],
		"bufferView":1,
		"type":"VEC4",
		"componentType":5126,
		"count":10,
		"byteOffset":40,
		"min":[0.0,
		-0.9999984502792358,
		0.0,
		-1.0]
	},
	{
		"max":[10.0],
		"bufferView":2,
		"type":"SCALAR",
		"componentType":5126,
		"count":3,
		"byteOffset":0,
		"min":[0.0]
	},
	{
		"max":[1.0,
		1.0,
		1.0],
		"bufferView":2,
		"type":"VEC3",
		"componentType":5126,
		"count":3,
		"byteOffset":12,
		"min":[1.0,
		1.0,
		1.0]
	},
	{
		"max":[112],
		"bufferView":3,
		"type":"SCALAR",
		"componentType":5123,
		"count":324,
		"byteOffset":0,
		"min":[0]
	},
	{
		"max":[-0.25103285908699038,
		33.83772659301758,
		-18.77391815185547],
		"bufferView":4,
		"type":"VEC3",
		"componentType":5126,
		"count":113,
		"byteOffset":0,
		"min":[-1.152816891670227,
		11.712502479553223,
		-20.32721710205078]
	},
	{
		"max":[1.0,
		1.0],
		"bufferView":4,
		"type":"VEC2",
		"componentType":5126,
		"count":113,
		"byteOffset":12,
		"min":[0.0,
		0.0]
	},
	{
		"max":[109],
		"bufferView":5,
		"type":"SCALAR",
		"componentType":5123,
		"count":312,
		"byteOffset":0,
		"min":[0]
	},
	{
		"max":[-0.28106045722961428,
		33.832969665527347,
		-18.449384689331056],
		"bufferView":6,
		"type":"VEC3",
		"componentType":5126,
		"count":110,
		"byteOffset":0,
		"min":[-1.332155466079712,
		11.716056823730469,
		-20.25757598876953]
	},
	{
		"max":[1.0,
		1.0],
		"bufferView":6,
		"type":"VEC2",
		"componentType":5126,
		"count":110,
		"byteOffset":12,
		"min":[0.0,
		0.0]
	},
	{
		"max":[1514],
		"bufferView":7,
		"type":"SCALAR",
		"componentType":5123,
		"count":8412,
		"byteOffset":0,
		"min":[0]
	},
	{
		"max":[8.046634674072266,
		131.56703186035157,
		6.942810535430908],
		"bufferView":8,
		"type":"VEC3",
		"componentType":5126,
		"count":1515,
		"byteOffset":0,
		"min":[-2.910710096359253,
		36.46126174926758,
		1.1882526874542237]
	},
	{
		"max":[1.0,
		1.0],
		"bufferView":8,
		"type":"VEC2",
		"componentType":5126,
		"count":1515,
		"byteOffset":12,
		"min":[0.0,
		0.0]
	},
	{
		"max":[2241],
		"bufferView":9,
		"type":"SCALAR",
		"componentType":5123,
		"count":11748,
		"byteOffset":0,
		"min":[0]
	},
	{
		"max":[13.866403579711914,
		45.3686408996582,
		29.973663330078126],
		"bufferView":10,
		"type":"VEC3",
		"componentType":5126,
		"count":2242,
		"byteOffset":0,
		"min":[-1.685661792755127,
		40.60701370239258,
		27.308555603027345]
	},
	{
		"max":[1.0594594478607178,
		0.7849999666213989],
		"bufferView":10,
		"type":"VEC2",
		"componentType":5126,
		"count":2242,
		"byteOffset":12,
		"min":[-0.05955298990011215,
		-0.05941210687160492]
	},
	{
		"max":[1958],
		"bufferView":11,
		"type":"SCALAR",
		"componentType":5123,
		"count":11004,
		"byteOffset":0,
		"min":[0]
	},
	{
		"max":[14.805560111999512,
		131.868408203125,
		8.187883377075196],
		"bufferView":12,
		"type":"VEC3",
		"componentType":5126,
		"count":1959,
		"byteOffset":0,
		"min":[1.3606234788894654,
		32.923011779785159,
		-0.11537465453147888]
	},
	{
		"max":[1.0,
		1.0],
		"bufferView":12,
		"type":"VEC2",
		"componentType":5126,
		"count":1959,
		"byteOffset":12,
		"min":[0.0,
		0.0]
	},
	{
		"max":[353],
		"bufferView":13,
		"type":"SCALAR",
		"componentType":5123,
		"count":1038,
		"byteOffset":0,
		"min":[0]
	},
	{
		"max":[10.42357349395752,
		134.7911834716797,
		0.9363048672676086],
		"bufferView":14,
		"type":"VEC3",
		"componentType":5126,
		"count":354,
		"byteOffset":0,
		"min":[-9.550421714782715,
		1.7811615467071534,
		-2.541163682937622]
	},
	{
		"max":[0.9530557990074158,
		0.9709537029266357],
		"bufferView":14,
		"type":"VEC2",
		"componentType":5126,
		"count":354,
		"byteOffset":12,
		"min":[0.05672188103199005,
		0.0]
	},
	{
		"max":[142],
		"bufferView":15,
		"type":"SCALAR",
		"componentType":5123,
		"count":411,
		"byteOffset":0,
		"min":[0]
	},
	{
		"max":[-8.71985149383545,
		119.8094482421875,
		-1.504629373550415],
		"bufferView":16,
		"type":"VEC3",
		"componentType":5126,
		"count":143,
		"byteOffset":0,
		"min":[-9.61067008972168,
		24.482267379760743,
		-2.540858030319214]
	},
	{
		"max":[0.8949134945869446,
		0.9709537029266357],
		"bufferView":16,
		"type":"VEC2",
		"componentType":5126,
		"count":143,
		"byteOffset":12,
		"min":[0.14529377222061158,
		0.0]
	},
	{
		"max":[241],
		"bufferView":17,
		"type":"SCALAR",
		"componentType":5123,
		"count":720,
		"byteOffset":0,
		"min":[0]
	},
	{
		"max":[10.423565864562989,
		134.7911834716797,
		0.4794226586818695],
		"bufferView":18,
		"type":"VEC3",
		"componentType":5126,
		"count":242,
		"byteOffset":0,
		"min":[-9.61067008972168,
		1.7811615467071534,
		-2.541163682937622]
	},
	{
		"max":[0.8978708982467651,
		0.9826204776763916],
		"bufferView":18,
		"type":"VEC2",
		"componentType":5126,
		"count":242,
		"byteOffset":12,
		"min":[0.09133344888687134,
		0.03160390257835388]
	},
	{
		"max":[240],
		"bufferView":19,
		"type":"SCALAR",
		"componentType":5123,
		"count":717,
		"byteOffset":0,
		"min":[0]
	},
	{
		"max":[10.42357349395752,
		134.41456604003907,
		0.9363048672676086],
		"bufferView":20,
		"type":"VEC3",
		"componentType":5126,
		"count":241,
		"byteOffset":0,
		"min":[-9.610663414001465,
		2.0695130825042726,
		-2.041163921356201]
	},
	{
		"max":[0.6221911907196045,
		0.9707444906234741],
		"bufferView":20,
		"type":"VEC2",
		"componentType":5126,
		"count":241,
		"byteOffset":12,
		"min":[0.393174946308136,
		0.08967256546020508]
	}],
	"bufferViews":[{
		"buffer":0,
		"byteOffset":0,
		"byteLength":48
	},
	{
		"buffer":0,
		"byteOffset":48,
		"byteLength":200
	},
	{
		"buffer":0,
		"byteOffset":248,
		"byteLength":48
	},
	{
		"buffer":1,
		"byteOffset":0,
		"byteLength":648,
		"target":34963
	},
	{
		"buffer":1,
		"byteOffset":648,
		"byteLength":2260,
		"target":34962,
		"byteStride":20
	},
	{
		"buffer":2,
		"byteOffset":0,
		"byteLength":624,
		"target":34963
	},
	{
		"buffer":2,
		"byteOffset":624,
		"byteLength":2200,
		"target":34962,
		"byteStride":20
	},
	{
		"buffer":3,
		"byteOffset":0,
		"byteLength":16824,
		"target":34963
	},
	{
		"buffer":3,
		"byteOffset":16824,
		"byteLength":30300,
		"target":34962,
		"byteStride":20
	},
	{
		"buffer":4,
		"byteOffset":0,
		"byteLength":23496,
		"target":34963
	},
	{
		"buffer":4,
		"byteOffset":23496,
		"byteLength":44840,
		"target":34962,
		"byteStride":20
	},
	{
		"buffer":5,
		"byteOffset":0,
		"byteLength":22008,
		"target":34963
	},
	{
		"buffer":5,
		"byteOffset":22008,
		"byteLength":39180,
		"target":34962,
		"byteStride":20
	},
	{
		"buffer":6,
		"byteOffset":0,
		"byteLength":2076,
		"target":34963
	},
	{
		"buffer":6,
		"byteOffset":2076,
		"byteLength":7080,
		"target":34962,
		"byteStride":20
	},
	{
		"buffer":7,
		"byteOffset":0,
		"byteLength":822,
		"target":34963
	},
	{
		"buffer":7,
		"byteOffset":824,
		"byteLength":2860,
		"target":34962,
		"byteStride":20
	},
	{
		"buffer":8,
		"byteOffset":0,
		"byteLength":1440,
		"target":34963
	},
	{
		"buffer":8,
		"byteOffset":1440,
		"byteLength":4840,
		"target":34962,
		"byteStride":20
	},
	{
		"buffer":9,
		"byteOffset":0,
		"byteLength":1434,
		"target":34963
	},
	{
		"buffer":9,
		"byteOffset":1436,
		"byteLength":4820,
		"target":34962,
		"byteStride":20
	}],
	"buffers":[{
		"uri":"data:application/octet-stream;base64,",
		"byteLength":296
	},
	{
		"uri":"data:application/octet-stream;base64,",
		"byteLength":2908
	},
	{
		"uri":"data:application/octet-stream;base64,",
		"byteLength":2824
	},
	{
		"uri":"data:application/octet-stream;base64,",
		"byteLength":47124
	},
	{
		"uri":"data:application/octet-stream;base64,",
		"byteLength":68336
	},
	{
		"uri":"data:application/octet-stream;base64,",
		"byteLength":61188
	},
	{
		"uri":"data:application/octet-stream;base64,",
		"byteLength":9156
	},
	{
		"uri":"data:application/octet-stream;base64,",
		"byteLength":3684
	},
	{
		"uri":"data:application/octet-stream;base64,",
		"byteLength":6280
	},
	{
		"uri":"data:application/octet-stream;base64,",
		"byteLength":6256
	}],
	"images":[{
		"uri":"data:image/jpeg;base64,"
	},
	{
		"uri":"data:image/jpeg;base64,"
	},
	{
		"uri":"data:image/jpeg;base64,"
	},
	{
		"uri":"data:image/jpeg;base64,"
	},
	{
		"uri":"data:image/jpeg;base64,"
	}],
	"animations":[{
		"samplers":[{
			"input":0,
			"interpolation":"LINEAR",
			"output":1
		},
		{
			"input":2,
			"interpolation":"LINEAR",
			"output":3
		},
		{
			"input":4,
			"interpolation":"LINEAR",
			"output":5
		}],
		"channels":[{
			"sampler":0,
			"target":{
				"node":0,
				"path":"translation"
			}
		},
		{
			"sampler":1,
			"target":{
				"node":0,
				"path":"rotation"
			}
		},
		{
			"sampler":2,
			"target":{
				"node":0,
				"path":"scale"
			}
		}]
	}]
}