{
	"materials":[{
		"pbrMetallicRoughness":{
			"baseColorFactor":[0.1961,
			0.27725333333333337,
			0.37,
			1.0],
			"metallicFactor":0.0,
			"roughnessFactor":0.5
		},
		"emissiveFactor":[0.0,
		0.0,
		0.0],
		"alphaMode":"OPAQUE",
		"doubleSided":true,
		"name":"Mat"
	},
	{
		"pbrMetallicRoughness":{
			"baseColorTexture":{
				"index":0
			},
			"baseColorFactor":[0.8,
			0.8,
			0.8,
			1.0],
			"metallicFactor":1.0,
			"roughnessFactor":1.0
		},
		"emissiveFactor":[0.0,
		0.0,
		0.0],
		"alphaMode":"OPAQUE",
		"doubleSided":true,
		"name":"Base"
	},
	{
		"pbrMetallicRoughness":{
			"baseColorTexture":{
				"index":1
			},
			"baseColorFactor":[0.8,
			0.8,
			0.8,
			1.0],
			"metallicFactor":1.0,
			"roughnessFactor":1.0
		},
		"emissiveFactor":[0.0,
		0.0,
		0.0],
		"alphaMode":"OPAQUE",
		"doubleSided":true,
		"name":"Top"
	}],
	"asset":{
		"version":"2.0",
		"generator":"Created using the official Cinema 4D glTF Exporter 1.000x284978"
	},
	"textures":[{
		"sampler":0,
		"source":0
	},
	{
		"sampler":1,
		"source":1
	}],
	"scenes":[{
		"nodes":[0]
	}],
	"nodes":[{
		"name":"Extrude",
		"children":[1,
		2,
		3]
	},
	{
		"name":"Extrude-Mat",
		"mesh":0
	},
	{
		"name":"Extrude-Base",
		"mesh":1
	},
	{
		"name":"Extrude-Top",
		"mesh":2
	}],
	"samplers":[{
		"magFilter":9729,
		"minFilter":9729,
		"wrapS":10497,
		"wrapT":10497
	},
	{
		"magFilter":9729,
		"minFilter":9729,
		"wrapS":10497,
		"wrapT":10497
	}],
	"meshes":[{
		"name":"Extrude-Mat",
		"primitives":[{
			"indices":0,
			"attributes":{
				"POSITION":1,
				"NORMAL":2,
				"TEXCOORD_0":3
			},
			"material":0
		}]
	},
	{
		"name":"Extrude-Base",
		"primitives":[{
			"indices":4,
			"attributes":{
				"POSITION":5,
				"NORMAL":6,
				"TEXCOORD_0":7
			},
			"material":1
		}]
	},
	{
		"name":"Extrude-Top",
		"primitives":[{
			"indices":8,
			"attributes":{
				"POSITION":9,
				"NORMAL":10,
				"TEXCOORD_0":11
			},
			"material":2
		}]
	}],
	"accessors":[{
		"bufferView":0,
		"type":"SCALAR",
		"componentType":5123,
		"count":1944,
		"byteOffset":0,
		"min":[0],
		"max":[651]
	},
	{
		"bufferView":1,
		"type":"VEC3",
		"componentType":5126,
		"count":652,
		"byteOffset":0,
		"min":[-24.681535720825197,
		24.361677169799806,
		-55.06835174560547],
		"max":[0.0014880755916237832,
		553.7574462890625,
		54.86827087402344]
	},
	{
		"bufferView":1,
		"type":"VEC3",
		"componentType":5126,
		"count":652,
		"byteOffset":12,
		"min":[-0.6999375224113464,
		-0.8588125705718994,
		-0.9999688267707825],
		"max":[0.019218750298023225,
		0.8877812623977661,
		0.9999688267707825]
	},
	{
		"bufferView":1,
		"type":"VEC2",
		"componentType":5126,
		"count":652,
		"byteOffset":24,
		"min":[-0.007089896593242884,
		0.01211693324148655],
		"max":[1.0058512687683106,
		0.959175705909729]
	},
	{
		"bufferView":2,
		"type":"SCALAR",
		"componentType":5123,
		"count":2316,
		"byteOffset":0,
		"min":[0],
		"max":[562]
	},
	{
		"bufferView":3,
		"type":"VEC3",
		"componentType":5126,
		"count":563,
		"byteOffset":0,
		"min":[-22.57489776611328,
		24.361677169799806,
		-55.06835174560547],
		"max":[0.0014880755916237832,
		553.7574462890625,
		54.86827087402344]
	},
	{
		"bufferView":3,
		"type":"VEC3",
		"componentType":5126,
		"count":563,
		"byteOffset":12,
		"min":[0.6530625224113464,
		-0.527093768119812,
		-0.44475001096725466],
		"max":[1.0,
		0.6128437519073486,
		0.4582187831401825]
	},
	{
		"bufferView":3,
		"type":"VEC2",
		"componentType":5126,
		"count":563,
		"byteOffset":24,
		"min":[0.08933347463607788,
		0.16747501492500306],
		"max":[0.9617209434509277,
		0.8341444730758667]
	},
	{
		"bufferView":4,
		"type":"SCALAR",
		"componentType":5123,
		"count":2316,
		"byteOffset":0,
		"min":[0],
		"max":[562]
	},
	{
		"bufferView":5,
		"type":"VEC3",
		"componentType":5126,
		"count":563,
		"byteOffset":0,
		"min":[-24.681535720825197,
		25.618404388427736,
		-55.06835174560547],
		"max":[-2.444183349609375,
		552.6309204101563,
		54.86827087402344]
	},
	{
		"bufferView":5,
		"type":"VEC3",
		"componentType":5126,
		"count":563,
		"byteOffset":12,
		"min":[-1.0,
		-0.6151250004768372,
		-0.3839375078678131],
		"max":[-0.6530937552452087,
		0.6778125166893005,
		0.4415625333786011]
	},
	{
		"bufferView":5,
		"type":"VEC2",
		"componentType":5126,
		"count":563,
		"byteOffset":24,
		"min":[0.05732458829879761,
		0.17640694975852967],
		"max":[0.9637808799743652,
		0.8338574171066284]
	}],
	"bufferViews":[{
		"buffer":0,
		"byteOffset":0,
		"byteLength":3888,
		"target":34963
	},
	{
		"buffer":0,
		"byteOffset":3888,
		"byteLength":20864,
		"target":34962,
		"byteStride":32
	},
	{
		"buffer":1,
		"byteOffset":0,
		"byteLength":4632,
		"target":34963
	},
	{
		"buffer":1,
		"byteOffset":4632,
		"byteLength":18016,
		"target":34962,
		"byteStride":32
	},
	{
		"buffer":2,
		"byteOffset":0,
		"byteLength":4632,
		"target":34963
	},
	{
		"buffer":2,
		"byteOffset":4632,
		"byteLength":18016,
		"target":34962,
		"byteStride":32
	}],
	"buffers":[{
		"uri":"data:application/octet-stream;base64,",
		"byteLength":24752
	},
	{
		"uri":"data:application/octet-stream;base64,",
		"byteLength":22648
	},
	{
		"uri":"data:application/octet-stream;base64,",
		"byteLength":22648
	}],
	"images":[{
		"uri":"data:image/jpeg;base64,"
	},
	{
		"uri":"data:image/jpeg;base64,"
	}]
}