{
	"asset":{
		"version":"2.0",
		"generator":"Created using the official Cinema 4D glTF Exporter 1.000x284978"
	},
	"scenes":[{
		"nodes":[0]
	}],
	"accessors":[{
		"type":"SCALAR",
		"bufferView":0,
		"componentType":5123,
		"count":480,
		"byteOffset":0,
		"min":[0],
		"max":[104]
	},
	{
		"type":"VEC3",
		"bufferView":1,
		"componentType":5126,
		"count":105,
		"byteOffset":0,
		"min":[-684.80859375,
		-100.5,
		0.0],
		"max":[684.801513671875,
		100.5,
		0.0]
	},
	{
		"type":"VEC3",
		"bufferView":1,
		"componentType":5126,
		"count":105,
		"byteOffset":12,
		"min":[0.0,
		0.0,
		1.0],
		"max":[0.0,
		0.0,
		1.0]
	},
	{
		"type":"VEC2",
		"bufferView":1,
		"componentType":5126,
		"count":105,
		"byteOffset":24,
		"min":[0.004714973270893097,
		0.0],
		"max":[0.9952797889709473,
		1.0]
	}],
	"nodes":[{
		"name":"Plane",
		"mesh":0
	}],
	"meshes":[{
		"name":"Plane",
		"primitives":[{
			"attributes":{
				"POSITION":1,
				"NORMAL":2,
				"TEXCOORD_0":3
			},
			"indices":0,
			"material":0
		}]
	}],
	"bufferViews":[{
		"buffer":0,
		"byteOffset":0,
		"byteLength":960,
		"target":34963
	},
	{
		"buffer":0,
		"byteOffset":960,
		"byteLength":3360,
		"target":34962,
		"byteStride":32
	}],
	"buffers":[{
		"uri":"data:application/octet-stream;base64,",
		"byteLength":4320
	}],
	"materials":[{
		"pbrMetallicRoughness":{
			"baseColorFactor":[1.0,
			1.0,
			1.0,
			0.25],
			"metallicFactor":1.0,
			"roughnessFactor":1.0
		},
		"emissiveFactor":[0.0,
		0.0,
		0.0],
		"alphaMode":"BLEND",
		"doubleSided":true,
		"name":"watchdoc_backgrpound"
	}]
}