{
	"asset":{
		"version":"2.0",
		"generator":"Created using the official Cinema 4D glTF Exporter 1.000x284978"
	},
	"scenes":[{
		"nodes":[0]
	}],
	"accessors":[{
		"type":"SCALAR",
		"bufferView":0,
		"componentType":5123,
		"count":3,
		"byteOffset":0,
		"min":[0],
		"max":[2]
	},
	{
		"type":"VEC3",
		"bufferView":1,
		"componentType":5126,
		"count":3,
		"byteOffset":0,
		"min":[-25.0,
		-13.570483207702637,
		0.0],
		"max":[25.0,
		25.0,
		0.0]
	},
	{
		"type":"VEC3",
		"bufferView":1,
		"componentType":5126,
		"count":3,
		"byteOffset":12,
		"min":[0.0,
		0.0,
		1.0],
		"max":[0.0,
		0.0,
		1.0]
	},
	{
		"type":"VEC2",
		"bufferView":1,
		"componentType":5126,
		"count":3,
		"byteOffset":24,
		"min":[0.0,
		0.0],
		"max":[1.0,
		1.0]
	},
	{
		"type":"SCALAR",
		"bufferView":2,
		"componentType":5123,
		"count":27612,
		"byteOffset":0,
		"min":[0],
		"max":[9803]
	},
	{
		"type":"VEC3",
		"bufferView":3,
		"componentType":5126,
		"count":9804,
		"byteOffset":0,
		"min":[-539.280517578125,
		-37.38565444946289,
		-1.0],
		"max":[539.280517578125,
		28.786346435546876,
		0.0]
	},
	{
		"type":"VEC3",
		"bufferView":3,
		"componentType":5126,
		"count":9804,
		"byteOffset":12,
		"min":[-1.0,
		-1.0,
		-1.0],
		"max":[1.0,
		1.0,
		1.0]
	},
	{
		"type":"VEC2",
		"bufferView":3,
		"componentType":5126,
		"count":9804,
		"byteOffset":24,
		"min":[0.0,
		0.0],
		"max":[1.0,
		1.0]
	}],
	"nodes":[{
		"name":"Null",
		"children":[1,
		2],
		"translation":[-166.17807006835938,
		-11.543212890625,
		0.0],
		"rotation":[0.0,
		0.0,
		0.0,
		-1.0],
		"scale":[1.0,
		1.0,
		1.0]
	},
	{
		"name":"Polygon",
		"translation":[-377.28387451171877,
		13.153058052062989,
		0.0],
		"rotation":[0.0,
		0.0,
		0.7071067690849304,
		0.7071067690849304],
		"scale":[1.0,
		1.0,
		1.0],
		"mesh":0
	},
	{
		"name":"Extrude",
		"translation":[190.55865478515626,
		11.543212890625,
		0.0],
		"rotation":[0.0,
		0.0,
		0.0,
		-1.0],
		"scale":[1.0,
		1.0,
		1.0],
		"mesh":1
	}],
	"meshes":[{
		"name":"Polygon",
		"primitives":[{
			"attributes":{
				"POSITION":1,
				"NORMAL":2,
				"TEXCOORD_0":3
			},
			"indices":0,
			"material":0
		}]
	},
	{
		"name":"Extrude",
		"primitives":[{
			"attributes":{
				"POSITION":5,
				"NORMAL":6,
				"TEXCOORD_0":7
			},
			"indices":4,
			"material":0
		}]
	}],
	"bufferViews":[{
		"buffer":0,
		"byteOffset":0,
		"byteLength":6,
		"target":34963
	},
	{
		"buffer":0,
		"byteOffset":8,
		"byteLength":96,
		"target":34962,
		"byteStride":32
	},
	{
		"buffer":1,
		"byteOffset":0,
		"byteLength":55224,
		"target":34963
	},
	{
		"buffer":1,
		"byteOffset":55224,
		"byteLength":313728,
		"target":34962,
		"byteStride":32
	}],
	"buffers":[{
		"uri":"data:application/octet-stream;base64,",
		"byteLength":104
	},
	{
		"uri":"data:application/octet-stream;base64,",
		"byteLength":368952
	}],
	"materials":[{
		"pbrMetallicRoughness":{
			"baseColorFactor":[1.0,
			1.0,
			1.0,
			1.0],
			"metallicFactor":1.0,
			"roughnessFactor":1.0
		},
		"emissiveFactor":[0.0,
		0.0,
		0.0],
		"alphaMode":"OPAQUE",
		"doubleSided":true,
		"name":"Mat.1"
	}]
}